<?xml version="1.0" encoding="UTF-8" standalone="no"?><!DOCTYPE svg PUBLIC "-//W3C//DTD SVG 1.1//EN" "http://www.w3.org/Graphics/SVG/1.1/DTD/svg11.dtd"><svg width="92px" height="92px" version="1.1" xmlns="http://www.w3.org/2000/svg" xmlns:xlink="http://www.w3.org/1999/xlink" xml:space="preserve" xmlns:serif="http://www.serif.com/" style="fill-rule:evenodd;clip-rule:evenodd;stroke-linejoin:round;stroke-miterlimit:2;"><g transform="matrix(4.16667,0,0,4.16667,-550,-458.333)"><g id="ll-asterisk" transform="matrix(1.36397,0,0,1.36397,-56.7232,-46.1605)"><path d="M147.009,123.528C147.398,123.556 147.607,123.967 147.89,124.289C148.875,125.423 149.924,126.53 150.718,127.785C151.614,129.2 148.863,130.588 146.709,130.339C146.159,130.275 145.616,129.844 145.629,129.223C145.668,127.43 145.988,125.533 146.506,123.87C146.586,123.664 146.772,123.526 147.009,123.528ZM145.36,123.172C146.251,123.251 145.398,125.129 144.804,126.727C144.402,127.809 144.022,129.197 143.338,129.398C141.973,129.799 140.423,128.183 139.734,126.59C139.515,126.083 139.616,125.396 140.161,125.097C141.791,124.203 143.632,123.127 145.36,123.172ZM153.453,121.422C154.972,121.492 154.671,124.299 153.547,126.022C153.096,126.715 152.242,126.825 151.201,126.032C149.991,125.111 148.724,124.181 147.739,123.114C147.128,122.356 149.43,121.976 151.27,121.673C151.993,121.554 152.726,121.411 153.453,121.422ZM140.498,118.095C141.303,118.213 141.603,118.707 142.084,119.087C143.161,119.939 144.288,120.75 145.197,121.734C145.787,122.466 143.641,122.841 141.91,123.134C141.106,123.27 140.312,123.679 139.201,123.391C137.84,123.04 138.296,120.396 139.44,118.75C139.684,118.398 139.908,118.054 140.498,118.095ZM149.927,115.416C151.326,115.522 152.597,116.861 153.201,118.258C153.436,118.8 153.247,119.516 152.639,119.822C151.072,120.612 149.389,121.277 147.705,121.667C146.781,121.821 147.519,119.771 148.132,118.121C148.566,116.952 148.863,115.376 149.927,115.416ZM145.949,114.49C146.13,114.498 146.31,114.512 146.487,114.554C147.857,114.877 147.147,117.27 146.757,119.339C146.512,120.643 146.487,122.205 145.046,120.559C144.04,119.402 143.017,118.459 142.141,116.937C141.445,115.726 143.752,114.459 145.949,114.49Z" style="fill:rgb(58,62,70);"/></g></g></svg>