<?xml version="1.0" encoding="UTF-8" standalone="no"?><!DOCTYPE svg PUBLIC "-//W3C//DTD SVG 1.1//EN" "http://www.w3.org/Graphics/SVG/1.1/DTD/svg11.dtd"><svg width="92px" height="92px" version="1.1" xmlns="http://www.w3.org/2000/svg" xmlns:xlink="http://www.w3.org/1999/xlink" xml:space="preserve" xmlns:serif="http://www.serif.com/" style="fill-rule:evenodd;clip-rule:evenodd;stroke-linejoin:round;stroke-miterlimit:2;"><g transform="matrix(4.16667,0,0,4.16667,-3333.33,-458.333)"><g transform="matrix(1,0,0,1,-36,0)"><path id="ll-icon-anonymous-off" d="M849.5,126.167L853,126.167C855.759,126.167 858,128.407 858,131.167L858,132L836,132L836,131.167C836,128.407 838.24,126.167 841,126.167L844.5,126.167L844.5,124.632C842.378,123.676 840.9,121.543 840.9,119.067L840.9,116.267C840.9,112.9 843.633,110.167 847,110.167C850.367,110.167 853.1,112.9 853.1,116.267L853.1,119.067C853.1,121.543 851.621,123.676 849.5,124.632L849.5,126.167ZM857,125L856,125C855.448,125 855,124.552 855,124L855,111C855,110.448 855.448,110 856,110L857,110C857.552,110 858,110.448 858,111L858,124C858,124.552 857.552,125 857,125Z" style="fill:rgb(58,62,70);"/></g></g></svg>