<?xml version="1.0" encoding="UTF-8" standalone="no"?><!DOCTYPE svg PUBLIC "-//W3C//DTD SVG 1.1//EN" "http://www.w3.org/Graphics/SVG/1.1/DTD/svg11.dtd"><svg width="92px" height="92px" version="1.1" xmlns="http://www.w3.org/2000/svg" xmlns:xlink="http://www.w3.org/1999/xlink" xml:space="preserve" xmlns:serif="http://www.serif.com/" style="fill-rule:evenodd;clip-rule:evenodd;stroke-linejoin:round;stroke-miterlimit:2;"><g id="ll-icon-approved"><path id="ll-icon-approved1" serif:id="ll-icon-approved" d="M59.833,91.667l-55.666,0c-2.3,0 -4.167,-1.867 -4.167,-4.167l0,-83.333c0,-2.294 1.858,-4.158 4.167,-4.167l62.5,0c2.309,0.009 4.166,1.873 4.166,4.167l0,36.92c-1.354,-0.225 -2.747,-0.339 -4.166,-0.339c-14.305,0 -25.919,11.614 -25.919,25.919c0,11.934 8.083,21.995 19.085,25Zm4.758,-26.886l11.686,-11.686c1.626,-1.626 4.266,-1.626 5.892,0l2.947,2.946c1.626,1.626 1.626,4.267 0,5.893l-20.481,20.481l-3.873,-3.873c-0.186,-0.126 -0.365,-0.277 -0.534,-0.446l-8.919,-8.919c-1.626,-1.626 -1.626,-4.266 0,-5.892l2.946,-2.947c1.626,-1.626 4.267,-1.626 5.893,0l4.443,4.443Z" style="fill:#3a3e46;"/></g></svg>