<?xml version="1.0" encoding="UTF-8" standalone="no"?><!DOCTYPE svg PUBLIC "-//W3C//DTD SVG 1.1//EN" "http://www.w3.org/Graphics/SVG/1.1/DTD/svg11.dtd"><svg width="92px" height="92px" version="1.1" xmlns="http://www.w3.org/2000/svg" xmlns:xlink="http://www.w3.org/1999/xlink" xml:space="preserve" xmlns:serif="http://www.serif.com/" style="fill-rule:evenodd;clip-rule:evenodd;stroke-linejoin:round;stroke-miterlimit:2;"><g transform="matrix(4.16667,0,0,4.16667,-3233.33,-458.333)"><g transform="matrix(1,0,0,1,-60,0)"><path id="ll-icon-anonymous-on" d="M853.1,118L853.1,119.067C853.1,121.543 851.621,123.676 849.5,124.632L849.5,126.167L853,126.167C855.759,126.167 858,128.407 858,131.167L858,132L836,132L836,131.167C836,128.407 838.24,126.167 841,126.167L844.5,126.167L844.5,124.632C842.378,123.676 840.9,121.543 840.9,119.067L840.9,118L853.1,118ZM841.849,113C842.931,111.297 844.835,110.167 847,110.167C849.165,110.167 851.069,111.297 852.151,113L841.849,113ZM854.5,114.893L854.5,116.107C854.5,116.659 854.052,117.107 853.5,117.107L840.5,117.107C839.948,117.107 839.5,116.659 839.5,116.107L839.5,114.893C839.5,114.341 839.948,113.893 840.5,113.893L853.5,113.893C854.052,113.893 854.5,114.341 854.5,114.893Z" style="fill:rgb(58,62,70);"/></g></g></svg>