<?xml version="1.0" encoding="UTF-8" standalone="no"?><!DOCTYPE svg PUBLIC "-//W3C//DTD SVG 1.1//EN" "http://www.w3.org/Graphics/SVG/1.1/DTD/svg11.dtd"><svg width="92px" height="92px" version="1.1" xmlns="http://www.w3.org/2000/svg" xmlns:xlink="http://www.w3.org/1999/xlink" xml:space="preserve" xmlns:serif="http://www.serif.com/" style="fill-rule:evenodd;clip-rule:evenodd;stroke-linejoin:round;stroke-miterlimit:2;"><g transform="matrix(4.16667,0,0,4.16667,-4216.67,-116.667)"><g id="ll-icon-arrows-clockwise" transform="matrix(1,0,0,1,352,-1072)"><g transform="matrix(-1,0,0,1,1209.95,-0.585816)"><g transform="matrix(0.987293,0,0,0.987293,-261.665,-266.302)"><path d="M811.493,1384.48C807.738,1384.51 804.102,1386.55 802.113,1389.73C801.223,1391.17 803.356,1393.39 804.835,1391.11C807.408,1387.28 813.373,1386.39 816.931,1389.65C816.931,1389.65 817.83,1390.26 818.589,1389.92C819.551,1389.48 819.747,1388.1 818.809,1387.26C816.787,1385.46 814.097,1384.48 811.493,1384.48Z" style="fill:rgb(58,62,70);"/></g><g transform="matrix(0.9,0,-6.10623e-16,0.9,-1502.4,-865.014)"><path d="M2256,2186.68C2256,2186.23 2256.27,2185.83 2256.69,2185.66C2257.1,2185.48 2257.58,2185.58 2257.9,2185.9C2259.68,2187.68 2262.32,2190.32 2264.1,2192.1C2264.42,2192.42 2264.52,2192.9 2264.34,2193.31C2264.17,2193.73 2263.77,2194 2263.32,2194C2260.36,2194 2256,2194 2256,2194L2256,2186.68Z" style="fill:rgb(58,62,70);"/></g></g><g transform="matrix(1,-1.22465e-16,-1.22465e-16,-1,132,2222.59)"><g transform="matrix(0.987293,0,0,0.987293,-261.665,-266.302)"><path d="M803.388,1392.18C804.877,1392.07 805.402,1390.02 806.957,1388.94C809.975,1386.84 814.431,1387.21 817.11,1389.83C817.11,1389.83 817.786,1390.38 818.492,1390.22C819.613,1389.98 820.155,1388.53 819.053,1387.48C814.976,1383.64 807.744,1383.37 803.494,1387.93C802.077,1389.45 801.041,1392.2 803.388,1392.18Z" style="fill:rgb(58,62,70);"/></g><g transform="matrix(0.9,0,-6.10623e-16,0.9,-1502.4,-865.014)"><path d="M2256,2186.68C2256,2186.23 2256.27,2185.83 2256.69,2185.66C2257.1,2185.48 2257.58,2185.58 2257.9,2185.9C2259.68,2187.68 2262.32,2190.32 2264.1,2192.1C2264.42,2192.42 2264.52,2192.9 2264.34,2193.31C2264.17,2193.73 2263.77,2194 2263.32,2194C2260.36,2194 2256,2194 2256,2194L2256,2186.68Z" style="fill:rgb(58,62,70);"/></g></g></g></g></svg>