<?xml version="1.0" encoding="UTF-8" standalone="no"?><!DOCTYPE svg PUBLIC "-//W3C//DTD SVG 1.1//EN" "http://www.w3.org/Graphics/SVG/1.1/DTD/svg11.dtd"><svg width="92px" height="92px" version="1.1" xmlns="http://www.w3.org/2000/svg" xmlns:xlink="http://www.w3.org/1999/xlink" xml:space="preserve" xmlns:serif="http://www.serif.com/" style="fill-rule:evenodd;clip-rule:evenodd;stroke-linejoin:round;stroke-miterlimit:2;"><g transform="matrix(4.16667,0,0,4.16667,-4216.67,-641.667)"><g transform="matrix(1.41056,0,0,1.5724,-420.821,-1302.44)"><path id="ll-icon-application" d="M1031.38,927.202L1031.38,939.286C1031.38,939.637 1031.06,939.922 1030.67,939.922L1016.49,939.922C1016.1,939.922 1015.78,939.637 1015.78,939.286L1015.78,927.202C1015.78,926.851 1016.1,926.566 1016.49,926.566L1030.67,926.566C1031.06,926.566 1031.38,926.851 1031.38,927.202ZM1029.25,930.382C1029.25,930.031 1028.94,929.746 1028.55,929.746L1018.62,929.746C1018.23,929.746 1017.91,930.031 1017.91,930.382L1017.91,937.378C1017.91,937.729 1018.23,938.014 1018.62,938.014L1028.55,938.014C1028.94,938.014 1029.25,937.729 1029.25,937.378L1029.25,930.382ZM1022.46,930.704L1023.27,931.457C1023.48,931.432 1023.7,931.431 1023.92,931.454L1024.76,930.695C1025.04,930.779 1025.32,930.894 1025.57,931.039L1025.39,932.08C1025.55,932.213 1025.68,932.363 1025.79,932.527L1026.97,932.62C1027.07,932.871 1027.14,933.133 1027.16,933.4L1026.13,933.945C1026.11,934.137 1026.06,934.325 1025.98,934.506L1026.62,935.381C1026.45,935.61 1026.26,935.821 1026.04,936.009L1024.93,935.649C1024.75,935.754 1024.55,935.838 1024.34,935.9L1023.95,936.898C1023.65,936.933 1023.34,936.934 1023.04,936.902L1022.69,935.907C1022.48,935.847 1022.29,935.764 1022.11,935.66L1020.99,936.03C1020.77,935.844 1020.59,935.634 1020.43,935.406L1021.1,934.526C1021.03,934.345 1020.98,934.158 1020.96,933.967L1019.95,933.429C1019.99,933.162 1020.06,932.9 1020.17,932.648L1021.36,932.545C1021.47,932.381 1021.61,932.229 1021.77,932.095L1021.63,931.055C1021.89,930.908 1022.17,930.791 1022.46,930.704ZM1022.88,932.455C1022.07,932.798 1021.72,933.647 1022.09,934.351C1022.47,935.054 1023.42,935.347 1024.23,935.004C1025.03,934.661 1025.38,933.812 1025.01,933.109C1024.64,932.405 1023.68,932.112 1022.88,932.455Z" style="fill:rgb(58,62,70);"/></g></g></svg>