<?xml version="1.0" encoding="UTF-8" standalone="no"?><!DOCTYPE svg PUBLIC "-//W3C//DTD SVG 1.1//EN" "http://www.w3.org/Graphics/SVG/1.1/DTD/svg11.dtd"><svg width="88px" height="92px" version="1.1" xmlns="http://www.w3.org/2000/svg" xmlns:xlink="http://www.w3.org/1999/xlink" xml:space="preserve" xmlns:serif="http://www.serif.com/" style="fill-rule:evenodd;clip-rule:evenodd;stroke-linejoin:round;stroke-miterlimit:2;"><g id="ll-icon-add"><path d="M45.833,2.083c2.305,0.006 4.167,1.871 4.167,4.167l0,33.333l33.333,0c2.305,0.006 4.167,1.871 4.167,4.167l0,4.167c0,2.299 -1.867,4.166 -4.167,4.166l-33.333,0l0,33.334c0,2.299 -1.867,4.166 -4.167,4.166l-4.166,0c-2.3,0 -4.167,-1.867 -4.167,-4.166l0,-33.334l-33.333,0c-2.3,0 -4.167,-1.867 -4.167,-4.166l0,-4.167c0,-2.296 1.862,-4.161 4.167,-4.167l33.333,0l0,-33.333c0,-2.296 1.862,-4.161 4.167,-4.167l4.166,0Z" style="fill:#3a3e46;"/></g></svg>