<?xml version="1.0" encoding="UTF-8" standalone="no"?><!DOCTYPE svg PUBLIC "-//W3C//DTD SVG 1.1//EN" "http://www.w3.org/Graphics/SVG/1.1/DTD/svg11.dtd"><svg width="92px" height="92px" version="1.1" xmlns="http://www.w3.org/2000/svg" xmlns:xlink="http://www.w3.org/1999/xlink" xml:space="preserve" xmlns:serif="http://www.serif.com/" style="fill-rule:evenodd;clip-rule:evenodd;stroke-linejoin:round;stroke-miterlimit:2;"><g transform="matrix(4.16667,0,0,4.16667,-5041.67,-320.833)"><g id="ll-icon-briefcase" transform="matrix(0.916667,0,0,0.916667,853.417,-13.6667)"><path d="M389,108.727L389,105.455C389,104.852 389.489,104.364 390.091,104.364L394.455,104.364C394.455,104.364 394.455,101.091 394.455,101.091C394.455,100.489 394.943,100 395.545,100L406.455,100C407.057,100 407.545,100.489 407.545,101.091L407.545,104.364C407.545,104.364 411.909,104.364 411.909,104.364C412.511,104.364 413,104.852 413,105.455L413,119.636C413,120.238 412.511,120.727 411.909,120.727L390.091,120.727C389.489,120.727 389,120.238 389,119.636L389,110.909L398.818,110.909L398.818,112C398.818,112.602 399.307,113.091 399.909,113.091L402.091,113.091C402.693,113.091 403.182,112.602 403.182,112L403.182,110.909L412.997,110.909L412.997,108.727L389,108.727ZM405.364,103.273C405.364,102.671 404.875,102.182 404.273,102.182L397.727,102.182C397.125,102.182 396.636,102.671 396.636,103.273L396.636,104.364L405.364,104.364L405.364,103.273Z" style="fill:rgb(58,62,70);"/></g></g></svg>