<?xml version="1.0" encoding="UTF-8" standalone="no"?><!DOCTYPE svg PUBLIC "-//W3C//DTD SVG 1.1//EN" "http://www.w3.org/Graphics/SVG/1.1/DTD/svg11.dtd"><svg width="92px" height="92px" version="1.1" xmlns="http://www.w3.org/2000/svg" xmlns:xlink="http://www.w3.org/1999/xlink" xml:space="preserve" xmlns:serif="http://www.serif.com/" style="fill-rule:evenodd;clip-rule:evenodd;stroke-linejoin:round;stroke-miterlimit:2;"><g transform="matrix(4.16667,0,0,4.16667,-641.667,-825)"><g transform="matrix(1.15789,0,0,1.25748,-972.632,-524.742)"><g id="ll-icon-bankcard"><path id="ll-icon-bankcard1" serif:id="ll-icon-bankcard" d="M992,581.913L973,581.913L973,580.322L992,580.322L992,579.527C992,578.649 991.226,577.937 990.273,577.937L974.727,577.937C973.774,577.937 973,578.649 973,579.527L973,587.48C973,588.357 973.774,589.07 974.727,589.07L990.273,589.07C991.226,589.07 992,588.357 992,587.48L992,581.913ZM979.909,585.889C979.909,585.45 979.522,585.094 979.045,585.094L976.455,585.094C975.978,585.094 975.591,585.45 975.591,585.889C975.591,586.328 975.978,586.684 976.455,586.684L979.045,586.684C979.522,586.684 979.909,586.328 979.909,585.889Z" style="fill:rgb(58,62,70);"/></g></g></g></svg>