<?xml version="1.0" encoding="UTF-8" standalone="no"?><!DOCTYPE svg PUBLIC "-//W3C//DTD SVG 1.1//EN" "http://www.w3.org/Graphics/SVG/1.1/DTD/svg11.dtd"><svg width="92px" height="92px" version="1.1" xmlns="http://www.w3.org/2000/svg" xmlns:xlink="http://www.w3.org/1999/xlink" xml:space="preserve" xmlns:serif="http://www.serif.com/" style="fill-rule:evenodd;clip-rule:evenodd;stroke-linejoin:round;stroke-miterlimit:2;"><g transform="matrix(4.16667,0,0,4.16667,-650,-458.333)"><g id="ll-icon-bell" transform="matrix(0.365431,0,0,0.365431,-222.501,-70.2291)"><path d="M1045.24,541.084C1044.54,541.632 1043.95,542.312 1043.51,543.085C1041.63,546.363 1042.77,550.546 1046.05,552.42C1049.33,554.295 1053.51,553.156 1055.38,549.879C1055.83,549.105 1056.12,548.252 1056.23,547.369L1045.24,541.084ZM1071.42,503.85L1076.31,494.649C1077.02,493.315 1078.67,492.807 1080.01,493.516L1089.67,498.65C1091.01,499.359 1091.52,501.017 1090.81,502.35L1085.82,511.743C1089.69,517.278 1090.39,524.738 1087.01,531.108L1080.5,543.359C1081.65,544.132 1082.05,545.663 1081.39,546.91L1079.01,551.386C1078.3,552.72 1076.64,553.228 1075.31,552.519L1042.69,535.193C1041.36,534.485 1040.85,532.827 1041.56,531.493L1043.93,527.017C1044.64,525.683 1046.3,525.175 1047.63,525.884L1047.72,525.928L1054.22,513.69C1057.68,507.167 1064.5,503.556 1071.42,503.85ZM1083.55,504.645C1084.26,503.311 1083.75,501.653 1082.42,500.944L1081.96,500.703C1080.63,499.995 1078.97,500.503 1078.27,501.837L1076.98,504.253C1076.27,505.587 1076.78,507.245 1078.11,507.954L1078.57,508.194C1079.9,508.903 1081.56,508.395 1082.27,507.061L1083.55,504.645Z" style="fill:rgb(58,62,70);"/></g></g></svg>