<?xml version="1.0" encoding="UTF-8" standalone="no"?><!DOCTYPE svg PUBLIC "-//W3C//DTD SVG 1.1//EN" "http://www.w3.org/Graphics/SVG/1.1/DTD/svg11.dtd"><svg width="71px" height="92px" version="1.1" xmlns="http://www.w3.org/2000/svg" xmlns:xlink="http://www.w3.org/1999/xlink" xml:space="preserve" xmlns:serif="http://www.serif.com/" style="fill-rule:evenodd;clip-rule:evenodd;stroke-linejoin:round;stroke-miterlimit:2;"><g transform="matrix(4.16667,0,0,4.16667,-4329.17,-320.833)"><g id="ll-icon-calculator" transform="matrix(1,0,0,1,-16,0)"><path d="M1071,77C1071.55,77.001 1072,77.449 1072,78L1072,98C1072,98.552 1071.55,99 1071,99L1056,99C1055.45,99 1055,98.552 1055,98L1055,78C1055,77.449 1055.45,77.001 1056,77L1071,77ZM1060,93L1059,93C1058.45,93.001 1058,93.449 1058,94L1058,95C1058,95.552 1058.45,96 1059,96L1060,96C1060.55,96 1061,95.552 1061,95L1061,94C1061,93.449 1060.55,93.001 1060,93ZM1068,93L1067,93C1066.45,93.001 1066,93.449 1066,94L1066,95C1066,95.552 1066.45,96 1067,96L1068,96C1068.55,96 1069,95.552 1069,95L1069,94C1069,93.449 1068.55,93.001 1068,93ZM1064,93L1063,93C1062.45,93.001 1062,93.449 1062,94L1062,95C1062,95.552 1062.45,96 1063,96L1064,96C1064.55,96 1065,95.552 1065,95L1065,94C1065,93.449 1064.55,93.001 1064,93ZM1060,89L1059,89C1058.45,89.001 1058,89.449 1058,90L1058,91C1058,91.552 1058.45,92 1059,92L1060,92C1060.55,92 1061,91.552 1061,91L1061,90C1061,89.449 1060.55,89.001 1060,89ZM1068,89L1067,89C1066.45,89.001 1066,89.449 1066,90L1066,91C1066,91.552 1066.45,92 1067,92L1068,92C1068.55,92 1069,91.552 1069,91L1069,90C1069,89.449 1068.55,89.001 1068,89ZM1064,89L1063,89C1062.45,89.001 1062,89.449 1062,90L1062,91C1062,91.552 1062.45,92 1063,92L1064,92C1064.55,92 1065,91.552 1065,91L1065,90C1065,89.449 1064.55,89.001 1064,89ZM1060,85L1059,85C1058.45,85.001 1058,85.449 1058,86L1058,87C1058,87.552 1058.45,88 1059,88L1060,88C1060.55,88 1061,87.552 1061,87L1061,86C1061,85.449 1060.55,85.001 1060,85ZM1068,85L1067,85C1066.45,85.001 1066,85.449 1066,86L1066,87C1066,87.552 1066.45,88 1067,88L1068,88C1068.55,88 1069,87.552 1069,87L1069,86C1069,85.449 1068.55,85.001 1068,85ZM1064,85L1063,85C1062.45,85.001 1062,85.449 1062,86L1062,87C1062,87.552 1062.45,88 1063,88L1064,88C1064.55,88 1065,87.552 1065,87L1065,86C1065,85.449 1064.55,85.001 1064,85ZM1068,80L1059,80C1058.45,80.001 1058,80.449 1058,81L1058,83C1058,83.552 1058.45,84 1059,84L1068,84C1068.55,84 1069,83.552 1069,83L1069,81C1069,80.449 1068.55,80.001 1068,80Z" style="fill:rgb(58,62,70);"/></g></g></svg>