<?xml version="1.0" encoding="UTF-8" standalone="no"?><!DOCTYPE svg PUBLIC "-//W3C//DTD SVG 1.1//EN" "http://www.w3.org/Graphics/SVG/1.1/DTD/svg11.dtd"><svg width="92px" height="92px" version="1.1" xmlns="http://www.w3.org/2000/svg" xmlns:xlink="http://www.w3.org/1999/xlink" xml:space="preserve" xmlns:serif="http://www.serif.com/" style="fill-rule:evenodd;clip-rule:evenodd;stroke-linejoin:round;stroke-miterlimit:2;"><g id="ll-icon-calendar"><path d="M87.5,29.167c2.316,0.016 4.167,1.877 4.167,4.166l0,54.167c0,2.3 -1.867,4.167 -4.167,4.167l-83.333,0c-2.3,0 -4.167,-1.867 -4.167,-4.167l0,-54.167c0,-2.289 1.85,-4.15 4.167,-4.166l83.333,0Zm-62.711,27.937l6.166,0c2.394,-1.517 3.591,-3.652 3.591,-6.405c0,-3.073 -1.736,-4.609 -5.208,-4.609c-1.276,0 -2.344,0.14 -3.202,0.419c-0.858,0.279 -1.357,0.569 -1.496,0.868c-0.14,0.299 -0.21,0.768 -0.21,1.406l0,4.31l-6.105,-0.419l0,-9.577c3.99,-1.995 7.941,-2.993 11.851,-2.993c3.911,0 6.834,0.888 8.77,2.664c1.935,1.776 2.903,4.08 2.903,6.913c0,2.075 -0.499,3.961 -1.497,5.657c-0.997,1.696 -2.314,3.062 -3.95,4.1c4.03,1.277 6.045,4.11 6.045,8.5c0,3.671 -1.137,6.634 -3.412,8.888c-2.274,2.255 -5.646,3.382 -10.116,3.382c-2.194,0 -4.379,-0.299 -6.554,-0.898c-2.175,-0.598 -3.901,-1.296 -5.177,-2.095l2.094,-5.686c3.153,1.756 6.285,2.634 9.398,2.634c4.35,0 6.524,-1.936 6.524,-5.806c0,-1.996 -0.658,-3.462 -1.975,-4.4c-1.317,-0.938 -3.551,-1.406 -6.704,-1.406l-2.274,0l0.538,-5.447Zm49.861,22.326l0,-5.088l-6.225,-0.299l0,-33.161l-5.866,0l-10.894,6.764l2.634,4.609l7.003,-3.591l0,23.524c0,0.718 -0.14,1.217 -0.419,1.496c-0.279,0.279 -0.718,0.439 -1.317,0.479l-5.746,0.359l0,4.908l20.83,0Z" style="fill:#3a3e46;"/><path d="M91.667,12.5c0,-2.3 -1.867,-4.167 -4.167,-4.167l-83.333,0c-2.3,0 -4.167,1.867 -4.167,4.167l0,4.167c0,2.299 1.867,4.166 4.167,4.166l83.333,0c2.3,0 4.167,-1.867 4.167,-4.166l0,-4.167Z" style="fill:#3a3e46;"/><path d="M15.625,0c-2.3,0 -4.167,1.867 -4.167,4.167l0,12.5c0,2.299 1.867,4.166 4.167,4.166l8.854,0c2.3,0 4.167,-1.867 4.167,-4.166l0,-12.5c0,-2.3 -1.867,-4.167 -4.167,-4.167l-8.854,0Z" style="fill:#3a3e46;"/><path d="M67.188,0c-2.3,0 -4.167,1.867 -4.167,4.167l0,12.5c0,2.299 1.867,4.166 4.167,4.166l8.854,0c2.299,0 4.166,-1.867 4.166,-4.166l0,-12.5c0,-2.3 -1.867,-4.167 -4.166,-4.167l-8.854,0Z" style="fill:#3a3e46;"/></g></svg>