<?xml version="1.0" encoding="UTF-8" standalone="no"?><!DOCTYPE svg PUBLIC "-//W3C//DTD SVG 1.1//EN" "http://www.w3.org/Graphics/SVG/1.1/DTD/svg11.dtd"><svg width="92px" height="92px" version="1.1" xmlns="http://www.w3.org/2000/svg" xmlns:xlink="http://www.w3.org/1999/xlink" xml:space="preserve" xmlns:serif="http://www.serif.com/" style="fill-rule:evenodd;clip-rule:evenodd;stroke-linejoin:round;stroke-miterlimit:2;"><g id="ll-icon-cog"><path id="ll-icon-cog1" serif:id="ll-icon-cog" d="M31.82,1.825c-3.679,1.222 -7.196,2.891 -10.469,4.968l1.734,14.742c-2.014,1.908 -3.781,4.053 -5.26,6.385l-15.081,1.46c-1.381,3.572 -2.302,7.291 -2.744,11.07l12.831,7.621c0.229,2.709 0.805,5.371 1.713,7.925l-8.483,12.486c1.957,3.231 4.325,6.199 7.048,8.835l14.264,-5.238c2.301,1.469 4.786,2.644 7.397,3.497l4.504,14.109c3.821,0.458 7.695,0.44 11.532,-0.052l4.957,-14.153c2.639,-0.877 5.162,-2.074 7.51,-3.564l14.099,5.108c2.807,-2.66 5.271,-5.651 7.332,-8.901l-8.083,-12.41c0.99,-2.562 1.651,-5.23 1.968,-7.941l13.078,-7.74c-0.321,-3.775 -1.123,-7.486 -2.389,-11.046l-15.037,-1.323c-1.404,-2.318 -3.102,-4.448 -5.055,-6.338l2.208,-14.76c-3.207,-2.047 -6.671,-3.684 -10.311,-4.874l-10.667,10.761c-2.741,-0.328 -5.521,-0.316 -8.273,0.038l-10.323,-10.665Zm5.366,24.82c10.239,-4.859 22.393,-0.708 27.126,9.264c4.733,9.972 0.263,22.013 -9.975,26.872c-10.239,4.859 -22.393,0.709 -27.126,-9.263c-4.733,-9.972 -0.263,-22.013 9.975,-26.873Z" style="fill:#3a3e46;"/></g></svg>