<?xml version="1.0" encoding="UTF-8" standalone="no"?><!DOCTYPE svg PUBLIC "-//W3C//DTD SVG 1.1//EN" "http://www.w3.org/Graphics/SVG/1.1/DTD/svg11.dtd"><svg width="92px" height="92px" version="1.1" xmlns="http://www.w3.org/2000/svg" xmlns:xlink="http://www.w3.org/1999/xlink" xml:space="preserve" xmlns:serif="http://www.serif.com/" style="fill-rule:evenodd;clip-rule:evenodd;stroke-linejoin:round;stroke-miterlimit:2;"><g id="ll-icon-cart"><path d="M20.833,4.167c0,-2.3 -1.867,-4.167 -4.166,-4.167l-12.5,0c-2.3,0 -4.167,1.867 -4.167,4.167l0,4.166c0,2.3 1.867,4.167 4.167,4.167l12.5,0c2.299,0 4.166,-1.867 4.166,-4.167l0,-4.166Z" style="fill:#3a3e46;"/><path d="M81.771,70.833c0,-2.299 -1.867,-4.166 -4.167,-4.166l-44.271,0c-2.299,0 -4.166,1.867 -4.166,4.166l0,4.167c0,2.3 1.867,4.167 4.166,4.167l44.271,0c2.3,0 4.167,-1.867 4.167,-4.167l0,-4.167Z" style="fill:#3a3e46;"/><path d="M38.769,76.928c2.232,-0.553 3.595,-2.815 3.041,-5.047l-17.055,-68.717c-0.554,-2.232 -2.815,-3.594 -5.047,-3.041l-4.044,1.004c-2.232,0.554 -3.594,2.816 -3.041,5.048l17.055,68.717c0.554,2.232 2.815,3.594 5.047,3.04l4.044,-1.004Z" style="fill:#3a3e46;"/><path d="M88.021,82.813c0,-4.6 -3.734,-8.334 -8.334,-8.334l-0.52,0c-4.6,0 -8.334,3.734 -8.334,8.334l0,0.52c0,4.6 3.734,8.334 8.334,8.334l0.52,0c4.6,0 8.334,-3.734 8.334,-8.334l0,-0.52Z" style="fill:#3a3e46;"/><path d="M35.938,82.813c0,-4.6 -3.735,-8.334 -8.334,-8.334l-0.521,0c-4.599,0 -8.333,3.734 -8.333,8.334l0,0.52c0,4.6 3.734,8.334 8.333,8.334l0.521,0c4.599,0 8.334,-3.734 8.334,-8.334l0,-0.52Z" style="fill:#3a3e46;"/><path d="M87.196,48.214c0,0 6.033,-35.714 6.033,-35.714l-66.363,0c-3.329,0 -6.033,2.667 -6.033,5.952c0,0 2.704,35.715 6.033,35.715l54.297,0c3.33,0 6.033,-2.668 6.033,-5.953Z" style="fill:#3a3e46;"/></g></svg>