<?xml version="1.0" encoding="UTF-8" standalone="no"?><!DOCTYPE svg PUBLIC "-//W3C//DTD SVG 1.1//EN" "http://www.w3.org/Graphics/SVG/1.1/DTD/svg11.dtd"><svg width="92px" height="92px" version="1.1" xmlns="http://www.w3.org/2000/svg" xmlns:xlink="http://www.w3.org/1999/xlink" xml:space="preserve" xmlns:serif="http://www.serif.com/" style="fill-rule:evenodd;clip-rule:evenodd;stroke-linejoin:round;stroke-miterlimit:2;"><g transform="matrix(4.16667,0,0,4.16667,-91.6667,-916.667)"><g transform="matrix(1,0,0,1.04235,-794.085,-782.473)"><g id="ll-icon-chicken-head"><path id="ll-icon-chicken-head1" serif:id="ll-icon-chicken-head" d="M828.212,966.203C828.353,965.839 828.719,965.581 829.147,965.581L833.085,965.581C833.637,965.581 834.085,966.01 834.085,966.54L834.085,966.57C834.214,966.602 834.334,966.667 834.432,966.762C835.363,967.654 837.91,968.681 837.91,968.681C837.91,968.681 835.363,969.708 834.432,970.601C834.334,970.695 834.214,970.76 834.085,970.793L834.085,971.337C834.085,971.866 833.637,972.296 833.085,972.296L831.163,972.296L831.163,981.9C831.163,982.429 830.715,982.859 830.163,982.859L817.085,982.859C816.534,982.859 816.085,982.429 816.085,981.9L816.085,976.109C816.085,975.58 816.534,975.15 817.085,975.15L818.887,975.15L828.212,966.203ZM835.085,974.215C835.085,973.685 834.637,973.256 834.085,973.256L833.085,973.256C832.534,973.256 832.085,973.685 832.085,974.215L832.085,976.611C832.085,977.141 832.534,977.571 833.085,977.571L834.085,977.571C834.637,977.571 835.085,977.141 835.085,976.611L835.085,974.215ZM828.55,964.621L825.499,967.547C825.109,967.922 824.476,967.922 824.085,967.547L823.378,966.869C822.988,966.495 822.988,965.887 823.378,965.512L827.014,962.024C827.256,961.792 827.592,961.704 827.905,961.76C827.963,961.749 828.024,961.743 828.085,961.743L834,961.743C834.552,961.743 835,962.173 835,962.702L835,963.662C835,964.191 834.552,964.621 834,964.621L828.55,964.621Z" style="fill:rgb(58,62,70);"/></g></g></g></svg>