<?xml version="1.0" encoding="UTF-8" standalone="no"?><!DOCTYPE svg PUBLIC "-//W3C//DTD SVG 1.1//EN" "http://www.w3.org/Graphics/SVG/1.1/DTD/svg11.dtd"><svg width="92px" height="92px" version="1.1" xmlns="http://www.w3.org/2000/svg" xmlns:xlink="http://www.w3.org/1999/xlink" xml:space="preserve" xmlns:serif="http://www.serif.com/" style="fill-rule:evenodd;clip-rule:evenodd;stroke-linejoin:round;stroke-miterlimit:2;"><g transform="matrix(4.16667,0,0,4.16667,-1558.33,-116.667)"><g transform="matrix(0,-1,1,5.7862e-17,-924,996)"><g id="ll-icon-connect"><path id="ll-icon-connect1" serif:id="ll-icon-connect" d="M959.301,1305.79L960.291,1304.79L960.998,1305.5C962.707,1307.21 962.92,1309.85 961.635,1311.8L962.472,1312.63L962.492,1312.61C962.64,1312.75 962.812,1312.85 962.997,1312.91C963.144,1313 963.315,1313.05 963.497,1313.05L964,1313.05C964.552,1313.05 965,1312.6 965,1312.05L965,1311.5L965,1309C965,1308.92 965.009,1308.84 965.027,1308.77C964.905,1304.44 961.358,1300.97 957,1300.97C952.568,1300.97 948.97,1304.57 948.97,1309C948.97,1313.17 952.164,1316.64 956.306,1317L956.597,1317C957.149,1317 957.597,1317.45 957.597,1318L957.597,1319C957.597,1319.55 957.149,1320 956.597,1320L956,1320C955.851,1320 955.709,1319.97 955.582,1319.91C950.136,1319.2 946,1314.56 946,1309C946,1302.93 950.929,1298 957,1298C963.075,1298 968,1302.92 968,1309L968,1312C968,1312.15 967.966,1312.3 967.904,1312.43C967.477,1314.47 965.668,1316 963.5,1316C962.468,1316 961.471,1315.65 960.672,1315C960.577,1314.95 960.487,1314.89 960.408,1314.81L959.513,1313.92C957.572,1315.2 954.929,1314.99 953.22,1313.28L952.513,1312.57L953.644,1311.44L951.707,1309.5C951.317,1309.11 951.317,1308.48 951.707,1308.09L952.414,1307.38C952.804,1306.99 953.438,1306.99 953.828,1307.38L955.765,1309.32L957.18,1307.91L955.243,1305.97C954.852,1305.58 954.852,1304.94 955.243,1304.56L955.95,1303.85C956.34,1303.46 956.974,1303.46 957.364,1303.85L959.301,1305.79Z" style="fill:rgb(58,62,70);"/></g></g></g></svg>