<?xml version="1.0" encoding="UTF-8" standalone="no"?><!DOCTYPE svg PUBLIC "-//W3C//DTD SVG 1.1//EN" "http://www.w3.org/Graphics/SVG/1.1/DTD/svg11.dtd"><svg width="71px" height="92px" version="1.1" xmlns="http://www.w3.org/2000/svg" xmlns:xlink="http://www.w3.org/1999/xlink" xml:space="preserve" xmlns:serif="http://www.serif.com/" style="fill-rule:evenodd;clip-rule:evenodd;stroke-linejoin:round;stroke-miterlimit:2;"><g id="ll-icon-columns"><path id="ll-icon-columns1" serif:id="ll-icon-columns" d="M66.667,0c2.305,0.005 4.166,1.87 4.166,4.167l0,83.333c0,2.3 -1.867,4.167 -4.166,4.167l-4.167,0c-2.3,0 -4.167,-1.867 -4.167,-4.167l0,-83.333c0,-2.297 1.862,-4.162 4.167,-4.167l4.167,0Zm-29.167,0c2.305,0.005 4.167,1.87 4.167,4.167l0,83.333c0,2.3 -1.867,4.167 -4.167,4.167l-4.167,0c-2.299,0 -4.166,-1.867 -4.166,-4.167l0,-83.333c0,-2.297 1.861,-4.162 4.166,-4.167l4.167,0Zm-29.167,0c2.305,0.005 4.167,1.87 4.167,4.167l0,83.333c0,2.3 -1.867,4.167 -4.167,4.167l-4.166,0c-2.3,0 -4.167,-1.867 -4.167,-4.167l0,-83.333c0,-2.297 1.862,-4.162 4.167,-4.167l4.166,0Z" style="fill:#3a3e46;"/></g></svg>