<?xml version="1.0" encoding="UTF-8" standalone="no"?><!DOCTYPE svg PUBLIC "-//W3C//DTD SVG 1.1//EN" "http://www.w3.org/Graphics/SVG/1.1/DTD/svg11.dtd"><svg width="92px" height="92px" version="1.1" xmlns="http://www.w3.org/2000/svg" xmlns:xlink="http://www.w3.org/1999/xlink" xml:space="preserve" xmlns:serif="http://www.serif.com/" style="fill-rule:evenodd;clip-rule:evenodd;stroke-linejoin:round;stroke-miterlimit:2;"><g transform="matrix(4.16667,0,0,4.16667,-2108.33,-641.667)"><g id="ll-icon-chart-up" transform="matrix(1,0,0,1.5724,218,-1852.8)"><path d="M301.33,1283.23L298.743,1282.28C298.265,1282.1 297.652,1282.2 297.377,1282.51L297.32,1282.57L297.314,1282.57L294.415,1285.76L291,1284.51C290.522,1284.33 289.91,1284.44 289.634,1284.74L289.134,1285.29C288.858,1285.6 289.022,1285.98 289.5,1286.16L295.516,1288.36L298.969,1284.56L302.429,1285.83L308.929,1278.67C309.205,1278.37 309.041,1277.98 308.563,1277.8L307.697,1277.48C307.219,1277.31 306.607,1277.41 306.331,1277.72L301.33,1283.23Z" style="fill:rgb(58,62,70);"/></g></g></svg>