<?xml version="1.0" encoding="UTF-8" standalone="no"?><!DOCTYPE svg PUBLIC "-//W3C//DTD SVG 1.1//EN" "http://www.w3.org/Graphics/SVG/1.1/DTD/svg11.dtd"><svg width="92px" height="92px" version="1.1" xmlns="http://www.w3.org/2000/svg" xmlns:xlink="http://www.w3.org/1999/xlink" xml:space="preserve" xmlns:serif="http://www.serif.com/" style="fill-rule:evenodd;clip-rule:evenodd;stroke-linejoin:round;stroke-miterlimit:2;"><g id="ll-icon-clock"><path d="M46.41,1.045l0.576,0.011l0.574,0.018l0.572,0.026l0.571,0.032l0.569,0.04l0.567,0.047l0.565,0.054l0.563,0.061l0.561,0.067l0.559,0.075l0.558,0.082l0.555,0.088l0.552,0.096l0.551,0.102l0.548,0.108l0.546,0.116l0.543,0.122l0.541,0.128l0.539,0.135l0.535,0.142l0.533,0.148l0.531,0.154l0.528,0.161l0.525,0.167l0.522,0.173l0.52,0.18l0.516,0.185l0.513,0.192l0.511,0.198l0.507,0.204l0.504,0.21l0.502,0.216l0.498,0.221l0.494,0.227l0.492,0.234l0.488,0.239l0.484,0.244l0.482,0.251l0.478,0.256l0.474,0.261l0.471,0.268l0.468,0.272l0.463,0.278l0.459,0.283l0.457,0.289l0.452,0.294l0.448,0.299l0.445,0.305l0.441,0.309l0.437,0.315l0.433,0.32l0.429,0.325l0.425,0.33l0.421,0.335l0.417,0.34l0.411,0.344l0.408,0.349l0.405,0.354l0.399,0.359l0.396,0.364l0.39,0.368l0.386,0.372l0.383,0.378l0.377,0.383l0.373,0.385l0.368,0.391l0.364,0.396l0.359,0.4l0.353,0.402l0.35,0.409l0.345,0.413l0.339,0.415l0.335,0.422l0.33,0.425l0.325,0.429l0.32,0.433l0.314,0.436l0.31,0.441l0.305,0.445l0.298,0.448l0.295,0.453l0.289,0.457l0.283,0.459l0.277,0.463l0.273,0.467l0.267,0.471l0.262,0.475l0.256,0.478l0.25,0.481l0.245,0.485l0.239,0.488l0.233,0.491l0.228,0.495l0.221,0.498l0.216,0.501l0.21,0.505l0.204,0.507l0.198,0.51l0.191,0.513l0.186,0.517l0.18,0.52l0.173,0.522l0.166,0.524l0.161,0.528l0.155,0.531l0.148,0.534l0.141,0.535l0.135,0.538l0.129,0.542l0.122,0.543l0.115,0.545l0.109,0.549l0.102,0.551l0.095,0.552l0.089,0.556l0.081,0.557l0.075,0.557l0.068,0.562l0.061,0.564l0.054,0.565l0.047,0.567l0.039,0.57l0.033,0.57l0.025,0.572l0.018,0.573l0.012,0.575l0.003,0.578l-0.003,0.578l-0.012,0.576l-0.018,0.573l-0.025,0.572l-0.033,0.57l-0.039,0.569l-0.047,0.568l-0.054,0.565l-0.061,0.563l-0.068,0.562l-0.075,0.558l-0.081,0.557l-0.089,0.556l-0.095,0.552l-0.102,0.551l-0.109,0.548l-0.115,0.546l-0.122,0.543l-0.129,0.541l-0.135,0.538l-0.141,0.536l-0.148,0.534l-0.155,0.531l-0.161,0.528l-0.166,0.524l-0.173,0.521l-0.18,0.521l-0.186,0.516l-0.191,0.513l-0.198,0.51l-0.204,0.508l-0.21,0.505l-0.216,0.501l-0.221,0.498l-0.228,0.495l-0.233,0.491l-0.239,0.488l-0.245,0.485l-0.25,0.481l-0.256,0.478l-0.262,0.474l-0.267,0.472l-0.273,0.467l-0.277,0.462l-0.283,0.46l-0.289,0.457l-0.295,0.452l-0.298,0.448l-0.305,0.446l-0.31,0.441l-0.314,0.436l-0.32,0.433l-0.325,0.429l-0.33,0.425l-0.335,0.421l-0.339,0.416l-0.345,0.413l-0.35,0.408l-0.353,0.403l-0.359,0.4l-0.364,0.396l-0.368,0.39l-0.373,0.386l-0.377,0.383l-0.383,0.377l-0.386,0.373l-0.39,0.368l-0.396,0.364l-0.399,0.359l-0.405,0.354l-0.408,0.349l-0.411,0.344l-0.417,0.34l-0.421,0.335l-0.425,0.33l-0.429,0.324l-0.433,0.321l-0.437,0.314l-0.441,0.31l-0.445,0.305l-0.448,0.298l-0.452,0.294l-0.457,0.289l-0.459,0.284l-0.463,0.277l-0.468,0.273l-0.471,0.267l-0.474,0.262l-0.478,0.256l-0.482,0.25l-0.484,0.245l-0.488,0.239l-0.492,0.233l-0.494,0.227l-0.498,0.222l-0.502,0.216l-0.504,0.21l-0.507,0.204l-0.511,0.197l-0.513,0.192l-0.516,0.186l-0.52,0.179l-0.522,0.174l-0.525,0.167l-0.528,0.16l-0.531,0.155l-0.533,0.148l-0.535,0.141l-0.539,0.136l-0.541,0.128l-0.543,0.122l-0.546,0.115l-0.548,0.109l-0.551,0.102l-0.552,0.095l-0.555,0.089l-0.558,0.081l-0.559,0.075l-0.561,0.068l-0.563,0.061l-0.565,0.054l-0.567,0.047l-0.569,0.039l-0.571,0.033l-0.572,0.025l-0.574,0.019l-0.576,0.01l-0.577,0.004l-0.577,-0.004l-0.575,-0.01l-0.574,-0.019l-0.573,-0.025l-0.57,-0.033l-0.569,-0.039l-0.567,-0.047l-0.565,-0.054l-0.563,-0.061l-0.562,-0.068l-0.559,-0.075l-0.557,-0.081l-0.555,-0.089l-0.553,-0.095l-0.55,-0.102l-0.548,-0.109l-0.546,-0.115l-0.544,-0.122l-0.541,-0.129l-0.538,-0.135l-0.536,-0.141l-0.533,-0.148l-0.53,-0.155l-0.528,-0.16l-0.525,-0.167l-0.523,-0.174l-0.519,-0.179l-0.516,-0.186l-0.514,-0.192l-0.51,-0.197l-0.508,-0.204l-0.504,-0.21l-0.501,-0.216l-0.498,-0.221l-0.495,-0.228l-0.491,-0.233l-0.489,-0.239l-0.484,-0.245l-0.481,-0.25l-0.478,-0.256l-0.475,-0.262l-0.471,-0.267l-0.466,-0.272l-0.464,-0.278l-0.461,-0.284l-0.455,-0.289l-0.452,-0.293l-0.449,-0.3l-0.445,-0.304l-0.441,-0.31l-0.436,-0.314l-0.434,-0.321l-0.428,-0.324l-0.425,-0.33l-0.42,-0.334l-0.417,-0.34l-0.413,-0.346l-0.408,-0.349l-0.404,-0.353l-0.399,-0.359l-0.395,-0.364l-0.392,-0.368l-0.386,-0.373l-0.381,-0.377l-0.378,-0.382l-0.374,-0.387l-0.368,-0.391l-0.362,-0.394l-0.359,-0.4l-0.355,-0.405l-0.349,-0.407l-0.345,-0.413l-0.34,-0.417l-0.334,-0.42l-0.33,-0.425l-0.324,-0.428l-0.32,-0.433l-0.316,-0.438l-0.31,-0.441l-0.304,-0.445l-0.299,-0.448l-0.294,-0.452l-0.288,-0.456l-0.284,-0.459l-0.278,-0.465l-0.273,-0.467l-0.267,-0.471l-0.261,-0.474l-0.256,-0.478l-0.25,-0.481l-0.245,-0.485l-0.239,-0.488l-0.233,-0.491l-0.228,-0.495l-0.222,-0.498l-0.215,-0.501l-0.21,-0.504l-0.204,-0.507l-0.198,-0.512l-0.192,-0.514l-0.185,-0.515l-0.18,-0.519l-0.173,-0.523l-0.167,-0.526l-0.161,-0.527l-0.154,-0.53l-0.148,-0.534l-0.142,-0.536l-0.135,-0.538l-0.128,-0.541l-0.122,-0.543l-0.116,-0.546l-0.108,-0.548l-0.102,-0.551l-0.096,-0.552l-0.088,-0.554l-0.082,-0.558l-0.075,-0.56l-0.067,-0.561l-0.061,-0.563l-0.054,-0.566l-0.047,-0.567l-0.04,-0.567l-0.032,-0.571l-0.026,-0.573l-0.018,-0.575l-0.011,-0.575l-0.003,-0.577l0.003,-0.576l0.011,-0.576l0.018,-0.574l0.026,-0.573l0.032,-0.571l0.04,-0.568l0.047,-0.566l0.054,-0.566l0.061,-0.564l0.067,-0.56l0.075,-0.561l0.082,-0.557l0.088,-0.554l0.096,-0.552l0.102,-0.551l0.108,-0.549l0.116,-0.545l0.122,-0.543l0.128,-0.542l0.135,-0.538l0.142,-0.535l0.148,-0.534l0.154,-0.53l0.161,-0.528l0.167,-0.525l0.173,-0.523l0.18,-0.519l0.185,-0.515l0.192,-0.515l0.198,-0.511l0.204,-0.508l0.21,-0.503l0.215,-0.501l0.222,-0.498l0.228,-0.495l0.233,-0.491l0.239,-0.488l0.245,-0.485l0.25,-0.481l0.256,-0.478l0.261,-0.475l0.267,-0.47l0.273,-0.467l0.278,-0.465l0.284,-0.459l0.288,-0.456l0.294,-0.453l0.299,-0.448l0.304,-0.444l0.31,-0.441l0.316,-0.439l0.32,-0.432l0.324,-0.428l0.33,-0.425l0.334,-0.421l0.34,-0.416l0.345,-0.413l0.349,-0.408l0.355,-0.404l0.359,-0.4l0.362,-0.394l0.368,-0.391l0.374,-0.387l0.378,-0.383l0.381,-0.376l0.386,-0.373l0.392,-0.369l0.395,-0.363l0.399,-0.359l0.404,-0.354l0.408,-0.349l0.413,-0.345l0.417,-0.34l0.42,-0.334l0.425,-0.33l0.428,-0.325l0.434,-0.32l0.436,-0.315l0.441,-0.309l0.445,-0.305l0.449,-0.299l0.452,-0.294l0.455,-0.288l0.461,-0.284l0.464,-0.278l0.466,-0.272l0.471,-0.267l0.475,-0.262l0.478,-0.256l0.481,-0.25l0.484,-0.245l0.489,-0.239l0.491,-0.233l0.495,-0.228l0.498,-0.222l0.501,-0.215l0.504,-0.21l0.508,-0.204l0.51,-0.198l0.514,-0.192l0.516,-0.185l0.519,-0.18l0.523,-0.173l0.525,-0.167l0.528,-0.161l0.53,-0.154l0.533,-0.148l0.536,-0.142l0.538,-0.135l0.541,-0.128l0.544,-0.122l0.546,-0.116l0.548,-0.108l0.55,-0.102l0.553,-0.096l0.555,-0.088l0.557,-0.082l0.559,-0.075l0.561,-0.067l0.564,-0.061l0.565,-0.054l0.567,-0.047l0.569,-0.04l0.57,-0.032l0.573,-0.026l0.574,-0.018l0.575,-0.011l0.577,-0.003l0.577,0.003Zm-0.995,12.499l-0.417,0.008l-0.416,0.014l-0.414,0.018l-0.412,0.024l-0.411,0.028l-0.41,0.034l-0.408,0.039l-0.406,0.044l-0.405,0.049l-0.403,0.054l-0.401,0.058l-0.399,0.064l-0.398,0.069l-0.396,0.073l-0.395,0.078l-0.393,0.083l-0.39,0.088l-0.389,0.092l-0.387,0.098l-0.385,0.101l-0.384,0.107l-0.381,0.111l-0.38,0.115l-0.377,0.12l-0.375,0.125l-0.374,0.129l-0.371,0.133l-0.37,0.138l-0.367,0.143l-0.365,0.146l-0.362,0.151l-0.362,0.156l-0.358,0.159l-0.355,0.164l-0.354,0.168l-0.352,0.172l-0.349,0.176l-0.347,0.181l-0.344,0.184l-0.341,0.188l-0.34,0.193l-0.337,0.196l-0.334,0.201l-0.331,0.204l-0.329,0.208l-0.328,0.213l-0.323,0.215l-0.32,0.219l-0.319,0.224l-0.315,0.228l-0.312,0.23l-0.311,0.235l-0.306,0.238l-0.305,0.242l-0.3,0.246l-0.298,0.248l-0.295,0.253l-0.292,0.256l-0.289,0.259l-0.285,0.263l-0.283,0.266l-0.279,0.269l-0.277,0.274l-0.272,0.275l-0.268,0.279l-0.267,0.282l-0.263,0.287l-0.26,0.289l-0.255,0.291l-0.253,0.295l-0.248,0.298l-0.246,0.3l-0.242,0.305l-0.238,0.306l-0.235,0.311l-0.231,0.313l-0.226,0.314l-0.224,0.318l-0.22,0.321l-0.216,0.324l-0.212,0.326l-0.208,0.33l-0.205,0.332l-0.2,0.333l-0.196,0.337l-0.193,0.339l-0.188,0.342l-0.185,0.344l-0.18,0.347l-0.176,0.349l-0.172,0.351l-0.168,0.355l-0.164,0.355l-0.159,0.359l-0.156,0.361l-0.151,0.363l-0.147,0.365l-0.142,0.366l-0.137,0.369l-0.134,0.372l-0.129,0.374l-0.125,0.375l-0.12,0.377l-0.115,0.379l-0.111,0.382l-0.107,0.383l-0.101,0.386l-0.098,0.387l-0.092,0.389l-0.088,0.39l-0.083,0.394l-0.078,0.393l-0.073,0.396l-0.069,0.399l-0.064,0.4l-0.059,0.401l-0.053,0.402l-0.049,0.405l-0.044,0.406l-0.039,0.407l-0.034,0.41l-0.028,0.412l-0.024,0.413l-0.018,0.413l-0.014,0.415l-0.008,0.417l-0.002,0.419l0.002,0.419l0.008,0.417l0.014,0.416l0.018,0.413l0.024,0.412l0.028,0.413l0.034,0.41l0.039,0.406l0.044,0.406l0.049,0.406l0.053,0.401l0.059,0.402l0.064,0.4l0.069,0.398l0.073,0.396l0.078,0.394l0.083,0.393l0.088,0.391l0.092,0.388l0.098,0.388l0.101,0.385l0.107,0.383l0.111,0.382l0.115,0.38l0.12,0.377l0.125,0.375l0.129,0.373l0.134,0.373l0.137,0.369l0.142,0.366l0.147,0.365l0.151,0.363l0.156,0.361l0.159,0.358l0.164,0.356l0.168,0.354l0.172,0.352l0.176,0.348l0.18,0.347l0.185,0.345l0.188,0.341l0.193,0.34l0.196,0.337l0.2,0.333l0.205,0.332l0.208,0.329l0.212,0.326l0.216,0.325l0.22,0.321l0.224,0.318l0.226,0.314l0.231,0.313l0.235,0.311l0.238,0.306l0.242,0.304l0.246,0.301l0.248,0.298l0.253,0.295l0.255,0.291l0.26,0.289l0.263,0.286l0.267,0.283l0.268,0.278l0.272,0.276l0.277,0.274l0.279,0.269l0.283,0.266l0.285,0.263l0.289,0.259l0.292,0.256l0.295,0.253l0.298,0.248l0.3,0.245l0.305,0.242l0.306,0.238l0.311,0.235l0.312,0.231l0.315,0.227l0.319,0.224l0.32,0.22l0.323,0.215l0.328,0.213l0.329,0.208l0.331,0.204l0.334,0.2l0.337,0.197l0.34,0.193l0.341,0.188l0.344,0.184l0.347,0.181l0.349,0.176l0.352,0.172l0.354,0.168l0.355,0.164l0.358,0.159l0.362,0.156l0.362,0.151l0.365,0.146l0.367,0.142l0.37,0.138l0.371,0.134l0.374,0.129l0.375,0.124l0.377,0.12l0.38,0.116l0.381,0.111l0.384,0.106l0.385,0.102l0.387,0.097l0.389,0.093l0.391,0.087l0.392,0.083l0.394,0.079l0.397,0.073l0.398,0.069l0.399,0.063l0.402,0.059l0.402,0.054l0.405,0.049l0.406,0.044l0.408,0.039l0.409,0.033l0.412,0.029l0.412,0.024l0.414,0.018l0.416,0.013l0.417,0.008l0.418,0.003l0.419,-0.003l0.417,-0.008l0.416,-0.013l0.414,-0.018l0.412,-0.024l0.411,-0.029l0.409,-0.033l0.408,-0.039l0.407,-0.044l0.404,-0.049l0.403,-0.054l0.402,-0.059l0.399,-0.063l0.398,-0.069l0.396,-0.073l0.394,-0.079l0.393,-0.083l0.391,-0.087l0.389,-0.093l0.387,-0.097l0.385,-0.102l0.384,-0.106l0.381,-0.111l0.379,-0.116l0.378,-0.12l0.376,-0.124l0.372,-0.129l0.372,-0.134l0.369,-0.138l0.367,-0.142l0.366,-0.147l0.363,-0.151l0.36,-0.155l0.358,-0.159l0.357,-0.164l0.353,-0.168l0.351,-0.172l0.35,-0.177l0.346,-0.18l0.344,-0.184l0.343,-0.189l0.339,-0.192l0.336,-0.196l0.335,-0.201l0.332,-0.204l0.328,-0.208l0.326,-0.212l0.325,-0.217l0.321,-0.219l0.318,-0.224l0.315,-0.227l0.312,-0.231l0.31,-0.235l0.307,-0.238l0.304,-0.241l0.3,-0.245l0.299,-0.25l0.295,-0.253l0.292,-0.255l0.288,-0.259l0.285,-0.263l0.283,-0.266l0.28,-0.27l0.276,-0.272l0.272,-0.276l0.27,-0.28l0.266,-0.282l0.262,-0.286l0.259,-0.288l0.257,-0.293l0.252,-0.294l0.249,-0.298l0.246,-0.302l0.241,-0.303l0.238,-0.306l0.235,-0.31l0.231,-0.313l0.228,-0.316l0.223,-0.318l0.219,-0.32l0.217,-0.325l0.212,-0.326l0.207,-0.328l0.205,-0.332l0.201,-0.335l0.196,-0.337l0.193,-0.339l0.188,-0.341l0.184,-0.345l0.181,-0.347l0.176,-0.348l0.172,-0.352l0.168,-0.354l0.164,-0.356l0.159,-0.358l0.156,-0.361l0.15,-0.362l0.147,-0.365l0.142,-0.367l0.138,-0.37l0.134,-0.372l0.128,-0.372l0.125,-0.376l0.121,-0.378l0.115,-0.38l0.111,-0.381l0.106,-0.383l0.102,-0.385l0.097,-0.388l0.093,-0.388l0.087,-0.391l0.084,-0.393l0.078,-0.394l0.073,-0.396l0.069,-0.398l0.063,-0.399l0.059,-0.401l0.054,-0.405l0.049,-0.404l0.044,-0.406l0.039,-0.408l0.033,-0.408l0.029,-0.411l0.024,-0.413l0.018,-0.414l0.013,-0.417l0.008,-0.417l0.003,-0.418l-0.003,-0.417l-0.008,-0.417l-0.013,-0.417l-0.018,-0.415l-0.024,-0.412l-0.029,-0.411l-0.033,-0.409l-0.039,-0.408l-0.044,-0.406l-0.049,-0.403l-0.054,-0.405l-0.059,-0.401l-0.063,-0.399l-0.069,-0.399l-0.073,-0.396l-0.078,-0.393l-0.084,-0.394l-0.087,-0.39l-0.093,-0.389l-0.097,-0.387l-0.102,-0.386l-0.106,-0.383l-0.111,-0.38l-0.115,-0.38l-0.121,-0.378l-0.125,-0.377l-0.128,-0.372l-0.134,-0.371l-0.138,-0.37l-0.142,-0.367l-0.147,-0.365l-0.15,-0.362l-0.156,-0.361l-0.159,-0.359l-0.164,-0.355l-0.168,-0.355l-0.172,-0.351l-0.176,-0.349l-0.181,-0.347l-0.184,-0.344l-0.188,-0.342l-0.193,-0.338l-0.196,-0.337l-0.201,-0.335l-0.205,-0.333l-0.207,-0.328l-0.212,-0.326l-0.217,-0.324l-0.219,-0.32l-0.223,-0.318l-0.228,-0.316l-0.231,-0.313l-0.235,-0.31l-0.238,-0.306l-0.241,-0.304l-0.246,-0.301l-0.249,-0.298l-0.252,-0.294l-0.257,-0.293l-0.259,-0.289l-0.262,-0.285l-0.266,-0.282l-0.27,-0.28l-0.272,-0.276l-0.276,-0.272l-0.28,-0.27l-0.283,-0.267l-0.285,-0.262l-0.288,-0.259l-0.292,-0.256l-0.295,-0.252l-0.299,-0.25l-0.3,-0.245l-0.304,-0.242l-0.307,-0.238l-0.31,-0.235l-0.312,-0.23l-0.315,-0.228l-0.318,-0.223l-0.321,-0.219l-0.325,-0.217l-0.326,-0.212l-0.328,-0.208l-0.332,-0.204l-0.335,-0.201l-0.336,-0.196l-0.339,-0.193l-0.343,-0.188l-0.344,-0.185l-0.346,-0.18l-0.35,-0.176l-0.351,-0.172l-0.353,-0.168l-0.357,-0.164l-0.358,-0.16l-0.36,-0.155l-0.363,-0.151l-0.366,-0.146l-0.367,-0.143l-0.369,-0.138l-0.372,-0.133l-0.372,-0.129l-0.376,-0.125l-0.378,-0.12l-0.379,-0.115l-0.381,-0.111l-0.384,-0.107l-0.385,-0.101l-0.387,-0.098l-0.389,-0.092l-0.391,-0.088l-0.393,-0.083l-0.394,-0.078l-0.396,-0.073l-0.398,-0.069l-0.399,-0.064l-0.402,-0.058l-0.403,-0.054l-0.404,-0.049l-0.407,-0.044l-0.408,-0.039l-0.409,-0.034l-0.411,-0.028l-0.412,-0.024l-0.414,-0.018l-0.416,-0.014l-0.417,-0.008l-0.419,-0.002l-0.418,0.002Z" style="fill:#3a3e46;"/><path d="M40.55,27.083c-1.15,-1.991 -3.7,-2.675 -5.691,-1.525l-3.609,2.084c-1.991,1.149 -2.675,3.7 -1.525,5.691l13.553,23.475c1.15,1.992 3.7,2.675 5.692,1.525l3.608,-2.083c1.992,-1.15 2.675,-3.7 1.525,-5.692l-13.553,-23.475Z" style="fill:#3a3e46;"/><path d="M65.974,48.884c1.991,-1.15 2.675,-3.701 1.525,-5.692l-2.083,-3.609c-1.15,-1.991 -3.701,-2.675 -5.692,-1.525l-15.974,9.223c-1.991,1.15 -2.675,3.7 -1.525,5.692l2.083,3.608c1.15,1.992 3.701,2.675 5.692,1.525l15.974,-9.222Z" style="fill:#3a3e46;"/><path d="M60.143,52.236l-14.609,8.588l-6.216,-10.768l20.825,2.18Z" style="fill:#3a3e46;"/></g></svg>