<?xml version="1.0" encoding="UTF-8" standalone="no"?><!DOCTYPE svg PUBLIC "-//W3C//DTD SVG 1.1//EN" "http://www.w3.org/Graphics/SVG/1.1/DTD/svg11.dtd"><svg width="92px" height="92px" version="1.1" xmlns="http://www.w3.org/2000/svg" xmlns:xlink="http://www.w3.org/1999/xlink" xml:space="preserve" xmlns:serif="http://www.serif.com/" style="fill-rule:evenodd;clip-rule:evenodd;stroke-linejoin:round;stroke-miterlimit:2;"><g transform="matrix(4.16667,0,0,4.16667,-275,-916.667)"><g transform="matrix(1,0,0,1.04235,-771,-826.473)"><g id="ll-icon-chicken"><path id="ll-icon-chicken1" serif:id="ll-icon-chicken" d="M852.046,1007.5C852.174,1007.12 852.553,1006.83 853,1006.83L855,1006.83C855.545,1006.83 855.988,1007.25 855.999,1007.77C856.069,1007.8 856.134,1007.84 856.19,1007.89C856.859,1008.53 858.69,1009.27 858.69,1009.27C858.69,1009.27 856.859,1010.01 856.19,1010.65C856.115,1010.72 856.023,1010.77 855.925,1010.8C855.776,1011.14 855.418,1011.39 855,1011.39L853.994,1011.39L853,1012.35L853,1016.01L853.904,1016.88C854.294,1017.25 854.294,1017.86 853.904,1018.24L849.837,1022.14L849.837,1023.14L851.709,1023.14C852.248,1023.14 852.686,1023.56 852.686,1024.08C852.686,1024.6 852.248,1025.02 851.709,1025.02L848.861,1025.02C848.322,1025.02 847.884,1024.6 847.884,1024.08C847.884,1024.08 847.884,1023.29 847.884,1023.29C847.733,1023.24 847.592,1023.17 847.473,1023.05L844.569,1020.26L843,1020.26C842.448,1020.26 842,1019.84 842,1019.31L842,1017.81L837.966,1016.78C837.433,1016.64 837.116,1016.11 837.259,1015.6L838.035,1012.82C838.178,1012.31 838.727,1012.01 839.26,1012.14L844.315,1013.44L845.856,1013.44L852.046,1007.5ZM856.5,1013.07C856.5,1012.54 856.052,1012.11 855.5,1012.11C854.948,1012.11 854.5,1012.54 854.5,1013.07L854.5,1014.25C854.5,1014.78 854.948,1015.21 855.5,1015.21C856.052,1015.21 856.5,1014.78 856.5,1014.25L856.5,1013.07ZM851.657,1003.99C851.737,1003.97 851.821,1003.96 851.908,1003.96L856,1003.96C856.552,1003.96 857,1004.38 857,1004.92C857,1005.44 856.552,1005.87 856,1005.87L851.908,1005.87L851.824,1005.87L849.896,1007.72C849.506,1008.09 848.872,1008.09 848.482,1007.72C848.092,1007.35 848.092,1006.74 848.482,1006.36L850.699,1004.24C850.958,1003.99 851.325,1003.9 851.657,1003.99Z" style="fill:rgb(58,62,70);"/></g></g></g></svg>