<?xml version="1.0" encoding="UTF-8" standalone="no"?><!DOCTYPE svg PUBLIC "-//W3C//DTD SVG 1.1//EN" "http://www.w3.org/Graphics/SVG/1.1/DTD/svg11.dtd"><svg width="92px" height="92px" version="1.1" xmlns="http://www.w3.org/2000/svg" xmlns:xlink="http://www.w3.org/1999/xlink" xml:space="preserve" xmlns:serif="http://www.serif.com/" style="fill-rule:evenodd;clip-rule:evenodd;stroke-linejoin:round;stroke-miterlimit:2;"><g transform="matrix(4.16667,0,0,4.16667,-1283.33,-458.333)"><g id="ll-icon-chevron-right-double" transform="matrix(1,0,0,1.04235,-648,-936.473)"><g id="icon-chevron-right" transform="matrix(1.88977e-17,1.37032,1.42835,-1.26166e-16,626.572,158.589)"><path d="M624.584,236.868L630.612,230.84C630.885,230.567 631.329,230.567 631.602,230.84L632.097,231.335C632.37,231.608 632.37,232.052 632.097,232.325L625.657,238.765L625.583,238.856L624.592,239.847L617.117,232.371C616.844,232.098 616.844,231.654 617.117,231.381L617.612,230.886C617.885,230.613 618.329,230.613 618.602,230.886L624.584,236.868Z" style="fill:rgb(58,62,70);"/></g><g id="icon-chevron-right1" serif:id="icon-chevron-right" transform="matrix(1.88977e-17,1.37032,1.42835,-1.26166e-16,635.418,158.589)"><path d="M624.584,236.868L630.612,230.84C630.885,230.567 631.329,230.567 631.602,230.84L632.097,231.335C632.37,231.608 632.37,232.052 632.097,232.325L625.657,238.765L625.583,238.856L624.592,239.847L617.117,232.371C616.844,232.098 616.844,231.654 617.117,231.381L617.612,230.886C617.885,230.613 618.329,230.613 618.602,230.886L624.584,236.868Z" style="fill:rgb(58,62,70);"/></g></g></g></svg>