<?xml version="1.0" encoding="UTF-8" standalone="no"?><!DOCTYPE svg PUBLIC "-//W3C//DTD SVG 1.1//EN" "http://www.w3.org/Graphics/SVG/1.1/DTD/svg11.dtd"><svg width="92px" height="92px" version="1.1" xmlns="http://www.w3.org/2000/svg" xmlns:xlink="http://www.w3.org/1999/xlink" xml:space="preserve" xmlns:serif="http://www.serif.com/" style="fill-rule:evenodd;clip-rule:evenodd;stroke-linejoin:round;stroke-miterlimit:2;"><g transform="matrix(4.16667,0,0,4.16667,-1933.33,-320.833)"><g id="ll-icon-document-view"><g transform="matrix(1,0,0,1,-174,-1233)"><path d="M638,1328.2C639.226,1329.49 640.778,1330.9 642.553,1332L639,1332C638.448,1332 638,1331.55 638,1331L638,1328.2ZM654,1310C654.561,1310.01 655,1310.45 655,1311L655,1316.8C653.178,1315.74 651.145,1315 649,1315C644.536,1315 640.557,1318.18 638,1320.87L638,1311C638,1310.45 638.439,1310.01 639,1310L654,1310Z" style="fill:rgb(58,62,70);"/></g><g transform="matrix(1,0,0,1,-460,-1283)"><path d="M935,1367C940.032,1367 944.28,1372.15 945.586,1373.92C945.836,1374.27 945.836,1374.74 945.587,1375.08C944.28,1376.85 940.032,1382 935,1382C929.968,1382 925.72,1376.85 924.414,1375.08C924.164,1374.74 924.164,1374.27 924.413,1373.92C925.72,1372.15 929.968,1367 935,1367ZM935,1369.32C938.055,1369.32 940.968,1372.5 942.053,1373.83C942.325,1374.17 942.329,1374.65 942.064,1374.99C940.985,1376.37 938.064,1379.68 935,1379.68C931.936,1379.68 929.015,1376.37 927.937,1374.99C927.671,1374.65 927.675,1374.17 927.946,1373.83C929.032,1372.5 931.945,1369.32 935,1369.32ZM935,1371.5C936.656,1371.5 938,1372.84 938,1374.5C938,1376.16 936.656,1377.5 935,1377.5C933.344,1377.5 932,1376.16 932,1374.5C932,1372.84 933.344,1371.5 935,1371.5Z" style="fill:rgb(58,62,70);"/></g></g></g></svg>