<?xml version="1.0" encoding="UTF-8" standalone="no"?><!DOCTYPE svg PUBLIC "-//W3C//DTD SVG 1.1//EN" "http://www.w3.org/Graphics/SVG/1.1/DTD/svg11.dtd"><svg width="92px" height="92px" version="1.1" xmlns="http://www.w3.org/2000/svg" xmlns:xlink="http://www.w3.org/1999/xlink" xml:space="preserve" xmlns:serif="http://www.serif.com/" style="fill-rule:evenodd;clip-rule:evenodd;stroke-linejoin:round;stroke-miterlimit:2;"><g transform="matrix(4.16667,0,0,4.16667,-4866.67,-3720.83)"><g transform="matrix(1,0,0,1.5724,0,-496.937)"><g id="ll-icon-dottedsquare"><path id="ll-icon-dottedsquare1" serif:id="ll-icon-dottedsquare" d="M1182,896.517C1182,896.254 1181.66,896.04 1181.25,896.04L1176.75,896.04C1176.34,896.04 1176,896.254 1176,896.517L1176,897.471C1176,897.734 1176.34,897.948 1176.75,897.948L1181.25,897.948C1181.66,897.948 1182,897.734 1182,897.471L1182,896.517ZM1168,897.948L1173.25,897.948C1173.66,897.948 1174,897.734 1174,897.471L1174,896.517C1174,896.254 1173.66,896.04 1173.25,896.04L1171,896.04L1171,894.768C1171,894.417 1170.55,894.132 1170,894.132L1169,894.132C1168.45,894.132 1168,894.417 1168,894.768L1168,897.948ZM1190,897.948L1190,894.609C1190,894.346 1189.66,894.132 1189.25,894.132L1187.75,894.132C1187.34,894.132 1187,894.346 1187,894.609L1187,896.04L1185,896.04C1184.45,896.04 1184,896.325 1184,896.676L1184,897.312C1184,897.663 1184.45,897.948 1185,897.948L1190,897.948ZM1187.75,889.044C1187.34,889.044 1187,889.258 1187,889.521L1187,892.383C1187,892.646 1187.34,892.86 1187.75,892.86L1189.25,892.86C1189.66,892.86 1190,892.646 1190,892.383L1190,889.521C1190,889.258 1189.66,889.044 1189.25,889.044L1187.75,889.044ZM1168.75,889.044C1168.34,889.044 1168,889.258 1168,889.521L1168,892.383C1168,892.646 1168.34,892.86 1168.75,892.86L1170.25,892.86C1170.66,892.86 1171,892.646 1171,892.383L1171,889.521C1171,889.258 1170.66,889.044 1170.25,889.044L1168.75,889.044ZM1173.25,883.957L1168,883.957L1168,887.136C1168,887.487 1168.45,887.772 1169,887.772L1170,887.772C1170.55,887.772 1171,887.487 1171,887.136L1171,885.864L1173.25,885.864C1173.66,885.864 1174,885.651 1174,885.387L1174,884.434C1174,884.17 1173.66,883.957 1173.25,883.957ZM1190,883.957L1184.75,883.957C1184.34,883.957 1184,884.17 1184,884.434L1184,885.387C1184,885.651 1184.34,885.864 1184.75,885.864L1187,885.864L1187,887.136C1187,887.487 1187.45,887.772 1188,887.772L1189,887.772C1189.55,887.772 1190,887.487 1190,887.136L1190,883.957ZM1182,884.434C1182,884.17 1181.66,883.957 1181.25,883.957L1176.75,883.957C1176.34,883.957 1176,884.17 1176,884.434L1176,885.387C1176,885.651 1176.34,885.864 1176.75,885.864L1181.25,885.864C1181.66,885.864 1182,885.651 1182,885.387L1182,884.434Z" style="fill:rgb(58,62,70);"/></g></g></g></svg>