<?xml version="1.0" encoding="UTF-8" standalone="no"?><!DOCTYPE svg PUBLIC "-//W3C//DTD SVG 1.1//EN" "http://www.w3.org/Graphics/SVG/1.1/DTD/svg11.dtd"><svg width="92px" height="92px" version="1.1" xmlns="http://www.w3.org/2000/svg" xmlns:xlink="http://www.w3.org/1999/xlink" xml:space="preserve" xmlns:serif="http://www.serif.com/" style="fill-rule:evenodd;clip-rule:evenodd;stroke-linejoin:round;stroke-miterlimit:2;"><g id="ll-icon-dispensation"><path id="ll-icon-dispensation1" serif:id="ll-icon-dispensation" d="M68.668,73.322l11.686,-11.686c1.626,-1.626 4.266,-1.626 5.893,0l2.946,2.947c1.626,1.626 1.626,4.266 0,5.892l-20.481,20.481l-3.873,-3.873c-0.185,-0.126 -0.365,-0.277 -0.534,-0.446l-8.919,-8.919c-1.626,-1.626 -1.626,-4.266 0,-5.892l2.947,-2.947c1.626,-1.626 4.266,-1.626 5.892,0l4.443,4.443Zm-32.319,-57.807l-8.403,-8.402c-1.191,-1.192 -1.548,-2.984 -0.903,-4.541c0.645,-1.557 2.164,-2.572 3.85,-2.572c16.686,0 48.274,0 48.274,0c0,0 0,31.587 0,48.274c0,1.685 -1.015,3.205 -2.572,3.85c-1.557,0.645 -3.35,0.288 -4.541,-0.904l-9.189,-9.188l-31.833,31.834c-1.626,1.626 -4.267,1.626 -5.893,0l-20.624,-20.624c-1.626,-1.627 -1.626,-4.267 0,-5.893l31.834,-31.834Z" style="fill:#3a3e46;"/></g></svg>