<?xml version="1.0" encoding="UTF-8" standalone="no"?><!DOCTYPE svg PUBLIC "-//W3C//DTD SVG 1.1//EN" "http://www.w3.org/Graphics/SVG/1.1/DTD/svg11.dtd"><svg width="71px" height="92px" version="1.1" xmlns="http://www.w3.org/2000/svg" xmlns:xlink="http://www.w3.org/1999/xlink" xml:space="preserve" xmlns:serif="http://www.serif.com/" style="fill-rule:evenodd;clip-rule:evenodd;stroke-linejoin:round;stroke-miterlimit:2;"><g id="ll-icon-diploma"><path d="M35.595,66.967l-5.776,21.555c-0.595,2.221 -2.882,3.541 -5.103,2.946l-8.049,-2.157l5.677,-21.188l2.858,5.666l9.972,-7.122l0.421,0.3Zm13.437,-0.883l6.224,23.227l-8.049,2.157c-2.222,0.595 -4.508,-0.725 -5.104,-2.946l-5.602,-20.907l8.644,6.174l3.887,-7.705Z" style="fill:#3a3e46;"/><path d="M35.174,0l6.381,7.442l9.109,-3.624l2.193,9.555l9.749,1.025l-2.499,9.479l8.157,5.438l-6.618,7.233l4.695,8.605l-9.221,3.329l0.158,9.802l-9.712,-1.339l-4.415,8.753l-7.977,-5.698l-7.978,5.698l-4.415,-8.753l-9.711,1.339l0.157,-9.802l-9.221,-3.329l4.695,-8.605l-6.618,-7.233l8.157,-5.438l-2.499,-9.479l9.749,-1.025l2.193,-9.555l9.109,3.624l6.382,-7.442Z" style="fill:#3a3e46;"/></g></svg>