<?xml version="1.0" encoding="UTF-8" standalone="no"?><!DOCTYPE svg PUBLIC "-//W3C//DTD SVG 1.1//EN" "http://www.w3.org/Graphics/SVG/1.1/DTD/svg11.dtd"><svg width="92px" height="92px" version="1.1" xmlns="http://www.w3.org/2000/svg" xmlns:xlink="http://www.w3.org/1999/xlink" xml:space="preserve" xmlns:serif="http://www.serif.com/" style="fill-rule:evenodd;clip-rule:evenodd;stroke-linejoin:round;stroke-miterlimit:2;"><g transform="matrix(4.16667,0,0,4.16667,-3841.67,-458.333)"><g id="ll-icon-deceased" transform="matrix(1,0,0,1,181.894,-64.437)"><g transform="matrix(0.818181,0,0,1,522.834,-1072.56)"><path d="M290,1248C290,1247.45 289.452,1247 288.778,1247L269.222,1247C268.548,1247 268,1247.45 268,1248L268,1268C268,1268.55 268.548,1269 269.222,1269L288.778,1269C289.452,1269 290,1268.55 290,1268L290,1248ZM271.667,1250L271.667,1266L286.333,1266L286.333,1250L271.667,1250Z" style="fill:rgb(58,62,70);"/></g><g transform="matrix(0.692308,-0.692308,0.707107,0.707107,-208.03,-619.991)"><rect x="106" y="1240" width="13" height="3" style="fill:rgb(58,62,70);"/></g><g transform="matrix(0.714281,0,0,0.714281,43.9683,-344.488)"><path d="M983,750.999C983.491,751.002 997,750.999 997,750.999C996.993,748.923 996.363,746.68 992.079,746.869C991.897,746.877 991.75,746.859 991.75,746.682L991.75,745.641C993.034,744.996 993.195,744.687 993.818,742.905C993.875,742.743 993.818,741.649 993.818,741.455C993.818,738.736 992.227,737 990.006,737C987.786,737 986.197,738.487 986.182,741.455C986.181,741.647 986.147,742.592 986.182,742.763C986.548,744.544 986.928,745.097 988.25,745.718L988.25,746.707C988.25,746.884 988.104,746.905 987.921,746.9C983.974,746.789 983.104,748.755 983,750.999Z" style="fill:rgb(58,62,70);fill-rule:nonzero;"/></g></g></g></svg>