<?xml version="1.0" encoding="UTF-8" standalone="no"?><!DOCTYPE svg PUBLIC "-//W3C//DTD SVG 1.1//EN" "http://www.w3.org/Graphics/SVG/1.1/DTD/svg11.dtd"><svg width="80px" height="92px" version="1.1" xmlns="http://www.w3.org/2000/svg" xmlns:xlink="http://www.w3.org/1999/xlink" xml:space="preserve" xmlns:serif="http://www.serif.com/" style="fill-rule:evenodd;clip-rule:evenodd;stroke-linejoin:round;stroke-miterlimit:2;"><g id="ll-icon-documents"><path d="M12.5,12.5c0,0 0,62.5 0,62.5c0,2.3 1.867,4.167 4.167,4.167l41.666,0l0,8.333c0,2.3 -1.867,4.167 -4.166,4.167l-50,0c-2.3,0 -4.167,-1.867 -4.167,-4.167l0,-70.833c0,-2.282 1.838,-4.137 4.167,-4.167l8.333,0Z" style="fill:#3a3e46;"/><path d="M75,0c2.305,0.005 4.167,1.87 4.167,4.167l0,62.5c0,2.299 -1.867,4.166 -4.167,4.166l-50,0c-2.3,0 -4.167,-1.867 -4.167,-4.166l0,-62.5c0,-2.297 1.862,-4.162 4.167,-4.167l50,0Zm-12.5,37.42l-25,0c-2.305,0.005 -4.167,1.87 -4.167,4.166l0,4.167c0,2.3 1.867,4.167 4.167,4.167l25,0c2.3,0 4.167,-1.867 4.167,-4.167l0,-4.167c0,-2.296 -1.862,-4.161 -4.167,-4.166Zm-8.333,-20.753l-16.667,0c-2.305,0.005 -4.167,1.87 -4.167,4.166l0,4.167c0,2.3 1.867,4.167 4.167,4.167l16.667,0c2.299,0 4.166,-1.867 4.166,-4.167l0,-4.167c0,-2.296 -1.861,-4.161 -4.166,-4.166Z" style="fill:#3a3e46;"/></g></svg>