<?xml version="1.0" encoding="UTF-8" standalone="no"?><!DOCTYPE svg PUBLIC "-//W3C//DTD SVG 1.1//EN" "http://www.w3.org/Graphics/SVG/1.1/DTD/svg11.dtd"><svg width="71px" height="92px" version="1.1" xmlns="http://www.w3.org/2000/svg" xmlns:xlink="http://www.w3.org/1999/xlink" xml:space="preserve" xmlns:serif="http://www.serif.com/" style="fill-rule:evenodd;clip-rule:evenodd;stroke-linejoin:round;stroke-miterlimit:2;"><g id="ll-icon-document"><path d="M66.667,0c2.305,0.005 4.166,1.87 4.166,4.167l0,83.333c0,2.3 -1.867,4.167 -4.166,4.167l-62.5,0c-2.3,0 -4.167,-1.867 -4.167,-4.167l0,-83.333c0,-2.297 1.862,-4.162 4.167,-4.167l62.5,0Zm-12.5,62.42l-37.5,0c-2.305,0.005 -4.167,1.87 -4.167,4.166l0,4.167c0,2.3 1.867,4.167 4.167,4.167l37.5,0c2.299,0 4.166,-1.867 4.166,-4.167l0,-4.167c0,-2.296 -1.861,-4.161 -4.166,-4.166Zm0,-20.753l-37.5,0c-2.305,0.005 -4.167,1.87 -4.167,4.166l0,4.167c0,2.3 1.867,4.167 4.167,4.167l37.5,0c2.299,0 4.166,-1.867 4.166,-4.167l0,-4.167c0,-2.296 -1.861,-4.161 -4.166,-4.166Zm-17.629,-20.834l-19.871,0c-2.305,0.006 -4.167,1.871 -4.167,4.167l0,4.167c0,2.299 1.867,4.166 4.167,4.166l19.871,0c2.3,0 4.167,-1.867 4.167,-4.166l0,-4.167c0,-2.296 -1.862,-4.161 -4.167,-4.167Z" style="fill:#3a3e46;"/></g></svg>