<?xml version="1.0" encoding="UTF-8" standalone="no"?><!DOCTYPE svg PUBLIC "-//W3C//DTD SVG 1.1//EN" "http://www.w3.org/Graphics/SVG/1.1/DTD/svg11.dtd"><svg width="92px" height="92px" version="1.1" xmlns="http://www.w3.org/2000/svg" xmlns:xlink="http://www.w3.org/1999/xlink" xml:space="preserve" xmlns:serif="http://www.serif.com/" style="fill-rule:evenodd;clip-rule:evenodd;stroke-linejoin:round;stroke-miterlimit:2;"><g id="ll-icon-disk"><path id="ll-icon-disk1" serif:id="ll-icon-disk" d="M70.833,0c0,0 20.333,20.571 20.834,20.833l0,65.105c0,3.155 -2.557,5.718 -5.73,5.729l-80.208,0c-3.162,0 -5.729,-2.567 -5.729,-5.73l0,-80.208c0,-3.159 2.562,-5.724 5.729,-5.729l65.104,0Zm2.604,45.833l-55.208,0c-3.167,0.006 -5.729,2.571 -5.729,5.73l0,21.874c0,3.163 2.567,5.73 5.729,5.73l55.208,0c3.163,0 5.73,-2.567 5.73,-5.73l0,-21.874c0,-3.159 -2.562,-5.724 -5.73,-5.73Zm-16.145,-37.5l-28.125,0c-3.179,0.017 -4.167,2.578 -4.167,5.73l0,13.541c0,3.162 1.005,5.729 4.167,5.729l28.125,0c3.162,0 5.208,-2.567 5.208,-5.729l0,-13.541c0,-3.152 -2.03,-5.713 -5.208,-5.73Zm1.041,12.5c0,-8.333 0,-8.333 -6.25,-8.333c-5.752,0 -6.25,0 -6.25,8.333c0,8.334 0,8.334 6.25,8.334c6.25,0 6.25,0 6.25,-8.334Z" style="fill:#3a3e46;"/></g></svg>