<?xml version="1.0" encoding="UTF-8" standalone="no"?><!DOCTYPE svg PUBLIC "-//W3C//DTD SVG 1.1//EN" "http://www.w3.org/Graphics/SVG/1.1/DTD/svg11.dtd"><svg width="92px" height="92px" version="1.1" xmlns="http://www.w3.org/2000/svg" xmlns:xlink="http://www.w3.org/1999/xlink" xml:space="preserve" xmlns:serif="http://www.serif.com/" style="fill-rule:evenodd;clip-rule:evenodd;stroke-linejoin:round;stroke-miterlimit:2;"><g transform="matrix(4.16667,0,0,4.16667,-2108.33,-458.333)"><g id="ll-icon-eye-closed" transform="matrix(1,0,0,1,-417.987,-1253.52)"><path d="M925.531,1376.48C925.438,1376.37 925.348,1376.26 925.263,1376.16C925.015,1375.86 924.962,1375.45 925.127,1375.1C925.291,1374.75 925.644,1374.52 926.032,1374.52C926.556,1374.52 927.088,1374.52 927.497,1374.52C927.858,1374.52 928.197,1374.69 928.413,1374.98C928.414,1374.98 928.414,1374.98 928.415,1374.98C929.389,1376.25 931.971,1379.18 935,1379.18C938.029,1379.18 940.611,1376.25 941.586,1374.98C941.586,1374.98 941.586,1374.98 941.586,1374.98C941.803,1374.69 942.142,1374.52 942.503,1374.52C942.913,1374.52 943.444,1374.52 943.968,1374.52C944.356,1374.52 944.709,1374.75 944.874,1375.1C945.039,1375.45 944.986,1375.86 944.738,1376.16C944.651,1376.26 944.561,1376.37 944.467,1376.48L945.716,1377.73C946.107,1378.12 946.107,1378.75 945.716,1379.14L945.009,1379.85C944.619,1380.24 943.985,1380.24 943.595,1379.85L942.368,1378.62C941.911,1379.03 941.418,1379.43 940.896,1379.81L941.719,1381.24C941.995,1381.71 941.831,1382.33 941.353,1382.6L940.487,1383.1C940.009,1383.38 939.397,1383.21 939.121,1382.74L938.291,1381.3C937.709,1381.54 937.106,1381.73 936.487,1381.85L936.487,1383.55C936.487,1384.11 936.039,1384.55 935.487,1384.55L934.487,1384.55C933.935,1384.55 933.487,1384.11 933.487,1383.55L933.487,1381.85C932.876,1381.73 932.281,1381.54 931.706,1381.3L930.875,1382.74C930.599,1383.21 929.987,1383.38 929.509,1383.1L928.643,1382.6C928.165,1382.33 928.001,1381.71 928.277,1381.24L929.101,1379.81C928.579,1379.43 928.086,1379.03 927.63,1378.62L926.401,1379.85C926.01,1380.24 925.377,1380.24 924.986,1379.85L924.279,1379.14C923.889,1378.75 923.889,1378.12 924.279,1377.73L925.531,1376.48Z" style="fill:rgb(58,62,70);"/></g></g></svg>