<?xml version="1.0" encoding="UTF-8" standalone="no"?><!DOCTYPE svg PUBLIC "-//W3C//DTD SVG 1.1//EN" "http://www.w3.org/Graphics/SVG/1.1/DTD/svg11.dtd"><svg width="92px" height="92px" version="1.1" xmlns="http://www.w3.org/2000/svg" xmlns:xlink="http://www.w3.org/1999/xlink" xml:space="preserve" xmlns:serif="http://www.serif.com/" style="fill-rule:evenodd;clip-rule:evenodd;stroke-linejoin:round;stroke-miterlimit:2;"><g id="ll-icon-envelope"><path d="M87.5,12.5c2.316,0.017 4.167,1.877 4.167,4.167l0,1.515l-43.943,21.79c-1.191,0.59 -2.59,0.59 -3.781,0c-8.638,-4.284 -43.943,-21.79 -43.943,-21.79l0,11.363c0,0 35.654,17.68 44.069,21.853c1.112,0.551 2.417,0.551 3.528,0l44.07,-21.853l0,45.455c0,2.3 -1.867,4.167 -4.167,4.167l-83.333,0c-2.3,0 -4.167,-1.867 -4.167,-4.167l0,-58.333c0,-2.29 1.85,-4.15 4.167,-4.167l83.333,0Z" style="fill:#3a3e46;"/></g></svg>