<?xml version="1.0" encoding="UTF-8" standalone="no"?><!DOCTYPE svg PUBLIC "-//W3C//DTD SVG 1.1//EN" "http://www.w3.org/Graphics/SVG/1.1/DTD/svg11.dtd"><svg width="92px" height="92px" version="1.1" xmlns="http://www.w3.org/2000/svg" xmlns:xlink="http://www.w3.org/1999/xlink" xml:space="preserve" xmlns:serif="http://www.serif.com/" style="fill-rule:evenodd;clip-rule:evenodd;stroke-linejoin:round;stroke-miterlimit:2;"><g transform="matrix(4.16667,0,0,4.16667,-2229.17,-825)"><g transform="matrix(1.41056,0,0,1.5724,-985.821,-1213.94)"><path id="ll-icon-export" d="M1084.87,901.995L1083.13,901.995C1082.85,901.995 1082.59,901.84 1082.48,901.603C1082.37,901.365 1082.43,901.091 1082.63,900.909L1085.93,897.948L1089.24,900.909C1089.44,901.091 1089.5,901.365 1089.39,901.603C1089.28,901.84 1089.02,901.995 1088.73,901.995L1087,901.995L1087,906.215C1087,906.566 1086.68,906.851 1086.29,906.851L1085.58,906.851C1085.19,906.851 1084.87,906.566 1084.87,906.215L1084.87,901.995ZM1093.77,910.349L1093.77,911.303C1093.77,911.655 1093.45,911.939 1093.06,911.939L1078.88,911.939C1078.49,911.939 1078.17,911.654 1078.17,911.303L1078.17,904.308C1078.17,903.957 1078.49,903.672 1078.88,903.672L1082.42,903.672C1082.82,903.672 1083.13,903.956 1083.13,904.308L1083.13,904.944C1083.13,905.295 1082.82,905.579 1082.42,905.579L1080.65,905.579C1080.56,905.579 1080.47,905.613 1080.4,905.673C1080.34,905.732 1080.3,905.813 1080.3,905.897L1080.3,909.717C1080.3,909.89 1080.45,910.031 1080.65,910.031L1091.29,910.031C1091.38,910.031 1091.47,909.998 1091.54,909.938C1091.6,909.879 1091.64,909.798 1091.64,909.713L1091.64,905.897C1091.64,905.813 1091.6,905.732 1091.54,905.673C1091.47,905.613 1091.38,905.579 1091.29,905.579L1089.51,905.579C1089.12,905.579 1088.81,905.295 1088.81,904.944L1088.81,904.308C1088.81,903.956 1089.12,903.672 1089.51,903.672L1093.06,903.672C1093.45,903.672 1093.77,903.957 1093.77,904.308L1093.77,910.349Z" style="fill:rgb(58,62,70);"/></g></g></svg>