<?xml version="1.0" encoding="UTF-8" standalone="no"?><!DOCTYPE svg PUBLIC "-//W3C//DTD SVG 1.1//EN" "http://www.w3.org/Graphics/SVG/1.1/DTD/svg11.dtd"><svg width="134px" height="134px" version="1.1" xmlns="http://www.w3.org/2000/svg" xmlns:xlink="http://www.w3.org/1999/xlink" xml:space="preserve" xmlns:serif="http://www.serif.com/" style="fill-rule:evenodd;clip-rule:evenodd;stroke-linejoin:round;stroke-miterlimit:2;"><g transform="matrix(4.16667,0,0,4.16667,-3829.17,-300)"><g id="llicon-encircle" transform="matrix(1.54545,0,0,1.54545,-475.227,-1935)"><path d="M912.5,1298.65C918.214,1298.65 922.853,1303.29 922.853,1309C922.853,1314.71 918.214,1319.35 912.5,1319.35C906.786,1319.35 902.147,1314.71 902.147,1309C902.147,1303.29 906.786,1298.65 912.5,1298.65ZM912.5,1300.59C917.143,1300.59 920.912,1304.36 920.912,1309C920.912,1313.64 917.143,1317.41 912.5,1317.41C907.857,1317.41 904.088,1313.64 904.088,1309C904.088,1304.36 907.857,1300.59 912.5,1300.59Z" style="fill:rgb(58,62,70);"/></g></g></svg>