<?xml version="1.0" encoding="UTF-8" standalone="no"?><!DOCTYPE svg PUBLIC "-//W3C//DTD SVG 1.1//EN" "http://www.w3.org/Graphics/SVG/1.1/DTD/svg11.dtd"><svg width="92px" height="92px" version="1.1" xmlns="http://www.w3.org/2000/svg" xmlns:xlink="http://www.w3.org/1999/xlink" xml:space="preserve" xmlns:serif="http://www.serif.com/" style="fill-rule:evenodd;clip-rule:evenodd;stroke-linejoin:round;stroke-miterlimit:2;"><g id="ll-icon-expanded"><path d="M91.667,4.167c0,-2.3 -1.867,-4.167 -4.167,-4.167l-83.333,0c-2.3,0 -4.167,1.867 -4.167,4.167l0,16.666l91.667,0l0,-16.666Z" style="fill:#3a3e46;"/><path d="M87.714,0.005l0.212,0.017l0.208,0.026l0.205,0.037l0.202,0.046l0.197,0.056l0.194,0.066l0.189,0.075l0.185,0.083l0.179,0.092l0.175,0.101l0.169,0.108l0.163,0.116l0.158,0.124l0.151,0.131l0.145,0.138l0.138,0.145l0.131,0.151l0.123,0.157l0.117,0.164l0.108,0.169l0.1,0.174l0.093,0.18l0.083,0.184l0.075,0.19l0.065,0.193l0.056,0.198l0.047,0.201l0.037,0.205l0.026,0.209l0.016,0.211l0.006,0.215l0,16.666l-91.667,0l0,-16.666l0.005,-0.215l0.017,-0.211l0.026,-0.209l0.037,-0.205l0.046,-0.201l0.056,-0.198l0.066,-0.193l0.075,-0.19l0.083,-0.184l0.092,-0.18l0.101,-0.174l0.108,-0.169l0.116,-0.164l0.124,-0.157l0.131,-0.151l0.138,-0.145l0.145,-0.138l0.151,-0.131l0.157,-0.124l0.164,-0.116l0.169,-0.108l0.174,-0.101l0.18,-0.092l0.184,-0.083l0.19,-0.075l0.193,-0.066l0.198,-0.056l0.201,-0.046l0.205,-0.037l0.209,-0.026l0.211,-0.017l0.215,-0.005l83.333,0l0.214,0.005Z" style="fill:#3a3e46;"/><rect x="0" y="35.417" width="91.667" height="20.833" style="fill:#3a3e46;"/><path d="M91.667,70.833l-91.667,0l0,16.667c0,2.3 1.867,4.167 4.167,4.167l83.333,0c2.3,0 4.167,-1.867 4.167,-4.167l0,-16.667Z" style="fill:#3a3e46;"/></g></svg>