<?xml version="1.0" encoding="UTF-8" standalone="no"?><!DOCTYPE svg PUBLIC "-//W3C//DTD SVG 1.1//EN" "http://www.w3.org/Graphics/SVG/1.1/DTD/svg11.dtd"><svg width="92px" height="92px" version="1.1" xmlns="http://www.w3.org/2000/svg" xmlns:xlink="http://www.w3.org/1999/xlink" xml:space="preserve" xmlns:serif="http://www.serif.com/" style="fill-rule:evenodd;clip-rule:evenodd;stroke-linejoin:round;stroke-miterlimit:2;"><g id="ll-icon-erase-left"><path id="ll-icon-erase-left1" serif:id="ll-icon-erase-left" d="M87.5,79.167l-54.267,0c-0.888,0 -1.712,-0.279 -2.378,-0.753c-0.326,-0.166 -0.621,-0.39 -0.889,-0.658l-28.279,-28.278l-0.235,-0.288l-3.378,-3.379l31.956,-31.956c0.379,-0.379 0.813,-0.67 1.277,-0.861c0.558,-0.315 1.203,-0.487 1.926,-0.494l54.267,0c2.316,0.017 4.167,1.877 4.167,4.167l0,58.333c0,2.279 -1.834,4.133 -4.167,4.167Zm-21.092,-34.098l10.312,-10.312c1.626,-1.626 1.626,-4.266 0,-5.892l-2.946,-2.947c-1.626,-1.626 -4.267,-1.626 -5.893,0l-10.312,10.312l-10.158,-10.158c-1.626,-1.626 -4.267,-1.626 -5.893,0l-2.946,2.946c-1.626,1.626 -1.626,4.267 0,5.893l10.158,10.158l-10.312,10.312c-1.626,1.626 -1.626,4.267 0,5.893l2.947,2.946c1.626,1.626 4.266,1.626 5.892,0l10.312,-10.312l10.466,10.466c1.626,1.626 4.266,1.626 5.892,0l2.947,-2.947c1.626,-1.626 1.626,-4.266 0,-5.892l-10.466,-10.466Z" style="fill:#3a3e46;"/></g></svg>