<?xml version="1.0" encoding="UTF-8" standalone="no"?><!DOCTYPE svg PUBLIC "-//W3C//DTD SVG 1.1//EN" "http://www.w3.org/Graphics/SVG/1.1/DTD/svg11.dtd"><svg width="92px" height="92px" version="1.1" xmlns="http://www.w3.org/2000/svg" xmlns:xlink="http://www.w3.org/1999/xlink" xml:space="preserve" xmlns:serif="http://www.serif.com/" style="fill-rule:evenodd;clip-rule:evenodd;stroke-linejoin:round;stroke-miterlimit:2;"><g transform="matrix(4.16667,0,0,4.16667,-3758.33,-320.833)"><g id="ll-icon-email" transform="matrix(1,0,0,1,-44,-1221)"><path d="M955.583,1319.91C950.137,1319.2 946,1314.56 946,1309C946,1302.93 950.929,1298 957,1298C962.81,1298 967.568,1302.5 967.972,1308.21C967.99,1308.31 968,1308.4 968,1308.5L968,1312.5C968,1314.99 965.985,1317 963.5,1317C961.368,1317 959.583,1315.52 959.119,1313.53C958.476,1313.83 957.758,1314 957,1314C954.24,1314 952,1311.76 952,1309C952,1306.24 954.24,1304 957,1304C958.124,1304 959.163,1304.37 959.999,1305L960,1305L962,1305L962,1312.5L962.015,1312.5C962.015,1313.32 962.68,1313.99 963.5,1313.99C964.32,1313.99 964.985,1313.32 964.985,1312.5L965,1312.5C965,1312.5 965,1308.5 965,1308.5C965,1308.46 965.002,1308.41 965.006,1308.37C964.686,1304.23 961.224,1300.97 957,1300.97C952.568,1300.97 948.97,1304.57 948.97,1309C948.97,1313.17 952.167,1316.65 956.313,1317L956.597,1317C957.151,1317 957.597,1317.45 957.597,1318L957.597,1319C957.597,1319.55 957.151,1320 956.597,1320L956,1320C955.851,1320 955.71,1319.97 955.583,1319.91ZM959,1309C958.999,1307.89 958.103,1307 957,1307C955.896,1307 955,1307.9 955,1309C955,1310.1 955.896,1311 957,1311C958.103,1311 958.999,1310.11 959,1309L959,1309Z" style="fill:rgb(58,62,70);"/></g></g></svg>