<?xml version="1.0" encoding="UTF-8" standalone="no"?><!DOCTYPE svg PUBLIC "-//W3C//DTD SVG 1.1//EN" "http://www.w3.org/Graphics/SVG/1.1/DTD/svg11.dtd"><svg width="92px" height="92px" version="1.1" xmlns="http://www.w3.org/2000/svg" xmlns:xlink="http://www.w3.org/1999/xlink" xml:space="preserve" xmlns:serif="http://www.serif.com/" style="fill-rule:evenodd;clip-rule:evenodd;stroke-linejoin:round;stroke-miterlimit:2;"><g transform="matrix(4.16667,0,0,4.16667,-2066.67,-320.833)"><g transform="matrix(1,0,0,1,-428,-1286.5)"><g id="ll-icon-eye"><path id="ll-icon-eye1" serif:id="ll-icon-eye" d="M935,1367C940.037,1367 944.288,1372.16 945.59,1373.92C945.838,1374.27 945.838,1374.73 945.591,1375.08C944.288,1376.84 940.037,1382 935,1382C929.963,1382 925.712,1376.84 924.41,1375.08C924.162,1374.73 924.162,1374.27 924.409,1373.92C925.712,1372.16 929.963,1367 935,1367ZM935,1369.32C938.055,1369.32 940.968,1372.5 942.053,1373.83C942.325,1374.17 942.329,1374.65 942.064,1374.99C940.985,1376.37 938.064,1379.68 935,1379.68C931.936,1379.68 929.015,1376.37 927.937,1374.99C927.671,1374.65 927.675,1374.17 927.946,1373.83C929.032,1372.5 931.945,1369.32 935,1369.32ZM935,1371.5C936.656,1371.5 938,1372.84 938,1374.5C938,1376.16 936.656,1377.5 935,1377.5C933.344,1377.5 932,1376.16 932,1374.5C932,1372.84 933.344,1371.5 935,1371.5Z" style="fill:rgb(58,62,70);"/></g></g></g></svg>