<?xml version="1.0" encoding="UTF-8" standalone="no"?><!DOCTYPE svg PUBLIC "-//W3C//DTD SVG 1.1//EN" "http://www.w3.org/Graphics/SVG/1.1/DTD/svg11.dtd"><svg width="92px" height="92px" version="1.1" xmlns="http://www.w3.org/2000/svg" xmlns:xlink="http://www.w3.org/1999/xlink" xml:space="preserve" xmlns:serif="http://www.serif.com/" style="fill-rule:evenodd;clip-rule:evenodd;stroke-linejoin:round;stroke-miterlimit:2;"><g transform="matrix(4.16667,0,0,4.16667,-1741.67,-825)"><g id="ll-icon-folder-stack" transform="matrix(0.916667,0,0,0.916667,61.4167,109.333)"><g id="ll-icon-folder-stock"><path id="ll-icon-folder-stack1" serif:id="ll-icon-folder-stack" d="M412.997,109.741C412.999,109.767 413,109.792 413,109.818L413,119.636C413,120.238 412.511,120.727 411.909,120.727L390.091,120.727C389.489,120.727 389,120.238 389,119.636L389,110.909L398.818,110.909L398.818,112C398.818,112.602 399.307,113.091 399.909,113.091L402.091,113.091C402.693,113.091 403.182,112.602 403.182,112L403.182,110.909L412.997,110.909L412.997,109.741ZM391.182,108.727L391.182,106.546C391.182,106.256 391.297,105.979 391.501,105.774C391.706,105.57 391.984,105.455 392.273,105.455L393.211,105.455C393.639,105.455 394.03,105.213 394.221,104.831L394.688,103.896C394.879,103.514 395.27,103.273 395.697,103.273L399.758,103.273C400.185,103.273 400.575,103.514 400.766,103.896L401.233,104.831C401.425,105.213 401.816,105.455 402.243,105.455L409.727,105.455C410.016,105.455 410.294,105.57 410.499,105.774C410.703,105.979 410.818,106.256 410.818,106.546L410.818,108.727L391.182,108.727ZM392.718,103.273L391.182,103.273L391.182,100C391.182,99.711 391.297,99.433 391.501,99.229C391.706,99.024 391.984,98.909 392.273,98.909L393.205,98.909C393.637,98.909 394.031,98.665 394.224,98.28L394.697,97.332C394.883,96.961 395.262,96.727 395.676,96.727L399.778,96.727C400.193,96.727 400.572,96.961 400.757,97.332L401.231,98.28C401.424,98.665 401.818,98.909 402.249,98.909L409.727,98.909C410.016,98.909 410.294,99.024 410.499,99.229C410.703,99.433 410.818,99.711 410.818,100L410.818,103.273L402.737,103.273C402.341,103.273 401.979,103.049 401.802,102.695L401.302,101.694C401.117,101.324 400.739,101.091 400.325,101.091L395.129,101.091C394.716,101.091 394.338,101.324 394.153,101.694L393.652,102.695C393.475,103.049 393.114,103.273 392.718,103.273Z" style="fill:rgb(58,62,70);"/></g></g></g></svg>