<?xml version="1.0" encoding="UTF-8" standalone="no"?><!DOCTYPE svg PUBLIC "-//W3C//DTD SVG 1.1//EN" "http://www.w3.org/Graphics/SVG/1.1/DTD/svg11.dtd"><svg width="92px" height="92px" version="1.1" xmlns="http://www.w3.org/2000/svg" xmlns:xlink="http://www.w3.org/1999/xlink" xml:space="preserve" xmlns:serif="http://www.serif.com/" style="fill-rule:evenodd;clip-rule:evenodd;stroke-linejoin:round;stroke-miterlimit:2;"><g transform="matrix(4.16667,0,0,4.16667,-1558.33,-458.333)"><g id="ll-file-upload" transform="matrix(1,0,0,1,-440,-902)"><g><g transform="matrix(-0.75,-2.51535e-16,-3.31332e-16,-0.733333,1291.45,1190.93)"><path d="M624,230.364C624,229.611 623.403,229 622.667,229L621.333,229C620.597,229 620,229.611 620,230.364L620,242.636C620,243.389 620.597,244 621.333,244L622.667,244C623.403,244 624,243.389 624,242.636L624,230.364Z" style="fill:rgb(58,62,70);"/></g><g transform="matrix(0.636396,-0.636396,0.636396,0.636396,-2007.01,1065.82)"><path d="M2256,2186.68C2256,2186.23 2256.27,2185.83 2256.69,2185.66C2257.1,2185.48 2257.58,2185.58 2257.9,2185.9C2259.68,2187.68 2262.32,2190.32 2264.1,2192.1C2264.42,2192.42 2264.52,2192.9 2264.34,2193.31C2264.17,2193.73 2263.77,2194 2263.32,2194C2260.36,2194 2256,2194 2256,2194L2256,2186.68Z" style="fill:rgb(58,62,70);"/></g></g><path d="M816,1023C816.553,1023 817,1023.45 817,1024L817,1030C817,1030.55 817.448,1031 818,1031C820.873,1031 829.127,1031 832,1031C832.552,1031 833,1030.55 833,1030C833,1028.07 833,1024 833,1024C833,1023.45 833.447,1023 834,1023L835,1023C835.553,1023 836,1023.45 836,1024L836,1033L836,1033C835.999,1033.55 835.551,1034 835,1034L816,1034L815,1034C814.448,1034 814,1033.55 814,1033L814,1024C814,1023.45 814.447,1023 815,1023L816,1023Z" style="fill:rgb(58,62,70);"/></g></g></svg>