<?xml version="1.0" encoding="UTF-8" standalone="no"?><!DOCTYPE svg PUBLIC "-//W3C//DTD SVG 1.1//EN" "http://www.w3.org/Graphics/SVG/1.1/DTD/svg11.dtd"><svg width="92px" height="92px" version="1.1" xmlns="http://www.w3.org/2000/svg" xmlns:xlink="http://www.w3.org/1999/xlink" xml:space="preserve" xmlns:serif="http://www.serif.com/" style="fill-rule:evenodd;clip-rule:evenodd;stroke-linejoin:round;stroke-miterlimit:2;"><g transform="matrix(4.16667,0,0,4.16667,-1425,-458.333)"><g id="ll-icon-form" transform="matrix(1,0,0,1.04235,-202,-1222.47)"><path d="M565,1299.44C565.552,1299.44 566,1299.01 566,1298.48L566,1279.3C566,1278.77 565.552,1278.34 565,1278.34L545,1278.34C544.448,1278.34 544,1278.77 544,1279.3L544,1298.48C544,1299.01 544.448,1299.44 545,1299.44L565,1299.44ZM564,1293.68C564,1293.16 563.552,1292.73 563,1292.73L555,1292.73C554.448,1292.73 554,1293.16 554,1293.68L554,1295.6C554,1296.13 554.448,1296.56 555,1296.56L563,1296.56C563.552,1296.56 564,1296.13 564,1295.6L564,1293.68ZM552,1293.68C552,1293.16 551.552,1292.73 551,1292.73L547,1292.73C546.448,1292.73 546,1293.16 546,1293.68C546,1294.21 546.448,1294.64 547,1294.64L551,1294.64C551.552,1294.64 552,1294.21 552,1293.68ZM564,1287.93C564,1287.4 563.552,1286.97 563,1286.97L555,1286.97C554.448,1286.97 554,1287.4 554,1287.93L554,1289.85C554,1290.38 554.448,1290.81 555,1290.81L563,1290.81C563.552,1290.81 564,1290.38 564,1289.85L564,1287.93ZM552,1287.93C552,1287.4 551.552,1286.97 551,1286.97L547,1286.97C546.448,1286.97 546,1287.4 546,1287.93C546,1288.46 546.448,1288.89 547,1288.89L551,1288.89C551.552,1288.89 552,1288.46 552,1287.93ZM564,1282.17C564,1281.64 563.552,1281.21 563,1281.21L555,1281.21C554.448,1281.21 554,1281.64 554,1282.17L554,1284.09C554,1284.62 554.448,1285.05 555,1285.05L563,1285.05C563.552,1285.05 564,1284.62 564,1284.09L564,1282.17ZM552,1282.17C552,1281.64 551.552,1281.21 551,1281.21L547,1281.21C546.448,1281.21 546,1281.64 546,1282.17C546,1282.7 546.448,1283.13 547,1283.13L551,1283.13C551.552,1283.13 552,1282.7 552,1282.17Z" style="fill:rgb(58,62,70);"/></g></g></svg>