<?xml version="1.0" encoding="UTF-8" standalone="no"?><!DOCTYPE svg PUBLIC "-//W3C//DTD SVG 1.1//EN" "http://www.w3.org/Graphics/SVG/1.1/DTD/svg11.dtd"><svg width="92px" height="92px" version="1.1" xmlns="http://www.w3.org/2000/svg" xmlns:xlink="http://www.w3.org/1999/xlink" xml:space="preserve" xmlns:serif="http://www.serif.com/" style="fill-rule:evenodd;clip-rule:evenodd;stroke-linejoin:round;stroke-miterlimit:2;"><g transform="matrix(4.16667,0,0,4.16667,-2383.33,-458.333)"><path id="ll-icon-file-cabinet" d="M590,132L576,132C575.448,132 575,131.552 575,131L575,127C575,126.449 575.447,126.001 576,126L590,126C590.553,126.001 591,126.449 591,127L591,131C591,131.551 590.553,131.999 590,132ZM585,128L581,128C580.447,128.001 580,128.449 580,129C580,129.552 580.448,130 581,130L585,130C585.552,130 586,129.552 586,129C586,128.449 585.553,128.001 585,128ZM590,124L576,124C575.448,124 575,123.552 575,123L575,119C575,118.449 575.447,118.001 576,118L590,118C590.553,118.001 591,118.449 591,119L591,123C591,123.55 590.555,123.997 590,124ZM585,120L581,120C580.445,120.003 580,120.45 580,121C580,121.552 580.448,122 581,122L585,122C585.552,122 586,121.552 586,121C586,120.45 585.555,120.003 585,120ZM590,116L576,116C575.448,116 575,115.552 575,115L575,111C575,110.449 575.447,110.001 576,110L590,110C590.553,110.001 591,110.449 591,111L591,115C591,115.55 590.555,115.997 590,116ZM585,112L581,112C580.445,112.003 580,112.45 580,113C580,113.552 580.448,114 581,114L585,114C585.552,114 586,113.552 586,113C586,112.45 585.555,112.003 585,112Z" style="fill:rgb(58,62,70);"/></g></svg>