<?xml version="1.0" encoding="UTF-8" standalone="no"?><!DOCTYPE svg PUBLIC "-//W3C//DTD SVG 1.1//EN" "http://www.w3.org/Graphics/SVG/1.1/DTD/svg11.dtd"><svg width="92px" height="92px" version="1.1" xmlns="http://www.w3.org/2000/svg" xmlns:xlink="http://www.w3.org/1999/xlink" xml:space="preserve" xmlns:serif="http://www.serif.com/" style="fill-rule:evenodd;clip-rule:evenodd;stroke-linejoin:round;stroke-miterlimit:2;"><g id="ll-icon-forbidden"><path d="M46.425,0.004l0.591,0.011l0.588,0.019l0.586,0.026l0.585,0.033l0.583,0.041l0.58,0.048l0.579,0.055l0.576,0.062l0.574,0.07l0.573,0.076l0.569,0.084l0.568,0.09l0.565,0.097l0.563,0.105l0.56,0.111l0.558,0.118l0.556,0.125l0.553,0.131l0.55,0.138l0.548,0.145l0.545,0.151l0.542,0.158l0.539,0.164l0.537,0.171l0.534,0.177l0.531,0.183l0.528,0.19l0.524,0.196l0.522,0.202l0.519,0.209l0.516,0.214l0.512,0.221l0.509,0.226l0.506,0.233l0.503,0.239l0.499,0.244l0.496,0.25l0.492,0.256l0.489,0.262l0.485,0.268l0.482,0.273l0.478,0.279l0.474,0.284l0.471,0.29l0.467,0.296l0.463,0.301l0.459,0.306l0.455,0.312l0.451,0.317l0.448,0.322l0.443,0.327l0.439,0.333l0.435,0.338l0.431,0.343l0.427,0.348l0.422,0.352l0.418,0.358l0.414,0.363l0.409,0.368l0.405,0.372l0.4,0.377l0.396,0.382l0.391,0.387l0.387,0.391l0.381,0.396l0.378,0.4l0.372,0.405l0.368,0.409l0.362,0.414l0.358,0.418l0.353,0.422l0.348,0.427l0.343,0.431l0.338,0.435l0.332,0.439l0.328,0.443l0.322,0.447l0.317,0.452l0.312,0.455l0.306,0.459l0.301,0.463l0.295,0.467l0.29,0.471l0.285,0.474l0.279,0.478l0.273,0.482l0.267,0.485l0.262,0.489l0.256,0.492l0.251,0.496l0.244,0.499l0.239,0.503l0.232,0.506l0.227,0.509l0.22,0.512l0.215,0.516l0.208,0.518l0.203,0.522l0.196,0.525l0.189,0.528l0.184,0.531l0.177,0.534l0.171,0.536l0.164,0.54l0.158,0.542l0.151,0.545l0.145,0.548l0.138,0.55l0.131,0.553l0.125,0.555l0.118,0.558l0.111,0.561l0.104,0.562l0.098,0.566l0.09,0.567l0.084,0.57l0.076,0.572l0.07,0.575l0.062,0.576l0.055,0.578l0.048,0.581l0.041,0.583l0.033,0.584l0.026,0.587l0.019,0.588l0.011,0.59l0.004,0.592l-0.004,0.592l-0.011,0.591l-0.019,0.588l-0.026,0.586l-0.033,0.585l-0.041,0.583l-0.048,0.58l-0.055,0.579l-0.062,0.576l-0.07,0.574l-0.076,0.573l-0.084,0.569l-0.09,0.568l-0.098,0.565l-0.104,0.563l-0.111,0.56l-0.118,0.558l-0.125,0.556l-0.131,0.553l-0.138,0.55l-0.145,0.548l-0.151,0.545l-0.158,0.542l-0.164,0.539l-0.171,0.537l-0.177,0.534l-0.184,0.531l-0.189,0.528l-0.196,0.524l-0.203,0.522l-0.208,0.519l-0.215,0.516l-0.22,0.512l-0.227,0.509l-0.232,0.506l-0.239,0.503l-0.244,0.499l-0.251,0.496l-0.256,0.492l-0.262,0.489l-0.267,0.485l-0.273,0.482l-0.279,0.478l-0.285,0.474l-0.29,0.471l-0.295,0.467l-0.301,0.463l-0.306,0.459l-0.312,0.455l-0.317,0.451l-0.322,0.448l-0.328,0.443l-0.332,0.439l-0.338,0.435l-0.343,0.431l-0.348,0.427l-0.353,0.422l-0.358,0.418l-0.362,0.414l-0.368,0.409l-0.372,0.405l-0.378,0.4l-0.381,0.396l-0.387,0.391l-0.391,0.387l-0.396,0.381l-0.4,0.378l-0.405,0.372l-0.409,0.368l-0.414,0.362l-0.418,0.358l-0.422,0.353l-0.427,0.348l-0.431,0.343l-0.435,0.338l-0.439,0.332l-0.443,0.328l-0.448,0.322l-0.451,0.317l-0.455,0.312l-0.459,0.306l-0.463,0.301l-0.467,0.295l-0.471,0.29l-0.474,0.285l-0.478,0.279l-0.482,0.273l-0.485,0.267l-0.489,0.262l-0.492,0.256l-0.496,0.251l-0.499,0.244l-0.503,0.239l-0.506,0.232l-0.509,0.227l-0.512,0.22l-0.516,0.215l-0.519,0.208l-0.522,0.203l-0.524,0.196l-0.528,0.189l-0.531,0.184l-0.534,0.177l-0.537,0.171l-0.539,0.164l-0.542,0.158l-0.545,0.151l-0.548,0.145l-0.55,0.138l-0.553,0.131l-0.556,0.125l-0.558,0.118l-0.56,0.111l-0.563,0.104l-0.565,0.098l-0.568,0.09l-0.569,0.084l-0.573,0.076l-0.574,0.07l-0.576,0.062l-0.579,0.055l-0.58,0.048l-0.583,0.041l-0.585,0.033l-0.586,0.026l-0.588,0.019l-0.591,0.011l-0.592,0.004l-0.592,-0.004l-0.59,-0.011l-0.588,-0.019l-0.587,-0.026l-0.584,-0.033l-0.583,-0.041l-0.581,-0.048l-0.578,-0.055l-0.576,-0.062l-0.575,-0.07l-0.572,-0.076l-0.57,-0.084l-0.567,-0.09l-0.566,-0.098l-0.562,-0.104l-0.561,-0.111l-0.558,-0.118l-0.555,-0.125l-0.553,-0.131l-0.55,-0.138l-0.548,-0.145l-0.545,-0.151l-0.542,-0.158l-0.54,-0.164l-0.536,-0.171l-0.534,-0.177l-0.531,-0.184l-0.528,-0.189l-0.525,-0.196l-0.522,-0.203l-0.518,-0.208l-0.516,-0.215l-0.512,-0.22l-0.509,-0.227l-0.506,-0.232l-0.503,-0.239l-0.499,-0.244l-0.496,-0.251l-0.492,-0.256l-0.489,-0.262l-0.485,-0.267l-0.482,-0.273l-0.478,-0.279l-0.474,-0.285l-0.471,-0.29l-0.467,-0.295l-0.463,-0.301l-0.459,-0.306l-0.455,-0.312l-0.452,-0.317l-0.447,-0.322l-0.443,-0.328l-0.439,-0.332l-0.435,-0.338l-0.431,-0.343l-0.427,-0.348l-0.422,-0.353l-0.418,-0.358l-0.414,-0.362l-0.409,-0.368l-0.405,-0.372l-0.4,-0.378l-0.396,-0.381l-0.391,-0.387l-0.387,-0.391l-0.382,-0.396l-0.377,-0.4l-0.372,-0.405l-0.368,-0.409l-0.363,-0.414l-0.358,-0.418l-0.352,-0.422l-0.348,-0.427l-0.343,-0.431l-0.338,-0.435l-0.333,-0.439l-0.327,-0.443l-0.322,-0.448l-0.317,-0.451l-0.312,-0.455l-0.306,-0.459l-0.301,-0.463l-0.296,-0.467l-0.29,-0.471l-0.284,-0.474l-0.279,-0.478l-0.273,-0.482l-0.268,-0.485l-0.262,-0.489l-0.256,-0.492l-0.25,-0.496l-0.244,-0.499l-0.239,-0.503l-0.233,-0.506l-0.226,-0.509l-0.221,-0.512l-0.214,-0.516l-0.209,-0.519l-0.202,-0.522l-0.196,-0.524l-0.19,-0.528l-0.183,-0.531l-0.177,-0.534l-0.171,-0.537l-0.164,-0.539l-0.158,-0.542l-0.151,-0.545l-0.145,-0.548l-0.138,-0.55l-0.131,-0.553l-0.125,-0.556l-0.118,-0.558l-0.111,-0.56l-0.105,-0.563l-0.097,-0.565l-0.09,-0.568l-0.084,-0.569l-0.076,-0.573l-0.07,-0.574l-0.062,-0.576l-0.055,-0.579l-0.048,-0.58l-0.041,-0.583l-0.033,-0.585l-0.026,-0.586l-0.019,-0.588l-0.011,-0.591l-0.004,-0.592l0.004,-0.592l0.011,-0.59l0.019,-0.588l0.026,-0.587l0.033,-0.584l0.041,-0.583l0.048,-0.581l0.055,-0.578l0.062,-0.576l0.07,-0.575l0.076,-0.572l0.084,-0.57l0.09,-0.567l0.097,-0.566l0.105,-0.562l0.111,-0.561l0.118,-0.558l0.125,-0.555l0.131,-0.553l0.138,-0.55l0.145,-0.548l0.151,-0.545l0.158,-0.542l0.164,-0.54l0.171,-0.536l0.177,-0.534l0.183,-0.531l0.19,-0.528l0.196,-0.525l0.202,-0.522l0.209,-0.518l0.214,-0.516l0.221,-0.512l0.226,-0.509l0.233,-0.506l0.239,-0.503l0.244,-0.499l0.25,-0.496l0.256,-0.492l0.262,-0.489l0.268,-0.485l0.273,-0.482l0.279,-0.478l0.284,-0.474l0.29,-0.471l0.296,-0.467l0.301,-0.463l0.306,-0.459l0.312,-0.455l0.317,-0.452l0.322,-0.447l0.327,-0.443l0.333,-0.439l0.338,-0.435l0.343,-0.431l0.348,-0.427l0.352,-0.422l0.358,-0.418l0.363,-0.414l0.368,-0.409l0.372,-0.405l0.377,-0.4l0.382,-0.396l0.387,-0.391l0.391,-0.387l0.396,-0.382l0.4,-0.377l0.405,-0.372l0.409,-0.368l0.414,-0.363l0.418,-0.358l0.422,-0.352l0.427,-0.348l0.431,-0.343l0.435,-0.338l0.439,-0.333l0.443,-0.327l0.447,-0.322l0.452,-0.317l0.455,-0.312l0.459,-0.306l0.463,-0.301l0.467,-0.296l0.471,-0.29l0.474,-0.284l0.478,-0.279l0.482,-0.273l0.485,-0.268l0.489,-0.262l0.492,-0.256l0.496,-0.25l0.499,-0.244l0.503,-0.239l0.506,-0.233l0.509,-0.226l0.512,-0.221l0.516,-0.214l0.518,-0.209l0.522,-0.202l0.525,-0.196l0.528,-0.19l0.531,-0.183l0.534,-0.177l0.536,-0.171l0.54,-0.164l0.542,-0.158l0.545,-0.151l0.548,-0.145l0.55,-0.138l0.553,-0.131l0.555,-0.125l0.558,-0.118l0.561,-0.111l0.562,-0.105l0.566,-0.097l0.567,-0.09l0.57,-0.084l0.572,-0.076l0.575,-0.07l0.576,-0.062l0.578,-0.055l0.581,-0.048l0.583,-0.041l0.584,-0.033l0.587,-0.026l0.588,-0.019l0.59,-0.011l0.592,-0.004l0.592,0.004Zm-19.269,73.432l0.503,0.335l0.509,0.326l0.515,0.317l0.522,0.307l0.527,0.299l0.534,0.289l0.539,0.279l0.545,0.27l0.55,0.26l0.556,0.251l0.561,0.24l0.566,0.23l0.572,0.221l0.576,0.21l0.582,0.199l0.586,0.189l0.591,0.179l0.595,0.168l0.6,0.156l0.604,0.147l0.608,0.134l0.612,0.124l0.616,0.113l0.621,0.101l0.624,0.09l0.627,0.078l0.631,0.066l0.635,0.055l0.638,0.042l0.641,0.031l0.644,0.018l0.647,0.007l0.431,-0.003l0.429,-0.008l0.428,-0.014l0.427,-0.019l0.425,-0.024l0.423,-0.03l0.423,-0.034l0.42,-0.041l0.42,-0.045l0.417,-0.05l0.416,-0.056l0.415,-0.061l0.413,-0.066l0.411,-0.07l0.409,-0.076l0.408,-0.081l0.405,-0.086l0.404,-0.091l0.403,-0.095l0.4,-0.101l0.398,-0.105l0.396,-0.11l0.395,-0.115l0.392,-0.119l0.39,-0.124l0.389,-0.129l0.386,-0.133l0.384,-0.138l0.381,-0.143l0.38,-0.147l0.377,-0.152l0.375,-0.156l0.373,-0.16l0.37,-0.165l0.368,-0.169l0.365,-0.173l0.363,-0.178l0.361,-0.182l0.358,-0.187l0.356,-0.19l0.352,-0.195l0.351,-0.198l0.347,-0.203l0.345,-0.207l0.343,-0.211l0.339,-0.215l0.337,-0.219l0.334,-0.222l0.331,-0.227l0.328,-0.231l0.326,-0.234l0.322,-0.238l0.319,-0.242l0.317,-0.246l0.313,-0.249l0.31,-0.253l0.307,-0.257l0.305,-0.26l0.3,-0.264l0.298,-0.267l0.294,-0.271l0.292,-0.274l0.287,-0.278l0.285,-0.281l0.281,-0.285l0.278,-0.287l0.274,-0.292l0.271,-0.294l0.267,-0.298l0.264,-0.3l0.26,-0.305l0.257,-0.307l0.253,-0.31l0.249,-0.313l0.246,-0.317l0.242,-0.319l0.238,-0.322l0.234,-0.326l0.231,-0.328l0.227,-0.331l0.222,-0.334l0.219,-0.337l0.215,-0.339l0.211,-0.343l0.207,-0.345l0.203,-0.347l0.198,-0.351l0.195,-0.352l0.19,-0.356l0.187,-0.358l0.182,-0.361l0.178,-0.363l0.173,-0.365l0.169,-0.368l0.165,-0.37l0.16,-0.373l0.156,-0.375l0.152,-0.377l0.147,-0.38l0.143,-0.381l0.138,-0.384l0.133,-0.386l0.129,-0.389l0.124,-0.39l0.119,-0.392l0.115,-0.395l0.11,-0.396l0.105,-0.398l0.101,-0.4l0.095,-0.403l0.091,-0.404l0.086,-0.405l0.081,-0.408l0.076,-0.409l0.07,-0.411l0.066,-0.413l0.061,-0.415l0.056,-0.416l0.05,-0.417l0.045,-0.42l0.041,-0.42l0.034,-0.423l0.03,-0.423l0.024,-0.425l0.019,-0.427l0.014,-0.428l0.008,-0.429l0.003,-0.431l-0.007,-0.647l-0.018,-0.644l-0.031,-0.641l-0.042,-0.638l-0.055,-0.635l-0.066,-0.631l-0.078,-0.627l-0.09,-0.624l-0.101,-0.621l-0.113,-0.616l-0.124,-0.612l-0.134,-0.608l-0.147,-0.604l-0.156,-0.6l-0.168,-0.595l-0.179,-0.591l-0.189,-0.586l-0.199,-0.582l-0.21,-0.576l-0.221,-0.572l-0.23,-0.566l-0.24,-0.561l-0.251,-0.556l-0.26,-0.55l-0.27,-0.545l-0.279,-0.539l-0.289,-0.534l-0.299,-0.527l-0.307,-0.522l-0.317,-0.515l-0.326,-0.509l-0.335,-0.503l-46.28,46.28Zm18.247,-60.933l-0.429,0.008l-0.428,0.013l-0.427,0.019l-0.425,0.025l-0.424,0.029l-0.422,0.035l-0.421,0.04l-0.419,0.046l-0.418,0.05l-0.416,0.056l-0.414,0.06l-0.413,0.066l-0.411,0.071l-0.409,0.076l-0.408,0.081l-0.406,0.086l-0.404,0.09l-0.402,0.096l-0.4,0.1l-0.398,0.105l-0.397,0.11l-0.394,0.115l-0.392,0.12l-0.391,0.124l-0.388,0.129l-0.386,0.133l-0.384,0.138l-0.382,0.143l-0.379,0.147l-0.377,0.151l-0.375,0.156l-0.373,0.161l-0.37,0.164l-0.368,0.17l-0.366,0.173l-0.363,0.178l-0.36,0.182l-0.358,0.186l-0.356,0.191l-0.353,0.194l-0.35,0.199l-0.348,0.203l-0.345,0.207l-0.342,0.211l-0.34,0.214l-0.336,0.219l-0.334,0.223l-0.331,0.227l-0.329,0.23l-0.325,0.235l-0.322,0.238l-0.32,0.242l-0.316,0.245l-0.313,0.25l-0.311,0.253l-0.307,0.256l-0.304,0.261l-0.301,0.263l-0.297,0.268l-0.295,0.271l-0.291,0.274l-0.288,0.278l-0.284,0.281l-0.281,0.284l-0.278,0.288l-0.274,0.291l-0.271,0.295l-0.268,0.297l-0.263,0.301l-0.261,0.304l-0.256,0.307l-0.253,0.311l-0.25,0.313l-0.245,0.316l-0.242,0.32l-0.238,0.322l-0.235,0.325l-0.23,0.329l-0.227,0.331l-0.223,0.334l-0.219,0.336l-0.214,0.34l-0.211,0.342l-0.207,0.345l-0.203,0.348l-0.199,0.35l-0.194,0.353l-0.191,0.356l-0.186,0.358l-0.182,0.36l-0.178,0.363l-0.173,0.366l-0.17,0.368l-0.164,0.37l-0.161,0.373l-0.156,0.375l-0.151,0.377l-0.147,0.379l-0.143,0.382l-0.138,0.384l-0.133,0.386l-0.129,0.388l-0.124,0.391l-0.12,0.392l-0.115,0.394l-0.11,0.397l-0.105,0.398l-0.1,0.4l-0.096,0.402l-0.09,0.404l-0.086,0.406l-0.081,0.408l-0.076,0.409l-0.071,0.411l-0.066,0.413l-0.06,0.414l-0.056,0.416l-0.05,0.418l-0.046,0.419l-0.04,0.421l-0.035,0.422l-0.029,0.424l-0.025,0.425l-0.019,0.427l-0.013,0.428l-0.008,0.429l-0.003,0.43l0.002,0.326l0.004,0.326l0.019,0.648l0.031,0.645l0.043,0.642l0.055,0.639l0.068,0.635l0.079,0.632l0.091,0.628l0.102,0.624l0.114,0.62l0.126,0.616l0.136,0.612l0.148,0.607l0.159,0.603l0.17,0.599l0.181,0.594l0.192,0.589l0.202,0.585l0.213,0.579l0.223,0.575l0.233,0.569l0.244,0.564l0.253,0.558l0.264,0.553l0.273,0.547l0.283,0.541l0.293,0.536l0.302,0.529l0.312,0.524l0.321,0.517l0.33,0.511l0.339,0.504l46.305,-46.305l-0.504,-0.339l-0.511,-0.33l-0.517,-0.321l-0.524,-0.312l-0.529,-0.302l-0.536,-0.293l-0.541,-0.283l-0.547,-0.273l-0.553,-0.264l-0.558,-0.253l-0.564,-0.244l-0.569,-0.233l-0.575,-0.223l-0.579,-0.213l-0.585,-0.202l-0.589,-0.192l-0.594,-0.181l-0.599,-0.17l-0.603,-0.159l-0.607,-0.148l-0.612,-0.136l-0.616,-0.126l-0.62,-0.114l-0.624,-0.102l-0.628,-0.091l-0.632,-0.079l-0.635,-0.068l-0.639,-0.055l-0.642,-0.043l-0.645,-0.031l-0.648,-0.019l-0.326,-0.004l-0.326,-0.002l-0.43,0.003Z" style="fill:#3a3e46;"/></g></svg>