<?xml version="1.0" encoding="UTF-8" standalone="no"?><!DOCTYPE svg PUBLIC "-//W3C//DTD SVG 1.1//EN" "http://www.w3.org/Graphics/SVG/1.1/DTD/svg11.dtd"><svg width="71px" height="92px" version="1.1" xmlns="http://www.w3.org/2000/svg" xmlns:xlink="http://www.w3.org/1999/xlink" xml:space="preserve" xmlns:serif="http://www.serif.com/" style="fill-rule:evenodd;clip-rule:evenodd;stroke-linejoin:round;stroke-miterlimit:2;"><g transform="matrix(4.16667,0,0,4.16667,-3941.67,-320.833)"><g id="ll-icon-flag" transform="matrix(1,0,0,1,-88,-1221)"><path d="M1044,1311L1038,1311C1037.45,1311 1037,1310.55 1037,1310L1037,1319C1037,1319.55 1036.56,1320 1036,1320L1035,1320C1034.45,1320 1034,1319.55 1034,1319L1034,1299C1034,1298.45 1034.44,1298 1035,1298L1036,1298C1036.56,1298 1037,1298.45 1037,1299L1037,1301C1037,1300.45 1037.44,1300 1038,1300L1043,1300C1043.56,1300 1044,1300.45 1044,1301C1044,1301 1050,1301 1050,1301C1050.56,1301 1051,1301.45 1051,1302L1051,1311C1051,1311.55 1050.55,1312 1050,1312L1045,1312C1044.45,1312 1044,1311.55 1044,1311L1044,1311Z" style="fill:rgb(58,62,70);"/></g></g></svg>