<?xml version="1.0" encoding="UTF-8" standalone="no"?><!DOCTYPE svg PUBLIC "-//W3C//DTD SVG 1.1//EN" "http://www.w3.org/Graphics/SVG/1.1/DTD/svg11.dtd"><svg width="84px" height="92px" version="1.1" xmlns="http://www.w3.org/2000/svg" xmlns:xlink="http://www.w3.org/1999/xlink" xml:space="preserve" xmlns:serif="http://www.serif.com/" style="fill-rule:evenodd;clip-rule:evenodd;stroke-linejoin:round;stroke-miterlimit:2;"><g transform="matrix(4.16667,0,0,4.16667,-4679.17,-116.667)"><g id="ll-icon-footsteps" transform="matrix(1,0,0,1,220,-1138)"><path d="M903.069,1185.3C902.783,1186.36 903.417,1187.46 904.483,1187.75L904.976,1187.88C906.042,1188.16 907.139,1187.53 907.425,1186.46L908.075,1184.04L903.718,1182.87L903.069,1185.3ZM917.655,1182.05C917.369,1183.12 916.272,1183.75 915.205,1183.47L914.483,1183.27C913.417,1182.99 912.783,1181.89 913.069,1180.82L913.78,1178.17L918.366,1179.4L917.655,1182.05ZM903.478,1176.8C902.906,1178.93 904.174,1181.13 906.306,1181.7L907.576,1182.04C908.109,1182.18 908.658,1181.86 908.801,1181.33L910.567,1174.74C910.995,1173.14 910.045,1171.49 908.446,1171.06L908.142,1170.98C906.543,1170.55 904.896,1171.5 904.468,1173.1L903.478,1176.8ZM921.728,1174.19C921.156,1176.32 918.961,1177.59 916.829,1177.02L915.237,1176.59C914.704,1176.45 914.387,1175.9 914.53,1175.37L916.444,1168.22C916.873,1166.63 918.519,1165.67 920.119,1166.1L920.744,1166.27C922.343,1166.7 923.294,1168.35 922.865,1169.94L921.728,1174.19Z" style="fill:rgb(58,62,70);"/></g></g></svg>