<?xml version="1.0" encoding="UTF-8" standalone="no"?><!DOCTYPE svg PUBLIC "-//W3C//DTD SVG 1.1//EN" "http://www.w3.org/Graphics/SVG/1.1/DTD/svg11.dtd"><svg width="92px" height="92px" version="1.1" xmlns="http://www.w3.org/2000/svg" xmlns:xlink="http://www.w3.org/1999/xlink" xml:space="preserve" xmlns:serif="http://www.serif.com/" style="fill-rule:evenodd;clip-rule:evenodd;stroke-linejoin:round;stroke-miterlimit:2;"><g id="ll-icon-folder"><path id="ll-icon-folder1" serif:id="ll-icon-folder" d="M0,68.361l0,-47.526c-0,-1.106 0.439,-2.166 1.221,-2.948c0.781,-0.781 1.842,-1.22 2.947,-1.22l1.593,-0c1.577,-0 3.018,-0.891 3.723,-2.301l1.961,-3.923c0.647,-1.293 1.968,-2.11 3.413,-2.11l15.979,0c1.53,0 2.928,0.865 3.613,2.233l1.792,3.584c0.771,1.542 2.347,2.517 4.072,2.517l30.512,-0c1.107,-0 2.168,0.44 2.949,1.222c0.782,0.783 1.221,1.845 1.219,2.951l-0.023,16.66l-57.828,-0c-1.616,0 -3.086,0.934 -3.773,2.396l-13.37,28.465Zm17.57,-20.03c0.663,-1.517 2.162,-2.498 3.818,-2.498l70.191,0l-13.491,30.836c-0.664,1.517 -2.163,2.498 -3.818,2.498l-63.819,-0c-1.406,-0 -2.718,-0.71 -3.488,-1.887c-0.769,-1.177 -0.894,-2.663 -0.33,-3.952l10.937,-24.997Z" style="fill:#3a3e46;"/></g></svg>