<?xml version="1.0" encoding="UTF-8" standalone="no"?><!DOCTYPE svg PUBLIC "-//W3C//DTD SVG 1.1//EN" "http://www.w3.org/Graphics/SVG/1.1/DTD/svg11.dtd"><svg width="75px" height="92px" version="1.1" xmlns="http://www.w3.org/2000/svg" xmlns:xlink="http://www.w3.org/1999/xlink" xml:space="preserve" xmlns:serif="http://www.serif.com/" style="fill-rule:evenodd;clip-rule:evenodd;stroke-linejoin:round;stroke-miterlimit:2;"><g transform="matrix(4.16667,0,0,4.16667,-4033.33,-320.833)"><g id="ll-icon-flag-checkered" transform="matrix(1,0,0,1,-88,-1221)"><path d="M1058,1298C1058.55,1298 1059,1298.45 1059,1299L1059,1301C1059,1300.45 1059.45,1300 1060,1300L1065,1300C1065.55,1300 1066,1300.45 1066,1301L1073,1301C1073.12,1301 1073.23,1301.02 1073.34,1301.06C1073.72,1301.2 1074,1301.57 1074,1302L1074,1311C1074,1311.43 1073.72,1311.8 1073.34,1311.94C1073.23,1311.98 1073.12,1312 1073,1312L1066,1312C1065.45,1312 1065,1311.55 1065,1311L1060,1311C1059.45,1311 1059,1310.55 1059,1310L1059,1319C1059,1319.55 1058.55,1320 1058,1320L1057,1320C1056.45,1320 1056,1319.55 1056,1319L1056,1299C1056,1298.45 1056.45,1298 1057,1298L1058,1298ZM1068,1307.5L1068,1304.5L1071,1304.5L1071,1303L1068,1303L1068,1304.5L1065,1304.5L1065,1307L1062,1307L1062,1304L1065,1304L1065,1302C1065,1302 1062,1302 1062,1302L1062,1304L1059,1304L1059,1307L1062,1307L1062,1309L1065,1309C1065,1309 1065,1307.5 1065,1307.5L1068,1307.5L1068,1310L1071,1310L1071,1307.5L1072,1307.5L1072,1304.5L1071,1304.5L1071,1307.5L1068,1307.5Z" style="fill:rgb(58,62,70);"/></g></g></svg>