<?xml version="1.0" encoding="UTF-8" standalone="no"?><!DOCTYPE svg PUBLIC "-//W3C//DTD SVG 1.1//EN" "http://www.w3.org/Graphics/SVG/1.1/DTD/svg11.dtd"><svg width="92px" height="92px" version="1.1" xmlns="http://www.w3.org/2000/svg" xmlns:xlink="http://www.w3.org/1999/xlink" xml:space="preserve" xmlns:serif="http://www.serif.com/" style="fill-rule:evenodd;clip-rule:evenodd;stroke-linejoin:round;stroke-miterlimit:2;"><g transform="matrix(4.16667,0,0,4.16667,-3391.67,-116.667)"><g id="ll-icon-group" transform="matrix(1,0,0,1,440,-1050)"><path d="M378,1100C378.491,1100 392,1100 392,1100C391.993,1097.92 391.363,1095.68 387.079,1095.87C386.897,1095.88 386.75,1095.86 386.75,1095.68L386.75,1094.64C388.034,1094 388.195,1093.69 388.818,1091.9C388.875,1091.74 388.818,1090.65 388.818,1090.45C388.818,1087.74 387.227,1086 385.007,1086C382.786,1086 381.197,1087.49 381.182,1090.45C381.181,1090.65 381.147,1091.59 381.182,1091.76C381.548,1093.54 381.928,1094.1 383.25,1094.72L383.25,1095.71C383.25,1095.88 383.104,1095.9 382.921,1095.9C378.974,1095.79 378.104,1097.76 378,1100ZM396,1095L388.811,1095C389.645,1094.18 390.177,1093.06 390.202,1091.88C390.256,1089.36 389.433,1086.94 387.878,1085.61C388.37,1084.54 389.324,1084 390.505,1084C392.25,1084 393.5,1085.36 393.5,1087.5C393.5,1087.65 393.545,1088.51 393.5,1088.64C393.011,1090.04 392.884,1090.28 391.875,1090.79L391.875,1091.61C391.875,1091.75 391.991,1091.76 392.134,1091.76C395.487,1091.61 395.991,1093.36 396,1095ZM380.411,1094L374,1094C374.082,1092.24 374.766,1090.69 377.867,1090.78C378.01,1090.78 378.125,1090.77 378.125,1090.63L378.125,1089.85C377.086,1089.36 376.788,1088.93 376.5,1087.53C376.472,1087.39 376.499,1086.65 376.5,1086.5C376.512,1084.17 377.76,1083 379.505,1083C380.9,1083 381.979,1083.87 382.35,1085.31C381.209,1086.03 380.36,1087.19 380.049,1088.5C379.622,1090.3 379.613,1092.4 380.411,1094ZM383.477,1084.77C382.556,1084.32 382.274,1083.86 382,1082.53C381.972,1082.39 381.999,1081.65 382,1081.5C382.012,1079.17 383.26,1078 385.005,1078C386.75,1078 388,1079.36 388,1081.5C388,1081.65 388.045,1082.51 388,1082.64C387.52,1084.01 387.389,1084.27 386.431,1084.76C386.033,1084.62 385.605,1084.54 385.149,1084.52C385.011,1084.52 385.011,1084.52 384.873,1084.52C384.389,1084.54 383.92,1084.62 383.477,1084.77Z" style="fill:rgb(58,62,70);"/></g></g></svg>