<?xml version="1.0" encoding="UTF-8" standalone="no"?><!DOCTYPE svg PUBLIC "-//W3C//DTD SVG 1.1//EN" "http://www.w3.org/Graphics/SVG/1.1/DTD/svg11.dtd"><svg width="92px" height="92px" version="1.1" xmlns="http://www.w3.org/2000/svg" xmlns:xlink="http://www.w3.org/1999/xlink" xml:space="preserve" xmlns:serif="http://www.serif.com/" style="fill-rule:evenodd;clip-rule:evenodd;stroke-linejoin:round;stroke-miterlimit:2;"><g transform="matrix(4.16667,0,0,4.16667,-5133.33,-116.667)"><g id="ll-icon-gauge"><g transform="matrix(-0.866025,-0.5,0.5,-0.866025,2297.35,703.97)"><g transform="matrix(1,0,0,1.5724,1202.1,-1821.74)"><path d="M43.787,1186.18C44.215,1187.2 43.265,1188.25 41.665,1188.52C40.066,1188.79 38.42,1188.19 37.991,1187.17C37.562,1186.15 38.513,1185.11 40.112,1184.83C41.712,1184.56 43.358,1185.17 43.787,1186.18Z" style="fill:rgb(58,62,70);"/></g><g transform="matrix(0.333333,1.11022e-16,-4.996e-16,0.785454,-191.193,-1036.45)"><path d="M4307,1376.37C4307,1375.67 4305.66,1375.1 4304,1375.1C4303.03,1375.1 4301.97,1375.1 4301,1375.1C4299.34,1375.1 4298,1375.67 4298,1376.37C4298,1378.11 4298,1381 4298,1381L4302.16,1387.6L4307,1381L4307,1376.37Z" style="fill:rgb(58,62,70);"/></g></g><g transform="matrix(1,0,0,1,1082.1,-1324.8)"><path d="M170.254,1369.7C170.519,1369.8 170.811,1369.78 171.06,1369.65C171.309,1369.52 171.492,1369.29 171.564,1369.02C171.785,1368.13 171.9,1367.22 171.9,1366.3C171.9,1362.04 169.442,1358.19 165.653,1356.38C165.403,1356.27 165.117,1356.26 164.864,1356.37C164.611,1356.48 164.414,1356.68 164.32,1356.94C164.22,1357.18 164.126,1357.44 164.04,1357.67C163.863,1358.16 164.088,1358.7 164.558,1358.92C167.349,1360.29 169.15,1363.14 169.15,1366.3C169.15,1366.96 169.07,1367.62 168.914,1368.26C168.789,1368.76 169.059,1369.26 169.538,1369.44C169.768,1369.53 170.018,1369.62 170.254,1369.7Z" style="fill:rgb(58,62,70);"/></g><g transform="matrix(1,0,0,1,1082.1,-1324.8)"><path d="M162.628,1356.5C162.677,1356.22 162.606,1355.93 162.432,1355.71C162.259,1355.49 161.998,1355.35 161.716,1355.33C161.444,1355.31 161.172,1355.3 160.9,1355.3C157.332,1355.3 154.009,1357.03 151.957,1359.89C151.802,1360.12 151.748,1360.4 151.809,1360.67C151.87,1360.94 152.04,1361.17 152.278,1361.31C152.494,1361.45 152.731,1361.58 152.948,1361.71C153.397,1361.97 153.969,1361.84 154.266,1361.42C155.799,1359.31 158.26,1358.05 160.9,1358.05C161.083,1358.05 161.266,1358.06 161.448,1358.07C161.956,1358.1 162.407,1357.75 162.495,1357.25C162.539,1357.01 162.585,1356.75 162.628,1356.5Z" style="fill:rgb(58,62,70);"/></g><g transform="matrix(1,0,0,1,1082.1,-1324.8)"><path d="M151.546,1362.89C151.281,1362.8 150.989,1362.82 150.74,1362.95C150.491,1363.08 150.308,1363.31 150.236,1363.58C150.015,1364.47 149.9,1365.38 149.9,1366.3C149.9,1367.22 150.015,1368.13 150.241,1369.02C150.313,1369.29 150.494,1369.52 150.742,1369.65C150.99,1369.78 151.281,1369.8 151.544,1369.7C151.782,1369.62 152.032,1369.53 152.264,1369.44C152.745,1369.27 153.016,1368.76 152.891,1368.26C152.73,1367.62 152.65,1366.96 152.65,1366.3C152.65,1365.64 152.73,1364.98 152.886,1364.34C153.011,1363.85 152.741,1363.34 152.262,1363.16C152.032,1363.07 151.782,1362.98 151.546,1362.89Z" style="fill:rgb(58,62,70);"/></g></g></g></svg>