<?xml version="1.0" encoding="UTF-8" standalone="no"?><!DOCTYPE svg PUBLIC "-//W3C//DTD SVG 1.1//EN" "http://www.w3.org/Graphics/SVG/1.1/DTD/svg11.dtd"><svg width="92px" height="92px" version="1.1" xmlns="http://www.w3.org/2000/svg" xmlns:xlink="http://www.w3.org/1999/xlink" xml:space="preserve" xmlns:serif="http://www.serif.com/" style="fill-rule:evenodd;clip-rule:evenodd;stroke-linejoin:round;stroke-miterlimit:2;"><g transform="matrix(4.16667,0,0,4.16667,-3987.5,-320.833)"><path id="ll-icon-globe" d="M968,77C974.071,77 979,81.929 979,88C979,94.071 974.071,99 968,99C961.929,99 957,94.071 957,88C957,81.929 961.929,77 968,77ZM969.552,91.672C968.618,91.5 967.891,91.5 967.786,91.5C967.703,91.5 967.086,91.5 966.261,91.633C966.445,93.088 966.741,94.528 967.154,95.955C967.432,95.985 967.714,96 968,96C968.288,96 968.573,95.985 968.853,95.954C969.175,94.54 969.407,93.112 969.552,91.672ZM973.2,94.076C973.284,94.004 973.367,93.93 973.448,93.854L973.114,93.437C972.917,93.191 972.691,92.979 972.445,92.797C972.416,93.029 972.386,93.262 972.352,93.494L972.352,93.494C972.303,93.846 972.249,94.197 972.188,94.547L972.189,94.547L972.138,94.846C972.48,94.639 972.806,94.407 973.111,94.151L973.114,94.15L973.201,94.076L973.2,94.076ZM963.516,93.532C963.461,93.232 963.413,92.931 963.369,92.631C963.029,92.848 962.717,93.113 962.457,93.437L962.31,93.62C962.459,93.771 962.614,93.916 962.775,94.054L962.774,94.055L962.811,94.085C962.875,94.14 962.94,94.194 963.005,94.247L963.025,94.263L963.028,94.264C963.262,94.451 963.507,94.624 963.762,94.783L963.72,94.58L963.72,94.58C963.645,94.231 963.577,93.881 963.516,93.531L963.516,93.532ZM972.703,86.333C972.746,87.397 972.748,88.456 972.707,89.508C973.649,89.932 974.552,90.526 975.269,91.339C975.593,90.638 975.818,89.881 975.924,89.088L975.921,89.09L975.059,87.863C974.547,87.135 973.656,86.674 972.703,86.333ZM963.076,86.248L962.99,86.277C961.993,86.625 961.048,87.099 960.514,87.861L960.022,88.563C960.082,89.431 960.281,90.26 960.597,91.03C961.311,90.323 962.174,89.8 963.064,89.426C963.016,88.373 963.021,87.314 963.076,86.248ZM969.665,85.636C968.908,85.538 968.242,85.503 967.777,85.5C967.362,85.498 966.784,85.523 966.126,85.598C966.047,86.616 966.017,87.628 966.04,88.634C966.993,88.5 967.686,88.5 967.786,88.5C967.909,88.5 968.688,88.5 969.729,88.66C969.748,87.658 969.726,86.65 969.665,85.636ZM972.193,81.189C972.295,81.835 972.382,82.478 972.456,83.12C972.831,83.217 973.205,83.329 973.572,83.456C974.049,83.622 974.511,83.816 974.948,84.039C974.283,82.874 973.334,81.892 972.193,81.189ZM963.694,81.261C962.699,81.897 961.855,82.747 961.227,83.747C961.479,83.637 961.737,83.537 962,83.445C962.457,83.285 962.926,83.15 963.393,83.038C963.478,82.447 963.578,81.855 963.694,81.261ZM968.95,80.058C968.638,80.019 968.321,80 968,80C967.671,80 967.347,80.02 967.028,80.061C966.824,80.895 966.65,81.725 966.507,82.552C967.008,82.512 967.448,82.498 967.794,82.5C968.205,82.502 968.747,82.527 969.366,82.588C969.254,81.749 969.115,80.905 968.95,80.058Z" style="fill:rgb(58,62,70);"/></g></svg>