<?xml version="1.0" encoding="UTF-8" standalone="no"?><!DOCTYPE svg PUBLIC "-//W3C//DTD SVG 1.1//EN" "http://www.w3.org/Graphics/SVG/1.1/DTD/svg11.dtd"><svg width="75px" height="92px" version="1.1" xmlns="http://www.w3.org/2000/svg" xmlns:xlink="http://www.w3.org/1999/xlink" xml:space="preserve" xmlns:serif="http://www.serif.com/" style="fill-rule:evenodd;clip-rule:evenodd;stroke-linejoin:round;stroke-miterlimit:2;"><g transform="matrix(4.16667,0,0,4.16667,-4958.33,-116.667)"><g id="ll-icon-hourglass" transform="matrix(1,0,0,1.04235,680,-1392.47)"><path d="M512.358,1369.4L510.293,1367.41C510.083,1367.21 509.986,1366.94 510.002,1366.68C510.001,1366.66 510,1366.64 510,1366.62L510,1363.74C510,1363.21 510.448,1362.79 511,1362.79L527,1362.79C527.552,1362.79 528,1363.21 528,1363.74L528,1366.54C528.025,1366.81 527.929,1367.09 527.711,1367.3L523,1371.82L523,1371.83L522.109,1372.68C521.719,1373.06 521.719,1373.66 522.109,1374.04L525.345,1377.14C525.418,1377.21 525.5,1377.27 525.588,1377.32L527.711,1379.35C527.929,1379.56 528.025,1379.84 528,1380.12L528,1382.91C528,1383.44 527.552,1383.87 527,1383.87L511,1383.87L510.949,1383.87C510.42,1383.84 510,1383.42 510,1382.91L510,1380.03C510,1380.01 510.001,1379.99 510.002,1379.97C509.986,1379.71 510.083,1379.44 510.293,1379.24L512.474,1377.14C512.494,1377.13 512.513,1377.11 512.531,1377.09L515.767,1373.99C516.158,1373.62 516.158,1373.01 515.767,1372.63L512.531,1369.53C512.478,1369.48 512.42,1369.43 512.358,1369.4ZM520,1372.01L522.386,1369.72C522.714,1369.4 522.766,1368.92 522.542,1368.56L515.327,1368.56C515.103,1368.92 515.155,1369.4 515.483,1369.72L518,1372.13L518,1375.23L514,1379.07C513.61,1379.44 513.61,1380.05 514,1380.43L514.512,1380.92L523.488,1380.92L524,1380.43C524.39,1380.05 524.39,1379.44 524,1379.07L520,1375.23L520,1372.01Z" style="fill:rgb(58,62,70);"/></g></g></svg>