<?xml version="1.0" encoding="UTF-8" standalone="no"?><!DOCTYPE svg PUBLIC "-//W3C//DTD SVG 1.1//EN" "http://www.w3.org/Graphics/SVG/1.1/DTD/svg11.dtd"><svg width="96px" height="92px" version="1.1" xmlns="http://www.w3.org/2000/svg" xmlns:xlink="http://www.w3.org/1999/xlink" xml:space="preserve" xmlns:serif="http://www.serif.com/" style="fill-rule:evenodd;clip-rule:evenodd;stroke-linejoin:round;stroke-miterlimit:2;"><g id="ll-icon-history"><path d="M48.579,0.003l0.04,0.001l0.542,0.01l0.04,0.001l0.541,0.017l0.04,0.002l0.54,0.024l0.039,0.002l0.538,0.031l0.04,0.002l0.536,0.038l0.039,0.003l0.535,0.044l0.039,0.003l0.533,0.051l0.039,0.004l0.531,0.057l0.039,0.005l0.529,0.064l0.039,0.005l0.527,0.07l0.039,0.006l0.525,0.077l0.039,0.006l0.522,0.083l0.039,0.006l0.521,0.09l0.039,0.007l0.518,0.096l0.038,0.007l0.516,0.103l0.039,0.008l0.514,0.108l0.038,0.009l0.512,0.115l0.038,0.008l0.51,0.121l0.038,0.01l0.507,0.127l0.037,0.01l0.505,0.133l0.038,0.01l0.502,0.14l0.037,0.01l0.5,0.145l0.037,0.012l0.497,0.151l0.036,0.011l0.495,0.158l0.037,0.012l0.492,0.163l0.037,0.012l0.489,0.169l0.036,0.013l0.486,0.175l0.037,0.013l0.483,0.181l0.036,0.013l0.481,0.187l0.035,0.014l0.478,0.192l0.036,0.014l0.475,0.198l0.036,0.015l0.472,0.203l0.034,0.015l0.469,0.209l0.035,0.016l0.466,0.214l0.035,0.017l0.463,0.219l0.034,0.017l0.46,0.225l0.034,0.017l0.457,0.231l0.033,0.017l0.453,0.235l0.033,0.018l0.451,0.241l0.034,0.018l0.447,0.247l0.033,0.019l0.443,0.251l0.033,0.019l0.44,0.256l0.032,0.02l0.437,0.262l0.032,0.019l0.434,0.267l0.033,0.021l0.429,0.272l0.031,0.019l0.426,0.277l0.032,0.021l0.423,0.282l0.031,0.021l0.419,0.287l0.03,0.021l0.416,0.292l0.031,0.022l0.412,0.297l0.03,0.022l0.408,0.301l0.029,0.022l0.404,0.306l0.031,0.024l0.401,0.311l0.029,0.023l0.396,0.315l0.028,0.023l0.393,0.32l0.03,0.025l0.389,0.325l0.028,0.024l0.385,0.329l0.028,0.024l0.38,0.334l0.028,0.024l0.377,0.339l0.027,0.025l0.373,0.343l0.027,0.025l0.368,0.347l0.027,0.025l0.365,0.352l0.027,0.027l0.36,0.356l0.025,0.025l0.356,0.36l0.027,0.027l0.352,0.365l0.026,0.027l0.347,0.369l0.024,0.026l0.343,0.372l0.024,0.027l0.339,0.377l0.025,0.029l0.334,0.381l0.025,0.028l0.329,0.385l0.024,0.028l0.325,0.389l0.024,0.029l0.32,0.393l0.023,0.028l0.315,0.397l0.024,0.029l0.31,0.4l0.022,0.029l0.307,0.404l0.023,0.031l0.301,0.409l0.022,0.03l0.297,0.412l0.022,0.031l0.292,0.415l0.021,0.031l0.286,0.418l0.021,0.03l0.282,0.423l0.022,0.033l0.277,0.427l0.02,0.032l0.272,0.429l0.019,0.03l0.267,0.433l0.02,0.033l0.263,0.438l0.019,0.033l0.257,0.44l0.018,0.032l0.252,0.443l0.018,0.034l0.247,0.447l0.018,0.033l0.241,0.45l0.018,0.034l0.235,0.453l0.017,0.033l0.231,0.457l0.017,0.035l0.225,0.46l0.017,0.033l0.219,0.463l0.017,0.035l0.214,0.466l0.016,0.035l0.209,0.469l0.015,0.035l0.203,0.472l0.015,0.035l0.197,0.474l0.015,0.035l0.192,0.478l0.014,0.037l0.187,0.481l0.014,0.036l0.18,0.484l0.014,0.037l0.174,0.486l0.012,0.034l0.169,0.489l0.013,0.038l0.164,0.492l0.011,0.037l0.158,0.494l0.011,0.038l0.152,0.497l0.01,0.036l0.146,0.5l0.011,0.037l0.139,0.503l0.01,0.037l0.133,0.505l0.01,0.038l0.127,0.506l0.009,0.038l0.122,0.51l0.009,0.038l0.114,0.512l0.009,0.038l0.108,0.513l0.008,0.039l0.103,0.517l0.007,0.039l0.096,0.518l0.007,0.039l0.09,0.52l0.006,0.039l0.083,0.522l0.006,0.038l0.077,0.525l0.006,0.04l0.07,0.527l0.005,0.04l0.064,0.528l0.005,0.038l0.057,0.531l0.004,0.041l0.051,0.533l0.003,0.039l0.044,0.535l0.003,0.039l0.038,0.535l0.002,0.039l0.031,0.538l0.002,0.04l0.024,0.54l0.002,0.04l0.017,0.541l0.001,0.04l0.01,0.543l0.001,0.04l0.003,0.544l0,0.039l-0.003,0.544l-0.001,0.04l-0.01,0.543l-0.001,0.039l-0.017,0.542l-0.002,0.04l-0.024,0.54l-0.002,0.04l-0.031,0.538l-0.002,0.039l-0.038,0.535l-0.003,0.039l-0.044,0.534l-0.003,0.039l-0.051,0.534l-0.004,0.04l-0.057,0.531l-0.005,0.038l-0.064,0.529l-0.005,0.039l-0.07,0.528l-0.006,0.04l-0.077,0.524l-0.006,0.039l-0.083,0.522l-0.006,0.039l-0.09,0.52l-0.007,0.039l-0.096,0.518l-0.007,0.039l-0.103,0.516l-0.008,0.039l-0.108,0.514l-0.009,0.037l-0.114,0.512l-0.009,0.039l-0.122,0.51l-0.009,0.037l-0.127,0.507l-0.01,0.038l-0.133,0.504l-0.01,0.038l-0.139,0.502l-0.011,0.038l-0.146,0.499l-0.01,0.037l-0.152,0.497l-0.011,0.037l-0.158,0.495l-0.011,0.036l-0.164,0.492l-0.013,0.038l-0.169,0.489l-0.012,0.035l-0.175,0.486l-0.013,0.036l-0.18,0.484l-0.014,0.037l-0.187,0.481l-0.014,0.036l-0.192,0.478l-0.015,0.035l-0.197,0.475l-0.015,0.035l-0.203,0.472l-0.015,0.035l-0.209,0.469l-0.016,0.035l-0.214,0.466l-0.017,0.035l-0.219,0.463l-0.017,0.033l-0.225,0.46l-0.017,0.035l-0.231,0.456l-0.017,0.034l-0.235,0.453l-0.018,0.034l-0.241,0.45l-0.018,0.033l-0.247,0.447l-0.018,0.033l-0.252,0.444l-0.018,0.032l-0.257,0.44l-0.019,0.033l-0.263,0.437l-0.02,0.033l-0.267,0.433l-0.019,0.031l-0.272,0.429l-0.02,0.032l-0.277,0.427l-0.022,0.032l-0.282,0.423l-0.021,0.031l-0.286,0.418l-0.021,0.03l-0.292,0.416l-0.022,0.031l-0.297,0.412l-0.022,0.03l-0.301,0.409l-0.023,0.03l-0.307,0.405l-0.022,0.028l-0.31,0.401l-0.024,0.029l-0.315,0.397l-0.023,0.028l-0.32,0.393l-0.024,0.029l-0.325,0.389l-0.024,0.028l-0.329,0.385l-0.025,0.028l-0.334,0.381l-0.025,0.029l-0.339,0.376l-0.024,0.027l-0.343,0.372l-0.024,0.027l-0.347,0.368l-0.026,0.028l-0.352,0.365l-0.027,0.027l-0.356,0.36l-0.025,0.025l-0.36,0.356l-0.027,0.026l-0.365,0.352l-0.027,0.026l-0.368,0.347l-0.027,0.025l-0.372,0.342l-0.028,0.026l-0.377,0.338l-0.028,0.025l-0.38,0.333l-0.028,0.025l-0.385,0.329l-0.028,0.024l-0.389,0.325l-0.03,0.024l-0.393,0.321l-0.028,0.023l-0.396,0.315l-0.029,0.023l-0.401,0.311l-0.031,0.023l-0.404,0.307l-0.029,0.021l-0.408,0.301l-0.03,0.022l-0.412,0.297l-0.031,0.023l-0.416,0.291l-0.03,0.021l-0.419,0.287l-0.031,0.021l-0.423,0.283l-0.032,0.021l-0.426,0.276l-0.031,0.02l-0.429,0.272l-0.033,0.02l-0.434,0.268l-0.032,0.019l-0.437,0.262l-0.032,0.019l-0.44,0.257l-0.033,0.019l-0.443,0.251l-0.033,0.019l-0.448,0.246l-0.033,0.019l-0.451,0.241l-0.033,0.018l-0.453,0.235l-0.033,0.017l-0.457,0.231l-0.034,0.017l-0.46,0.225l-0.034,0.016l-0.463,0.22l-0.035,0.016l-0.466,0.215l-0.035,0.016l-0.469,0.208l-0.034,0.015l-0.472,0.203l-0.036,0.016l-0.475,0.197l-0.036,0.015l-0.478,0.192l-0.035,0.014l-0.481,0.186l-0.036,0.014l-0.483,0.18l-0.037,0.014l-0.486,0.175l-0.036,0.012l-0.489,0.169l-0.037,0.013l-0.492,0.163l-0.037,0.012l-0.495,0.157l-0.036,0.012l-0.497,0.151l-0.037,0.011l-0.5,0.146l-0.037,0.01l-0.502,0.14l-0.038,0.01l-0.505,0.133l-0.037,0.01l-0.507,0.127l-0.038,0.009l-0.51,0.121l-0.038,0.009l-0.512,0.115l-0.038,0.008l-0.514,0.109l-0.039,0.008l-0.516,0.102l-0.038,0.008l-0.518,0.096l-0.039,0.007l-0.521,0.089l-0.039,0.007l-0.522,0.083l-0.039,0.006l-0.525,0.077l-0.039,0.006l-0.527,0.07l-0.039,0.005l-0.529,0.064l-0.039,0.004l-0.531,0.058l-0.039,0.004l-0.533,0.05l-0.039,0.004l-0.535,0.044l-0.039,0.003l-0.537,0.038l-0.039,0.002l-0.538,0.031l-0.039,0.002l-0.54,0.024l-0.04,0.001l-0.541,0.017l-0.04,0.001l-0.542,0.011l-0.04,0l-0.548,0.004l-0.047,0l-0.73,-0.007l-0.053,0l-0.731,-0.019l-0.053,-0.002l-0.728,-0.031l-0.053,-0.003l-0.725,-0.043l-0.053,-0.004l-0.722,-0.056l-0.053,-0.004l-0.718,-0.068l-0.053,-0.005l-0.715,-0.08l-0.053,-0.006l-0.711,-0.092l-0.053,-0.007l-0.707,-0.103l-0.053,-0.008l-0.704,-0.115l-0.052,-0.009l-0.7,-0.127l-0.052,-0.01l-0.696,-0.138l-0.052,-0.011l-0.692,-0.149l-0.051,-0.012l-0.688,-0.16l-0.051,-0.013l-0.683,-0.172l-0.051,-0.013l-0.679,-0.183l-0.05,-0.014l-0.675,-0.194l-0.05,-0.015l-0.67,-0.205l-0.05,-0.015l-0.665,-0.216l-0.049,-0.016l-0.661,-0.227l-0.049,-0.017l-0.655,-0.237l-0.048,-0.017l-0.65,-0.248l-0.049,-0.019l-0.645,-0.257l-0.047,-0.02l-0.64,-0.267l-0.047,-0.021l-0.635,-0.278l-0.047,-0.021l-0.629,-0.288l-0.046,-0.022l-0.623,-0.297l-0.046,-0.023l-0.618,-0.308l-0.046,-0.023l-0.611,-0.317l-0.045,-0.024l-0.606,-0.327l-0.044,-0.025l-0.6,-0.336l-0.045,-0.026l-0.593,-0.346l-0.044,-0.026l-0.587,-0.355l-0.044,-0.027l-0.581,-0.364l-0.042,-0.027l-0.575,-0.374l-0.043,-0.028l-0.567,-0.383l-0.042,-0.028l-0.561,-0.391l-0.042,-0.03l-0.555,-0.4l-0.041,-0.03l-0.548,-0.409l-0.04,-0.03l-0.541,-0.418l-0.039,-0.031l-0.534,-0.426l-0.039,-0.031l-0.527,-0.435l-0.039,-0.032l-0.52,-0.443l-0.039,-0.034l-0.512,-0.451l-0.037,-0.033l-0.504,-0.458l-0.037,-0.034l-0.498,-0.467l-0.037,-0.036l-0.49,-0.475l-0.035,-0.034l-0.482,-0.483l-0.036,-0.036l-0.475,-0.491l-0.034,-0.036l-0.466,-0.497l-0.034,-0.037l-0.459,-0.506l-0.034,-0.038l-0.451,-0.513l-0.032,-0.037l-0.442,-0.52l-0.032,-0.039l-0.435,-0.528l-0.031,-0.039l-0.426,-0.534l-0.031,-0.04l-0.417,-0.541l-0.03,-0.041l-0.409,-0.548l-0.03,-0.041l-0.399,-0.555l-0.029,-0.041l-0.391,-0.562l-0.029,-0.041l-0.382,-0.569l-0.029,-0.043l-0.373,-0.575l-0.027,-0.043l-0.363,-0.581l-0.027,-0.043l-0.355,-0.588l-0.025,-0.043l-0.333,-0.572l-0.206,-0.384l-0.179,-0.398l-0.15,-0.41l-0.122,-0.418l-0.092,-0.427l-0.062,-0.432l-0.032,-0.435l-0.002,-0.436l0.029,-0.435l0.06,-0.432l0.089,-0.427l0.119,-0.42l0.147,-0.411l0.177,-0.399l0.203,-0.386l0.23,-0.37l0.255,-0.354l0.28,-0.335l0.302,-0.315l0.323,-0.293l0.343,-0.27l0.36,-0.245l0.378,-0.219l0.391,-0.193l0.404,-0.165l0.414,-0.136l0.423,-0.107l0.43,-0.077l0.433,-0.047l0.436,-0.017l0.436,0.014l0.434,0.044l0.43,0.075l0.424,0.104l0.415,0.133l0.405,0.162l0.393,0.19l0.378,0.217l0.363,0.243l0.345,0.267l0.325,0.291l0.304,0.313l0.281,0.333l0.258,0.352l0.232,0.369l0.295,0.507l0.276,0.457l0.284,0.453l0.29,0.447l0.297,0.442l0.305,0.438l0.311,0.433l0.318,0.427l0.325,0.422l0.332,0.416l0.337,0.411l0.346,0.405l0.35,0.4l0.357,0.393l0.365,0.389l0.369,0.382l0.376,0.376l0.382,0.371l0.387,0.363l0.395,0.359l0.399,0.351l0.405,0.344l0.41,0.339l0.417,0.332l0.422,0.326l0.426,0.318l0.432,0.311l0.437,0.305l0.443,0.298l0.447,0.291l0.452,0.284l0.457,0.276l0.461,0.269l0.467,0.262l0.471,0.254l0.476,0.247l0.479,0.239l0.485,0.232l0.488,0.223l0.492,0.216l0.498,0.208l0.5,0.2l0.505,0.192l0.509,0.184l0.512,0.175l0.516,0.168l0.52,0.159l0.523,0.15l0.528,0.142l0.53,0.134l0.534,0.124l0.537,0.116l0.541,0.108l0.543,0.098l0.547,0.089l0.55,0.081l0.554,0.071l0.556,0.062l0.559,0.053l0.562,0.043l0.565,0.034l0.568,0.024l0.57,0.015l0.581,0.005l0.418,-0.003l0.424,-0.008l0.423,-0.014l0.421,-0.018l0.419,-0.024l0.418,-0.029l0.416,-0.035l0.415,-0.039l0.413,-0.045l0.411,-0.05l0.41,-0.054l0.408,-0.06l0.406,-0.065l0.405,-0.07l0.402,-0.074l0.402,-0.08l0.399,-0.084l0.397,-0.089l0.395,-0.094l0.394,-0.099l0.391,-0.104l0.39,-0.108l0.388,-0.113l0.386,-0.117l0.384,-0.122l0.381,-0.127l0.38,-0.131l0.378,-0.136l0.375,-0.14l0.374,-0.145l0.371,-0.149l0.368,-0.153l0.367,-0.158l0.365,-0.162l0.361,-0.167l0.36,-0.17l0.357,-0.175l0.355,-0.179l0.353,-0.184l0.35,-0.188l0.347,-0.191l0.345,-0.196l0.343,-0.2l0.339,-0.203l0.337,-0.208l0.335,-0.212l0.332,-0.216l0.329,-0.219l0.326,-0.223l0.324,-0.227l0.32,-0.231l0.318,-0.236l0.315,-0.238l0.311,-0.241l0.31,-0.247l0.306,-0.249l0.302,-0.253l0.3,-0.257l0.297,-0.26l0.294,-0.264l0.29,-0.267l0.288,-0.271l0.283,-0.273l0.281,-0.277l0.277,-0.282l0.273,-0.282l0.271,-0.288l0.268,-0.291l0.264,-0.294l0.259,-0.296l0.257,-0.3l0.253,-0.302l0.249,-0.306l0.246,-0.31l0.243,-0.312l0.239,-0.315l0.234,-0.317l0.231,-0.32l0.227,-0.324l0.224,-0.327l0.219,-0.329l0.215,-0.33l0.212,-0.336l0.209,-0.338l0.203,-0.338l0.199,-0.343l0.196,-0.345l0.192,-0.347l0.187,-0.351l0.184,-0.352l0.179,-0.355l0.175,-0.357l0.171,-0.36l0.166,-0.362l0.162,-0.364l0.158,-0.367l0.154,-0.37l0.149,-0.371l0.144,-0.372l0.14,-0.375l0.136,-0.379l0.132,-0.379l0.126,-0.381l0.122,-0.384l0.117,-0.386l0.114,-0.388l0.108,-0.39l0.103,-0.391l0.099,-0.394l0.094,-0.395l0.089,-0.398l0.085,-0.399l0.079,-0.401l0.075,-0.402l0.069,-0.405l0.065,-0.407l0.06,-0.408l0.055,-0.409l0.049,-0.412l0.045,-0.413l0.039,-0.413l0.035,-0.417l0.029,-0.419l0.024,-0.419l0.019,-0.421l0.013,-0.422l0.008,-0.424l0.003,-0.426l-0.003,-0.426l-0.008,-0.424l-0.013,-0.422l-0.019,-0.42l-0.024,-0.419l-0.029,-0.419l-0.035,-0.417l-0.039,-0.414l-0.045,-0.412l-0.049,-0.413l-0.055,-0.408l-0.06,-0.408l-0.065,-0.407l-0.069,-0.405l-0.075,-0.403l-0.079,-0.4l-0.085,-0.4l-0.089,-0.397l-0.094,-0.395l-0.099,-0.394l-0.103,-0.392l-0.108,-0.389l-0.114,-0.388l-0.117,-0.386l-0.122,-0.384l-0.126,-0.381l-0.132,-0.38l-0.136,-0.379l-0.14,-0.374l-0.144,-0.372l-0.149,-0.371l-0.154,-0.37l-0.158,-0.367l-0.162,-0.364l-0.166,-0.362l-0.171,-0.36l-0.175,-0.357l-0.179,-0.355l-0.184,-0.353l-0.187,-0.35l-0.192,-0.347l-0.196,-0.346l-0.199,-0.342l-0.203,-0.338l-0.209,-0.338l-0.212,-0.336l-0.215,-0.331l-0.219,-0.328l-0.224,-0.328l-0.227,-0.323l-0.231,-0.32l-0.234,-0.317l-0.239,-0.315l-0.243,-0.313l-0.246,-0.309l-0.249,-0.306l-0.253,-0.303l-0.257,-0.3l-0.259,-0.296l-0.264,-0.293l-0.268,-0.292l-0.271,-0.287l-0.273,-0.283l-0.277,-0.281l-0.281,-0.277l-0.283,-0.273l-0.288,-0.271l-0.29,-0.268l-0.294,-0.263l-0.297,-0.261l-0.3,-0.257l-0.302,-0.252l-0.306,-0.249l-0.31,-0.247l-0.311,-0.241l-0.315,-0.239l-0.318,-0.235l-0.32,-0.231l-0.324,-0.227l-0.326,-0.224l-0.329,-0.219l-0.332,-0.216l-0.335,-0.212l-0.337,-0.207l-0.339,-0.204l-0.343,-0.2l-0.345,-0.195l-0.347,-0.192l-0.35,-0.187l-0.353,-0.184l-0.355,-0.179l-0.357,-0.175l-0.36,-0.171l-0.361,-0.166l-0.365,-0.162l-0.367,-0.158l-0.368,-0.153l-0.371,-0.15l-0.374,-0.144l-0.375,-0.14l-0.378,-0.136l-0.38,-0.131l-0.381,-0.127l-0.384,-0.122l-0.386,-0.118l-0.388,-0.113l-0.39,-0.108l-0.391,-0.103l-0.394,-0.099l-0.395,-0.094l-0.397,-0.089l-0.399,-0.084l-0.402,-0.08l-0.402,-0.075l-0.405,-0.069l-0.406,-0.065l-0.408,-0.06l-0.41,-0.055l-0.411,-0.049l-0.413,-0.045l-0.415,-0.04l-0.416,-0.034l-0.418,-0.029l-0.419,-0.024l-0.421,-0.019l-0.423,-0.013l-0.424,-0.008l-0.419,-0.003l-0.57,0.005l-0.562,0.014l-0.558,0.024l-0.556,0.032l-0.553,0.042l-0.55,0.051l-0.547,0.06l-0.545,0.069l-0.541,0.078l-0.539,0.086l-0.535,0.096l-0.533,0.103l-0.529,0.113l-0.526,0.121l-0.522,0.129l-0.52,0.137l-0.515,0.146l-0.512,0.154l-0.51,0.162l-0.505,0.17l-0.501,0.178l-0.498,0.186l-0.494,0.194l-0.49,0.202l-0.486,0.209l-0.482,0.217l-0.478,0.224l-0.474,0.232l-0.47,0.239l-0.465,0.246l-0.461,0.254l-0.457,0.261l-0.452,0.268l-0.447,0.275l-0.443,0.282l-0.438,0.289l-0.433,0.296l-0.428,0.302l-0.423,0.309l-0.418,0.316l-0.413,0.322l-0.407,0.329l-0.403,0.335l-0.396,0.341l-0.391,0.346l-0.386,0.354l-0.381,0.36l-0.374,0.365l-0.368,0.371l-0.363,0.378l-0.357,0.382l-0.35,0.389l-0.345,0.394l-0.338,0.399l-0.331,0.404l-0.326,0.41l-0.32,0.416l-0.312,0.42l-0.306,0.425l-0.299,0.431l-0.293,0.436l-0.285,0.44l-0.279,0.445l-0.298,0.493l-0.239,0.365l-0.264,0.348l-0.287,0.328l-0.309,0.308l-0.33,0.285l-0.349,0.261l-0.367,0.237l-0.382,0.21l-0.396,0.183l-0.408,0.156l-0.417,0.126l-0.426,0.097l-0.431,0.067l-0.434,0.037l-0.437,0.006l-0.435,-0.024l-0.433,-0.055l-0.428,-0.084l-0.421,-0.114l-0.412,-0.144l-0.401,-0.171l-0.388,-0.199l-0.374,-0.226l-0.356,-0.251l-0.338,-0.276l-0.319,-0.298l-0.296,-0.32l-0.274,-0.34l-0.249,-0.358l-0.224,-0.375l-0.196,-0.389l-0.17,-0.402l-0.141,-0.413l-0.111,-0.422l-0.082,-0.428l-0.052,-0.433l-0.022,-0.436l0.009,-0.436l0.04,-0.435l0.069,-0.43l0.099,-0.425l0.129,-0.417l0.158,-0.407l0.185,-0.395l0.213,-0.381l0.336,-0.556l0.026,-0.041l0.358,-0.572l0.027,-0.042l0.367,-0.566l0.028,-0.042l0.375,-0.558l0.028,-0.041l0.384,-0.553l0.029,-0.041l0.393,-0.546l0.03,-0.04l0.401,-0.54l0.03,-0.04l0.41,-0.533l0.029,-0.038l0.418,-0.526l0.032,-0.039l0.426,-0.52l0.031,-0.038l0.434,-0.512l0.033,-0.038l0.442,-0.506l0.033,-0.036l0.449,-0.499l0.034,-0.036l0.458,-0.492l0.034,-0.035l0.465,-0.484l0.034,-0.035l0.473,-0.476l0.035,-0.035l0.481,-0.469l0.035,-0.034l0.488,-0.462l0.036,-0.033l0.494,-0.453l0.037,-0.033l0.502,-0.446l0.038,-0.033l0.509,-0.438l0.038,-0.032l0.516,-0.429l0.038,-0.032l0.523,-0.421l0.039,-0.031l0.53,-0.414l0.039,-0.03l0.537,-0.405l0.039,-0.029l0.544,-0.397l0.04,-0.029l0.55,-0.389l0.041,-0.028l0.556,-0.38l0.041,-0.028l0.563,-0.371l0.042,-0.027l0.569,-0.363l0.042,-0.026l0.575,-0.353l0.043,-0.026l0.581,-0.345l0.043,-0.025l0.587,-0.335l0.044,-0.025l0.592,-0.326l0.045,-0.024l0.598,-0.317l0.045,-0.023l0.604,-0.308l0.045,-0.023l0.61,-0.298l0.046,-0.022l0.615,-0.289l0.046,-0.021l0.621,-0.279l0.046,-0.02l0.626,-0.27l0.047,-0.019l0.631,-0.26l0.048,-0.019l0.636,-0.249l0.047,-0.018l0.641,-0.24l0.048,-0.018l0.647,-0.229l0.048,-0.017l0.651,-0.219l0.049,-0.016l0.655,-0.209l0.049,-0.015l0.66,-0.198l0.049,-0.015l0.665,-0.187l0.05,-0.014l0.669,-0.177l0.05,-0.013l0.673,-0.166l0.051,-0.013l0.677,-0.155l0.051,-0.011l0.681,-0.145l0.051,-0.01l0.685,-0.134l0.051,-0.01l0.69,-0.122l0.051,-0.009l0.693,-0.111l0.051,-0.008l0.697,-0.1l0.052,-0.007l0.7,-0.089l0.052,-0.006l0.703,-0.077l0.052,-0.005l0.707,-0.066l0.052,-0.004l0.71,-0.054l0.053,-0.003l0.713,-0.042l0.052,-0.003l0.716,-0.03l0.052,-0.002l0.719,-0.018l0.053,-0.001l0.718,-0.006l0.046,0l0.548,0.003Z" style="fill:#3a3e46;"/><path d="M54.167,29.167c0,-2.3 -1.867,-4.167 -4.167,-4.167l-4.167,0c-2.299,0 -4.166,1.867 -4.166,4.167l0,16.666c0,2.3 1.867,4.167 4.166,4.167l4.167,0c2.3,0 4.167,-1.867 4.167,-4.167l0,-16.666Z" style="fill:#3a3e46;"/><path d="M51.22,60.059c1.626,1.626 4.267,1.626 5.893,0l2.946,-2.946c1.626,-1.626 1.626,-4.267 0,-5.893l-8.334,-8.334c-1.626,-1.626 -4.266,-1.626 -5.892,0l-2.947,2.947c-1.626,1.626 -1.626,4.266 0,5.892l8.334,8.334Z" style="fill:#3a3e46;"/><path d="M0,10.059c0,-1.685 1.015,-3.204 2.572,-3.849c1.557,-0.645 3.349,-0.289 4.541,0.903c6.674,6.674 16.6,16.6 23.274,23.274c1.192,1.192 1.548,2.984 0.903,4.541c-0.645,1.557 -2.164,2.572 -3.849,2.572c-11.108,0 -27.441,0 -27.441,0l0,-27.441Z" style="fill:#3a3e46;"/></g></svg>