<?xml version="1.0" encoding="UTF-8" standalone="no"?><!DOCTYPE svg PUBLIC "-//W3C//DTD SVG 1.1//EN" "http://www.w3.org/Graphics/SVG/1.1/DTD/svg11.dtd"><svg width="92px" height="92px" version="1.1" xmlns="http://www.w3.org/2000/svg" xmlns:xlink="http://www.w3.org/1999/xlink" xml:space="preserve" xmlns:serif="http://www.serif.com/" style="fill-rule:evenodd;clip-rule:evenodd;stroke-linejoin:round;stroke-miterlimit:2;"><g transform="matrix(4.16667,0,0,4.16667,-2750,-641.667)"><g id="ll-icon-hammerandwrench" transform="matrix(1,0,0,1.5724,349.893,-2027.48)"><g transform="matrix(1,0,0,1,-88.0174,0.037365)"><g transform="matrix(0.707107,0.449698,-0.881507,0.560611,1425.91,188.794)"><path d="M624,1647.8C624,1647.36 623.552,1647 623,1647L622,1647C621.448,1647 621,1647.36 621,1647.8L621,1660.2C621,1660.64 621.448,1661 622,1661L623,1661C623.552,1661 624,1660.64 624,1660.2L624,1647.8Z" style="fill:rgb(58,62,70);"/></g><g transform="matrix(0.707107,0.449698,-1.11186,0.707107,1480.56,143.198)"><path d="M632.952,1359.75C632.952,1359.51 632.73,1359.29 632.384,1359.19C632.037,1359.09 631.631,1359.12 631.343,1359.28C630.504,1359.84 629.952,1360.58 629.952,1361.41C629.952,1362.99 631.968,1364.27 634.452,1364.27C636.936,1364.27 638.952,1362.99 638.952,1361.41C638.952,1360.58 638.4,1359.84 637.518,1359.31C637.25,1359.16 636.87,1359.13 636.547,1359.22C636.224,1359.32 636.016,1359.52 636.016,1359.75C635.952,1360.5 635.952,1361.38 635.952,1361.38C635.952,1361.73 635.504,1362.01 634.952,1362.01L633.952,1362.01C633.4,1362.01 632.952,1361.73 632.952,1361.38L632.952,1359.75Z" style="fill:rgb(58,62,70);"/></g></g><g transform="matrix(0.707107,-0.449698,1.11186,0.707107,-1664.52,720.144)"><path d="M651.707,1366.14L651.707,1376.13C651.707,1376.48 652.155,1376.76 652.707,1376.76L653.707,1376.76C654.259,1376.76 654.707,1376.48 654.707,1376.13L654.707,1366.14L660.221,1366.15L656.221,1363.61C656.221,1363.61 651.048,1363.61 648.821,1363.6C648.556,1363.6 648.301,1363.67 648.113,1363.79C647.926,1363.91 647.82,1364.07 647.82,1364.24C647.82,1364.62 647.82,1365.11 647.82,1365.5C647.82,1365.85 648.266,1366.13 648.818,1366.13L651.707,1366.14Z" style="fill:rgb(58,62,70);"/></g></g></g></svg>