<?xml version="1.0" encoding="UTF-8" standalone="no"?><!DOCTYPE svg PUBLIC "-//W3C//DTD SVG 1.1//EN" "http://www.w3.org/Graphics/SVG/1.1/DTD/svg11.dtd"><svg width="92px" height="92px" version="1.1" xmlns="http://www.w3.org/2000/svg" xmlns:xlink="http://www.w3.org/1999/xlink" xml:space="preserve" xmlns:serif="http://www.serif.com/" style="fill-rule:evenodd;clip-rule:evenodd;stroke-linejoin:round;stroke-miterlimit:2;"><g transform="matrix(4.16667,0,0,4.16667,-91.6667,-641.667)"><g id="ll-icon-hash" transform="matrix(1,0,0,1,-110,22.1274)"><g transform="matrix(1.44889,0.388229,-0.432841,1.61538,-623.323,-2209.09)"><path d="M898,1234.6C898,1234.27 897.701,1234 897.333,1234L896.667,1234C896.299,1234 896,1234.27 896,1234.6L896,1246.4C896,1246.73 896.299,1247 896.667,1247L897.333,1247C897.701,1247 898,1246.73 898,1246.4L898,1234.6Z" style="fill:rgb(58,62,70);"/></g><g transform="matrix(1.44889,0.388229,-0.432841,1.61538,-616.323,-2209.09)"><path d="M898,1234.6C898,1234.27 897.701,1234 897.333,1234L896.667,1234C896.299,1234 896,1234.27 896,1234.6L896,1246.4C896,1246.73 896.299,1247 896.667,1247L897.333,1247C897.701,1247 898,1246.73 898,1246.4L898,1234.6Z" style="fill:rgb(58,62,70);"/></g><g transform="matrix(9.18485e-17,1.5,-1.46154,8.94934e-17,1957.54,-1206.99)"><path d="M898,1234.68C898,1234.31 897.701,1234 897.333,1234L896.667,1234C896.299,1234 896,1234.31 896,1234.68L896,1246.32C896,1246.69 896.299,1247 896.667,1247L897.333,1247C897.701,1247 898,1246.69 898,1246.32L898,1234.68Z" style="fill:rgb(58,62,70);"/></g><g transform="matrix(9.18485e-17,1.5,-1.46154,8.94934e-17,1954.54,-1198.99)"><path d="M898,1234.68C898,1234.31 897.701,1234 897.333,1234L896.667,1234C896.299,1234 896,1234.31 896,1234.68L896,1246.32C896,1246.69 896.299,1247 896.667,1247L897.333,1247C897.701,1247 898,1246.69 898,1246.32L898,1234.68Z" style="fill:rgb(58,62,70);"/></g></g></g></svg>