<?xml version="1.0" encoding="UTF-8" standalone="no"?><!DOCTYPE svg PUBLIC "-//W3C//DTD SVG 1.1//EN" "http://www.w3.org/Graphics/SVG/1.1/DTD/svg11.dtd"><svg width="92px" height="92px" version="1.1" xmlns="http://www.w3.org/2000/svg" xmlns:xlink="http://www.w3.org/1999/xlink" xml:space="preserve" xmlns:serif="http://www.serif.com/" style="fill-rule:evenodd;clip-rule:evenodd;stroke-linejoin:round;stroke-miterlimit:2;"><g transform="matrix(4.16667,0,0,4.16667,-3454.17,-320.833)"><g id="ll-icon-help" transform="matrix(1,0,0,1,-95,-957)"><path d="M935,1034C941.071,1034 946,1038.93 946,1045C946,1051.07 941.071,1056 935,1056C928.929,1056 924,1051.07 924,1045C924,1038.93 928.929,1034 935,1034ZM935.5,1050L934.5,1050C933.947,1050 933.5,1050.45 933.5,1051L933.5,1052C933.5,1052.55 933.948,1053 934.5,1053L935.5,1053C936.052,1053 936.5,1052.55 936.5,1052L936.5,1051C936.5,1050.45 936.053,1050 935.5,1050ZM935,1048C937.763,1048 940,1045.76 940,1043C940,1040.24 937.76,1038 935,1038C932.239,1038 930.001,1040.24 930,1043C930,1043 933,1043 933,1043C933,1041.9 933.896,1041 935,1041C936.104,1041 937,1041.9 937,1043C937,1044.1 936.105,1045 935,1045L934.5,1045C933.947,1045 933.5,1045.45 933.5,1046L933.5,1048L935,1048Z" style="fill:rgb(58,62,70);"/></g></g></svg>