<?xml version="1.0" encoding="UTF-8" standalone="no"?><!DOCTYPE svg PUBLIC "-//W3C//DTD SVG 1.1//EN" "http://www.w3.org/Graphics/SVG/1.1/DTD/svg11.dtd"><svg width="92px" height="92px" version="1.1" xmlns="http://www.w3.org/2000/svg" xmlns:xlink="http://www.w3.org/1999/xlink" xml:space="preserve" xmlns:serif="http://www.serif.com/" style="fill-rule:evenodd;clip-rule:evenodd;stroke-linejoin:round;stroke-miterlimit:2;"><g transform="matrix(4.16667,0,0,4.16667,-3391.67,-320.833)"><g id="ll-icon-info" transform="matrix(1,0,0,1,-110,-1001)"><path d="M935,1078C941.071,1078 946,1082.93 946,1089C946,1095.07 941.071,1100 935,1100C928.929,1100 924,1095.07 924,1089C924,1082.93 928.929,1078 935,1078ZM935.5,1087L934.5,1087C933.947,1087 933.5,1087.45 933.5,1088L933.5,1095C933.5,1095.55 933.948,1096 934.5,1096L935.5,1096C936.052,1096 936.5,1095.55 936.5,1095L936.5,1088C936.5,1087.45 936.053,1087 935.5,1087ZM935.5,1082L934.5,1082C933.947,1082 933.5,1082.45 933.5,1083L933.5,1084C933.5,1084.55 933.948,1085 934.5,1085L935.5,1085C936.052,1085 936.5,1084.55 936.5,1084L936.5,1083C936.5,1082.45 936.053,1082 935.5,1082Z" style="fill:rgb(58,62,70);"/></g></g></svg>