<?xml version="1.0" encoding="UTF-8" standalone="no"?><!DOCTYPE svg PUBLIC "-//W3C//DTD SVG 1.1//EN" "http://www.w3.org/Graphics/SVG/1.1/DTD/svg11.dtd"><svg width="92px" height="92px" version="1.1" xmlns="http://www.w3.org/2000/svg" xmlns:xlink="http://www.w3.org/1999/xlink" xml:space="preserve" xmlns:serif="http://www.serif.com/" style="fill-rule:evenodd;clip-rule:evenodd;stroke-linejoin:round;stroke-miterlimit:2;"><g transform="matrix(4.16667,0,0,4.16667,-1558.33,-579.167)"><g id="llicon-inbox" transform="matrix(1,0,0,1,-440,-873)"><g transform="matrix(-1.4043e-16,0.75,-0.8,4.33368e-16,1014.2,561)"><path d="M624,230.25C624,229.56 623.403,229 622.667,229L621.333,229C620.597,229 620,229.56 620,230.25L620,242.75C620,243.44 620.597,244 621.333,244L622.667,244C623.403,244 624,243.44 624,242.75L624,230.25Z" style="fill:rgb(58,62,70);"/></g><g transform="matrix(-1.4043e-16,0.75,-0.8,4.33368e-16,1014.2,556)"><path d="M624,230.25C624,229.56 623.403,229 622.667,229L621.333,229C620.597,229 620,229.56 620,230.25L620,242.75C620,243.44 620.597,244 621.333,244L622.667,244C623.403,244 624,243.44 624,242.75L624,230.25Z" style="fill:rgb(58,62,70);"/></g><g transform="matrix(-1.4043e-16,0.75,-0.8,4.33368e-16,1014.2,551)"><path d="M624,230.25C624,229.56 623.403,229 622.667,229L621.333,229C620.597,229 620,229.56 620,230.25L620,242.75C620,243.44 620.597,244 621.333,244L622.667,244C623.403,244 624,243.44 624,242.75L624,230.25Z" style="fill:rgb(58,62,70);"/></g><path d="M816,1023C816.553,1023 817,1023.45 817,1024L817,1030C817,1030.55 817.448,1031 818,1031C820.873,1031 829.127,1031 832,1031C832.552,1031 833,1030.55 833,1030C833,1028.07 833,1024 833,1024C833,1023.45 833.447,1023 834,1023L835,1023C835.553,1023 836,1023.45 836,1024L836,1033L836,1033C835.999,1033.55 835.551,1034 835,1034L815,1034C814.448,1034 814,1033.55 814,1033L814,1024C814,1023.45 814.447,1023 815,1023L816,1023Z" style="fill:rgb(58,62,70);"/></g></g></svg>