<?xml version="1.0" encoding="UTF-8" standalone="no"?><!DOCTYPE svg PUBLIC "-//W3C//DTD SVG 1.1//EN" "http://www.w3.org/Graphics/SVG/1.1/DTD/svg11.dtd"><svg width="92px" height="92px" version="1.1" xmlns="http://www.w3.org/2000/svg" xmlns:xlink="http://www.w3.org/1999/xlink" xml:space="preserve" xmlns:serif="http://www.serif.com/" style="fill-rule:evenodd;clip-rule:evenodd;stroke-linejoin:round;stroke-miterlimit:2;"><g transform="matrix(4.16667,0,0,4.16667,-2108.33,-825)"><g transform="matrix(1.41056,0,0,1.5724,-989.821,-1213.94)"><path id="ll-icon-import" d="M1069.27,901.764L1071.01,901.764C1071.3,901.764 1071.56,901.919 1071.66,902.156C1071.78,902.394 1071.71,902.667 1071.51,902.849L1068.21,905.811L1064.91,902.849C1064.71,902.667 1064.64,902.394 1064.76,902.156C1064.86,901.919 1065.12,901.764 1065.41,901.764L1067.15,901.764L1067.15,898.584C1067.15,898.233 1067.46,897.948 1067.86,897.948L1068.56,897.948C1068.95,897.948 1069.27,898.233 1069.27,898.584L1069.27,901.764ZM1076.04,910.349L1076.04,911.303C1076.04,911.655 1075.72,911.939 1075.34,911.939L1061.16,911.939C1060.77,911.939 1060.45,911.654 1060.45,911.303L1060.45,904.308C1060.45,903.957 1060.77,903.672 1061.16,903.672L1063.64,903.672C1064.03,903.672 1064.35,903.956 1064.35,904.308L1064.35,904.944C1064.35,905.295 1064.03,905.579 1063.64,905.579L1062.93,905.579C1062.73,905.58 1062.57,905.722 1062.57,905.897L1062.57,909.717C1062.57,909.89 1062.73,910.031 1062.92,910.031L1073.56,910.031C1073.66,910.031 1073.75,909.998 1073.81,909.938C1073.88,909.879 1073.92,909.798 1073.92,909.713L1073.92,905.897C1073.92,905.722 1073.76,905.58 1073.56,905.579L1072.85,905.579C1072.46,905.579 1072.14,905.295 1072.14,904.944L1072.14,904.308C1072.14,903.956 1072.46,903.672 1072.85,903.672L1075.34,903.672C1075.73,903.672 1076.04,903.957 1076.04,904.308L1076.04,910.349Z" style="fill:rgb(58,62,70);"/></g></g></svg>