<?xml version="1.0" encoding="UTF-8" standalone="no"?><!DOCTYPE svg PUBLIC "-//W3C//DTD SVG 1.1//EN" "http://www.w3.org/Graphics/SVG/1.1/DTD/svg11.dtd"><svg width="92px" height="92px" version="1.1" xmlns="http://www.w3.org/2000/svg" xmlns:xlink="http://www.w3.org/1999/xlink" xml:space="preserve" xmlns:serif="http://www.serif.com/" style="fill-rule:evenodd;clip-rule:evenodd;stroke-linejoin:round;stroke-miterlimit:2;"><g id="ll-icon-log-out"><path id="ll-icon-log-out1" serif:id="ll-icon-log-out" d="M69.033,81.533c-7.141,5.069 -15.867,8.05 -25.283,8.05c-24.146,0 -43.75,-19.603 -43.75,-43.75c0,-24.146 19.604,-43.75 43.75,-43.75c9.416,0 18.142,2.982 25.283,8.051l-9.778,9.778c-4.534,-2.723 -9.838,-4.287 -15.505,-4.287c-16.672,0 -30.208,13.536 -30.208,30.208c0,16.673 13.536,30.209 30.208,30.209c5.667,0 10.971,-1.564 15.505,-4.287l9.778,9.778Zm-2.366,-41.95l0,-10.207c0,-1.685 1.015,-3.205 2.572,-3.849c1.557,-0.645 3.349,-0.289 4.541,0.903c7.854,7.854 19.403,19.403 19.403,19.403c0,0 -11.549,11.549 -19.403,19.404c-1.192,1.192 -2.984,1.548 -4.541,0.903c-1.557,-0.645 -2.572,-2.164 -2.572,-3.849l0,-10.208l-29.167,0c-2.3,0 -4.167,-1.867 -4.167,-4.166l0,-4.167c0,-2.296 1.862,-4.161 4.167,-4.167l29.167,0Z" style="fill:#3a3e46;"/></g></svg>