<?xml version="1.0" encoding="UTF-8" standalone="no"?><!DOCTYPE svg PUBLIC "-//W3C//DTD SVG 1.1//EN" "http://www.w3.org/Graphics/SVG/1.1/DTD/svg11.dtd"><svg width="92px" height="92px" version="1.1" xmlns="http://www.w3.org/2000/svg" xmlns:xlink="http://www.w3.org/1999/xlink" xml:space="preserve" xmlns:serif="http://www.serif.com/" style="fill-rule:evenodd;clip-rule:evenodd;stroke-linejoin:round;stroke-miterlimit:2;"><g transform="matrix(4.16667,0,0,4.16667,-1008.33,-641.667)"><g id="ll-icon-list-horizontal" transform="matrix(1,0,0,1.5724,-24,-2092.94)"><path d="M272,1439.79C272,1439.44 271.552,1439.16 271,1439.16L270,1439.16C269.448,1439.16 269,1439.44 269,1439.79L269,1440.43C269,1440.78 269.448,1441.07 270,1441.07L271,1441.07C271.552,1441.07 272,1440.78 272,1440.43L272,1439.79ZM285,1439.79C285,1439.44 284.552,1439.16 284,1439.16L275,1439.16C274.448,1439.16 274,1439.44 274,1439.79L274,1440.43C274,1440.78 274.448,1441.07 275,1441.07L284,1441.07C284.552,1441.07 285,1440.78 285,1440.43L285,1439.79ZM285,1435.98C285,1435.63 284.552,1435.34 284,1435.34L275,1435.34C274.448,1435.34 274,1435.63 274,1435.98L274,1436.61C274,1436.96 274.448,1437.25 275,1437.25L284,1437.25C284.552,1437.25 285,1436.96 285,1436.61L285,1435.98ZM272,1435.98C272,1435.63 271.552,1435.34 271,1435.34L270,1435.34C269.448,1435.34 269,1435.63 269,1435.98L269,1436.61C269,1436.96 269.448,1437.25 270,1437.25L271,1437.25C271.552,1437.25 272,1436.96 272,1436.61L272,1435.98ZM272,1432.16C272,1431.81 271.552,1431.53 271,1431.53L270,1431.53C269.448,1431.53 269,1431.81 269,1432.16L269,1432.8C269,1433.15 269.448,1433.43 270,1433.43L271,1433.43C271.552,1433.43 272,1433.15 272,1432.8L272,1432.16ZM285,1432.16C285,1431.81 284.552,1431.53 284,1431.53L275,1431.53C274.448,1431.53 274,1431.81 274,1432.16L274,1432.8C274,1433.15 274.448,1433.43 275,1433.43L284,1433.43C284.552,1433.43 285,1433.15 285,1432.8L285,1432.16Z" style="fill:rgb(58,62,70);"/></g></g></svg>