<?xml version="1.0" encoding="UTF-8" standalone="no"?><!DOCTYPE svg PUBLIC "-//W3C//DTD SVG 1.1//EN" "http://www.w3.org/Graphics/SVG/1.1/DTD/svg11.dtd"><svg width="92px" height="92px" version="1.1" xmlns="http://www.w3.org/2000/svg" xmlns:xlink="http://www.w3.org/1999/xlink" xml:space="preserve" xmlns:serif="http://www.serif.com/" style="fill-rule:evenodd;clip-rule:evenodd;stroke-linejoin:round;stroke-miterlimit:2;"><g transform="matrix(4.16667,0,0,4.16667,-2566.67,-641.667)"><g transform="matrix(-1,0,0,1.5724,1366.06,-2049.42)"><g id="ll-icon-lightning"><path d="M738.654,1407.04L732,1407.04C731.448,1407.04 731.314,1407.48 731.5,1407.68C732.812,1409.05 739.874,1415.3 739.874,1415.3L736.938,1409.59L744.5,1409.59C745.052,1409.59 745.151,1409.17 745,1408.95C744.107,1407.62 739.145,1401.63 739.145,1401.63C738.866,1401.32 738.252,1401.21 737.774,1401.39L735.176,1402.35C734.698,1402.52 734.536,1402.91 734.815,1403.22L738.654,1407.04Z" style="fill:rgb(58,62,70);"/></g></g></g></svg>