<?xml version="1.0" encoding="UTF-8" standalone="no"?><!DOCTYPE svg PUBLIC "-//W3C//DTD SVG 1.1//EN" "http://www.w3.org/Graphics/SVG/1.1/DTD/svg11.dtd"><svg width="96px" height="92px" version="1.1" xmlns="http://www.w3.org/2000/svg" xmlns:xlink="http://www.w3.org/1999/xlink" xml:space="preserve" xmlns:serif="http://www.serif.com/" style="fill-rule:evenodd;clip-rule:evenodd;stroke-linejoin:round;stroke-miterlimit:2;"><g id="ll-icon-logo-lla"><path id="ll-icon-lla" d="M88.088,0.061c-0.145,0.526 -0.371,1.031 -0.676,1.5l-5.842,8.959c6.66,7.717 10.67,17.656 10.67,28.496c0,17.786 -10.796,33.148 -26.38,40.255c-8.816,4.979 -19.889,9.7 -19.889,9.7c0,0 -20.394,-8.695 -27.86,-14.925c-10.729,-8.142 -17.629,-20.811 -17.629,-35.03c0,-10.547 3.796,-20.241 10.137,-27.865l-6.253,-9.59c-0.294,-0.451 -0.515,-0.936 -0.66,-1.442c8.846,4.093 24.414,6.807 42.127,6.807c17.8,0 33.434,-2.74 42.255,-6.865Zm-41.918,26.737c0.592,-0.996 1.24,-1.946 1.943,-2.854c8.425,-10.88 21.587,-11.549 29.373,-1.493c7.787,10.055 7.268,27.052 -1.157,37.932c-3.423,4.421 -7.629,7.156 -11.944,8.172c-8.293,5.16 -18.396,9.955 -18.396,9.955c0,0 -10.078,-4.783 -18.357,-9.931c-4.144,-1.028 -8.159,-3.671 -11.433,-7.898c-8.297,-10.716 -8.712,-27.579 -0.926,-37.634c7.787,-10.056 20.845,-9.52 29.143,1.195c0.631,0.815 1.216,1.666 1.754,2.556Zm-0.281,40.006c0,0 8.968,-10.583 8.968,-15.119c0,-4.949 -4.019,-8.968 -8.968,-8.968c-4.95,0 -8.968,4.019 -8.968,8.968c0,4.536 8.968,15.119 8.968,15.119Zm17.784,-36.505c3.523,0 6.384,2.785 6.384,6.216c0,3.43 -2.861,6.216 -6.384,6.216c-3.524,0 -6.384,-2.786 -6.384,-6.216c0,-3.431 2.86,-6.216 6.384,-6.216Zm-36.795,0c3.524,0 6.384,2.785 6.384,6.216c0,3.43 -2.86,6.216 -6.384,6.216c-3.523,0 -6.384,-2.786 -6.384,-6.216c0,-3.431 2.861,-6.216 6.384,-6.216Z" style="fill:#3a3e46;"/></g></svg>