<?xml version="1.0" encoding="UTF-8" standalone="no"?><!DOCTYPE svg PUBLIC "-//W3C//DTD SVG 1.1//EN" "http://www.w3.org/Graphics/SVG/1.1/DTD/svg11.dtd"><svg width="92px" height="92px" version="1.1" xmlns="http://www.w3.org/2000/svg" xmlns:xlink="http://www.w3.org/1999/xlink" xml:space="preserve" xmlns:serif="http://www.serif.com/" style="fill-rule:evenodd;clip-rule:evenodd;stroke-linejoin:round;stroke-miterlimit:2;"><g id="ll-icon-leave"><path id="icon-vsv" d="M60.927,12.522l0.033,0.005c1.024,0.026 2.039,0.432 2.82,1.213l9.227,9.227c1.626,1.626 1.626,4.266 0,5.893l-0.793,0.793l3.68,3.68l11.606,0c2.305,0.006 4.167,1.871 4.167,4.167l0,4.167c0,2.296 -1.862,4.161 -4.167,4.166l-13.542,0c-0.408,0 -0.804,-0.059 -1.177,-0.171c-1.219,0.143 -2.49,-0.254 -3.425,-1.189l-5.981,-5.981l-8.64,8.64l10.303,10.303c0.397,0.398 0.697,0.856 0.901,1.35c0.46,0.669 0.728,1.478 0.728,2.35l0,26.365c0,2.296 -1.862,4.161 -4.167,4.167l-4.167,0c-2.299,0 -4.166,-1.867 -4.166,-4.167l0,-23.258l-10.875,-10.875l-16.092,16.093c-0.207,0.207 -0.43,0.387 -0.665,0.54c-0.69,0.523 -1.549,0.831 -2.491,0.833l-19.877,0c-2.3,0 -4.167,-1.867 -4.167,-4.166l0,-4.167c0,-2.296 1.862,-4.161 4.167,-4.167l16.482,0l13.805,-13.805c-0.229,-0.231 -0.426,-0.481 -0.586,-0.747l-0.064,-0.064c-1.626,-1.626 -1.626,-4.267 0,-5.893l12.824,-12.824l-7.216,0l-11.876,11.876c-1.626,1.626 -4.267,1.626 -5.893,0l-2.946,-2.946c-1.626,-1.626 -1.626,-4.267 0,-5.893l13.94,-13.94c0.328,-0.328 0.698,-0.59 1.09,-0.781c0.686,-0.512 1.536,-0.813 2.468,-0.816l24.306,0l0.426,0.022Zm17.39,-12.522c5.043,0 9.137,4.094 9.137,9.137c0,5.043 -4.094,9.137 -9.137,9.137c-5.043,0 -9.137,-4.094 -9.137,-9.137c0,-5.043 4.094,-9.137 9.137,-9.137Z" style="fill:#3a3e46;"/></g></svg>