<?xml version="1.0" encoding="UTF-8" standalone="no"?><!DOCTYPE svg PUBLIC "-//W3C//DTD SVG 1.1//EN" "http://www.w3.org/Graphics/SVG/1.1/DTD/svg11.dtd"><svg width="92px" height="92px" version="1.1" xmlns="http://www.w3.org/2000/svg" xmlns:xlink="http://www.w3.org/1999/xlink" xml:space="preserve" xmlns:serif="http://www.serif.com/" style="fill-rule:evenodd;clip-rule:evenodd;stroke-linejoin:round;stroke-miterlimit:2;"><g transform="matrix(4.16667,0,0,4.16667,-4033.33,-458.333)"><g id="l-icon-link" transform="matrix(1,0,0,1.04235,767.884,-1420.45)"><path d="M212.739,1485.39L209.929,1488.09C208.368,1489.58 205.833,1489.58 204.272,1488.09L201.469,1485.4C199.908,1483.9 199.908,1481.47 201.469,1479.97L206.826,1474.83C208.387,1473.33 210.921,1473.33 212.482,1474.83C212.482,1474.83 213.134,1475.46 213.673,1475.97C213.861,1476.15 213.966,1476.4 213.966,1476.65C213.966,1476.91 213.861,1477.15 213.673,1477.33C213.416,1477.58 213.126,1477.86 212.869,1478.1C212.479,1478.48 211.846,1478.48 211.455,1478.1C211.199,1477.86 210.972,1477.64 210.972,1477.64C210.191,1476.89 208.924,1476.89 208.143,1477.64L204.337,1481.29C203.557,1482.04 203.557,1483.25 204.337,1484L205.837,1485.44C206.618,1486.19 207.885,1486.19 208.666,1485.44C208.666,1485.44 209.166,1484.96 209.526,1484.62C209.71,1484.44 210.007,1484.44 210.19,1484.62C210.191,1484.62 210.191,1484.62 210.191,1484.62C210.884,1485.28 211.841,1485.54 212.739,1485.39ZM209.83,1471.93L212.303,1469.56C213.864,1468.07 216.398,1468.07 217.959,1469.56L220.762,1472.25C222.324,1473.75 222.324,1476.18 220.762,1477.68L215.406,1482.82C213.845,1484.32 211.31,1484.32 209.749,1482.82C209.749,1482.82 209.224,1482.31 208.758,1481.87C208.368,1481.49 208.368,1480.88 208.758,1480.51C209.015,1480.26 209.305,1479.99 209.562,1479.74C209.953,1479.37 210.586,1479.37 210.976,1479.74C211.136,1479.89 211.26,1480.01 211.26,1480.01C212.04,1480.76 213.308,1480.76 214.088,1480.01L217.894,1476.36C218.675,1475.61 218.675,1474.39 217.894,1473.65L216.394,1472.21C215.614,1471.46 214.346,1471.46 213.566,1472.21C213.566,1472.21 213.254,1472.51 212.966,1472.78C212.84,1472.9 212.669,1472.97 212.491,1472.97C212.313,1472.97 212.144,1472.9 212.021,1472.77C212.021,1472.77 212.021,1472.77 212.021,1472.77C211.418,1472.19 210.621,1471.91 209.83,1471.93Z" style="fill:rgb(58,62,70);"/></g></g></svg>