<?xml version="1.0" encoding="UTF-8" standalone="no"?><!DOCTYPE svg PUBLIC "-//W3C//DTD SVG 1.1//EN" "http://www.w3.org/Graphics/SVG/1.1/DTD/svg11.dtd"><svg width="92px" height="92px" version="1.1" xmlns="http://www.w3.org/2000/svg" xmlns:xlink="http://www.w3.org/1999/xlink" xml:space="preserve" xmlns:serif="http://www.serif.com/" style="fill-rule:evenodd;clip-rule:evenodd;stroke-linejoin:round;stroke-miterlimit:2;"><g transform="matrix(4.16667,0,0,4.16667,-275,-641.667)"><g id="ll-icon-list-vertical" transform="matrix(6.48342e-17,1.05882,-1,6.12323e-17,1124,-612.706)"><path d="M743,1054C743,1053.45 742.577,1053 742.056,1053L726.944,1053C726.423,1053 726,1053.45 726,1054L726,1055C726,1055.55 726.423,1056 726.944,1056L742.056,1056C742.577,1056 743,1055.55 743,1055L743,1054ZM743,1049C743,1048.45 742.577,1048 742.056,1048L726.944,1048C726.423,1048 726,1048.45 726,1049L726,1050C726,1050.55 726.423,1051 726.944,1051L742.056,1051C742.577,1051 743,1050.55 743,1050L743,1049ZM743,1044C743,1043.45 742.577,1043 742.056,1043L726.944,1043C726.423,1043 726,1043.45 726,1044L726,1045C726,1045.55 726.423,1046 726.944,1046L742.056,1046C742.577,1046 743,1045.55 743,1045L743,1044ZM743,1039C743,1038.45 742.577,1038 742.056,1038L726.944,1038C726.423,1038 726,1038.45 726,1039L726,1040C726,1040.55 726.423,1041 726.944,1041L742.056,1041C742.577,1041 743,1040.55 743,1040L743,1039Z" style="fill:rgb(58,62,70);"/></g></g></svg>