<?xml version="1.0" encoding="UTF-8" standalone="no"?><!DOCTYPE svg PUBLIC "-//W3C//DTD SVG 1.1//EN" "http://www.w3.org/Graphics/SVG/1.1/DTD/svg11.dtd"><svg width="92px" height="92px" version="1.1" xmlns="http://www.w3.org/2000/svg" xmlns:xlink="http://www.w3.org/1999/xlink" xml:space="preserve" xmlns:serif="http://www.serif.com/" style="fill-rule:evenodd;clip-rule:evenodd;stroke-linejoin:round;stroke-miterlimit:2;"><g transform="matrix(4.16667,0,0,4.16667,-2383.33,-641.667)"><g transform="matrix(0.494938,0.180143,-0.106648,0.293013,102.151,-563.723)"><g id="ll-icon-lemon"><path id="ll-icon-lemon1" serif:id="ll-icon-lemon" d="M1326.69,1637.1C1326.73,1636.79 1326.79,1636.5 1326.86,1636.21C1327.12,1635.04 1327.49,1634.14 1327.96,1633.51C1328.85,1632.33 1329.85,1631.72 1330.94,1631.69C1331.71,1631.67 1332.36,1631.86 1332.89,1632.26C1333.42,1632.66 1333.84,1633.13 1334.15,1633.66C1334.45,1634.2 1334.72,1634.98 1334.94,1636.01L1335.03,1636.5C1336.43,1636.84 1337.69,1637.43 1338.83,1638.25C1340.92,1639.75 1342.56,1641.52 1343.76,1643.53C1344.95,1645.55 1345.99,1648.5 1346.85,1652.38C1347.72,1656.26 1348.18,1660.85 1348.23,1666.16C1348.35,1677.26 1346.76,1685.72 1343.47,1691.53C1341.8,1694.48 1339.88,1696.71 1337.71,1698.2C1337.37,1699.69 1336.87,1700.97 1336.21,1702.01C1334.83,1704.21 1333.03,1705.34 1330.84,1705.41C1328.64,1705.47 1326.9,1704.5 1325.64,1702.48C1325.05,1701.54 1324.59,1700.37 1324.27,1698.98C1321.97,1697.7 1320,1695.61 1318.36,1692.69C1315.35,1687.34 1313.79,1679.36 1313.68,1668.74C1313.62,1662.79 1314.11,1657.6 1315.17,1653.18C1316.22,1648.76 1317.66,1645.36 1319.49,1642.98C1321.72,1640.13 1324.12,1638.18 1326.69,1637.1Z" style="fill:rgb(58,62,70);"/></g></g></g></svg>