<?xml version="1.0" encoding="UTF-8" standalone="no"?><!DOCTYPE svg PUBLIC "-//W3C//DTD SVG 1.1//EN" "http://www.w3.org/Graphics/SVG/1.1/DTD/svg11.dtd"><svg width="92px" height="92px" version="1.1" xmlns="http://www.w3.org/2000/svg" xmlns:xlink="http://www.w3.org/1999/xlink" xml:space="preserve" xmlns:serif="http://www.serif.com/" style="fill-rule:evenodd;clip-rule:evenodd;stroke-linejoin:round;stroke-miterlimit:2;"><g transform="matrix(4.16667,0,0,4.16667,-1741.67,-641.667)"><g id="ll-icon-maximize" transform="matrix(1,0,0,1.04235,152,-716.473)"><g transform="matrix(1,0,0,1,-0.189452,0.140525)"><path d="M282.525,838.265L280.793,836.603C280.507,836.329 280.421,835.916 280.576,835.558C280.731,835.199 281.096,834.966 281.5,834.966C284.166,834.966 288.086,834.966 288.086,834.966L288.086,841.284C288.086,841.672 287.842,842.022 287.469,842.17C287.095,842.319 286.665,842.237 286.379,841.962L284.646,840.3L279.707,845.039C279.317,845.413 278.683,845.413 278.293,845.039L277.586,844.361C277.196,843.986 277.196,843.378 277.586,843.004L282.525,838.265Z" style="fill:rgb(58,62,70);"/></g><g transform="matrix(0.404858,0,0,0.388409,125.354,516.456)"><path d="M372.094,852.507C372.094,851.144 370.988,850.037 369.624,850.037L349.864,850.037C348.501,850.037 347.394,851.144 347.394,852.507L347.394,872.267C347.394,873.63 348.501,874.737 349.864,874.737L369.624,874.737C370.988,874.737 372.094,873.63 372.094,872.267L372.094,852.507Z" style="fill:rgb(58,62,70);"/></g></g></g></svg>