<?xml version="1.0" encoding="UTF-8" standalone="no"?><!DOCTYPE svg PUBLIC "-//W3C//DTD SVG 1.1//EN" "http://www.w3.org/Graphics/SVG/1.1/DTD/svg11.dtd"><svg width="92px" height="92px" version="1.1" xmlns="http://www.w3.org/2000/svg" xmlns:xlink="http://www.w3.org/1999/xlink" xml:space="preserve" xmlns:serif="http://www.serif.com/" style="fill-rule:evenodd;clip-rule:evenodd;stroke-linejoin:round;stroke-miterlimit:2;"><g transform="matrix(4.16667,0,0,4.16667,-1925,-641.667)"><g id="ll-icon-minimize" transform="matrix(1,0,0,1.04235,167,-716.473)"><g transform="matrix(0.707107,0.678378,-0.707107,0.678378,437.421,-399.678)"><g transform="matrix(-0.75,-2.56572e-16,-5.5237e-16,-0.441421,1291.45,1124.09)"><path d="M624,231.265C624,230.015 623.403,229 622.667,229L621.333,229C620.597,229 620,230.015 620,231.265L620,241.735C620,242.985 620.597,244 621.333,244L622.667,244C623.403,244 624,242.985 624,241.735L624,231.265Z" style="fill:rgb(58,62,70);"/></g><g transform="matrix(0.636396,-0.636396,0.636396,0.636396,-2007.01,1065.82)"><path d="M2256,2186.68C2256,2186.23 2256.27,2185.83 2256.69,2185.66C2257.1,2185.48 2257.58,2185.58 2257.9,2185.9C2259.68,2187.68 2262.32,2190.32 2264.1,2192.1C2264.42,2192.42 2264.52,2192.9 2264.34,2193.31C2264.17,2193.73 2263.77,2194 2263.32,2194C2260.36,2194 2256,2194 2256,2194L2256,2186.68Z" style="fill:rgb(58,62,70);"/></g></g><g transform="matrix(0.526316,0,0,0.504932,121.161,405.895)"><path d="M372.094,851.937C372.094,850.888 371.243,850.037 370.194,850.037L349.294,850.037C348.246,850.037 347.394,850.888 347.394,851.937L347.394,872.837C347.394,873.885 348.246,874.737 349.294,874.737L370.194,874.737C371.243,874.737 372.094,873.885 372.094,872.837L372.094,851.937Z" style="fill:rgb(58,62,70);"/></g></g></g></svg>