<?xml version="1.0" encoding="UTF-8" standalone="no"?><!DOCTYPE svg PUBLIC "-//W3C//DTD SVG 1.1//EN" "http://www.w3.org/Graphics/SVG/1.1/DTD/svg11.dtd"><svg width="80px" height="92px" version="1.1" xmlns="http://www.w3.org/2000/svg" xmlns:xlink="http://www.w3.org/1999/xlink" xml:space="preserve" xmlns:serif="http://www.serif.com/" style="fill-rule:evenodd;clip-rule:evenodd;stroke-linejoin:round;stroke-miterlimit:2;"><g transform="matrix(4.16667,0,0,4.16667,-4216.67,-320.833)"><g id="ll-icon-notebook" transform="matrix(1,0,0,1,-41.5,0)"><path d="M1071,99L1056,99C1055.45,99 1055,98.552 1055,98L1055,97L1054.5,97C1053.95,97 1053.5,96.552 1053.5,96L1053.5,95C1053.5,94.449 1053.95,94.001 1054.5,94L1055,94L1055,92L1054.5,92C1053.95,92 1053.5,91.552 1053.5,91L1053.5,90C1053.5,89.449 1053.95,89.001 1054.5,89L1055,89L1055,87L1054.5,87C1053.95,87 1053.5,86.552 1053.5,86L1053.5,85C1053.5,84.449 1053.95,84.001 1054.5,84L1055,84L1055,82L1054.5,82C1053.95,82 1053.5,81.552 1053.5,81L1053.5,80C1053.5,79.449 1053.95,79.001 1054.5,79L1055,79L1055,78C1055,77.449 1055.45,77.001 1056,77L1071,77C1071.55,77.001 1072,77.449 1072,78L1072,98C1072,98.55 1071.55,98.997 1071,99ZM1068,80L1059,80C1058.45,80.003 1058,80.45 1058,81L1058,95C1058,95.552 1058.45,96 1059,96L1068,96C1068.55,96 1069,95.552 1069,95L1069,81C1069,80.45 1068.55,80.003 1068,80ZM1066,91.5C1066.55,91.501 1067,91.949 1067,92.5L1067,93.5C1067,94.052 1066.55,94.5 1066,94.5L1061,94.5C1060.45,94.5 1060,94.052 1060,93.5L1060,92.5C1060,91.949 1060.45,91.501 1061,91.5L1066,91.5ZM1066,86.5C1066.55,86.501 1067,86.949 1067,87.5L1067,88.5C1067,89.052 1066.55,89.5 1066,89.5L1061,89.5C1060.45,89.5 1060,89.052 1060,88.5L1060,87.5C1060,86.949 1060.45,86.501 1061,86.5L1066,86.5ZM1066,81.5C1066.55,81.501 1067,81.949 1067,82.5L1067,83.5C1067,84.052 1066.55,84.5 1066,84.5L1061,84.5C1060.45,84.5 1060,84.052 1060,83.5L1060,82.5C1060,81.949 1060.45,81.501 1061,81.5L1066,81.5Z" style="fill:rgb(58,62,70);"/></g></g></svg>