<?xml version="1.0" encoding="UTF-8" standalone="no"?><!DOCTYPE svg PUBLIC "-//W3C//DTD SVG 1.1//EN" "http://www.w3.org/Graphics/SVG/1.1/DTD/svg11.dtd"><svg width="92px" height="92px" version="1.1" xmlns="http://www.w3.org/2000/svg" xmlns:xlink="http://www.w3.org/1999/xlink" xml:space="preserve" xmlns:serif="http://www.serif.com/" style="fill-rule:evenodd;clip-rule:evenodd;stroke-linejoin:round;stroke-miterlimit:2;"><g id="ll-icon-network"><circle cx="27.083" cy="27.083" r="27.083" style="fill:#3a3e46;"/><circle cx="22.917" cy="77.083" r="14.583" style="fill:#3a3e46;"/><circle cx="77.083" cy="22.917" r="14.583" style="fill:#3a3e46;"/><circle cx="77.083" cy="77.083" r="14.583" style="fill:#3a3e46;"/><path d="M81.503,72.664l0.249,0.264l0.234,0.279l0.217,0.291l0.2,0.304l0.181,0.315l0.164,0.325l0.144,0.334l0.124,0.341l0.104,0.349l0.084,0.353l0.063,0.359l0.042,0.361l0.022,0.363l0,0.363l-0.022,0.363l-0.042,0.361l-0.063,0.358l-0.084,0.354l-0.104,0.348l-0.124,0.342l-0.144,0.334l-0.164,0.325l-0.181,0.314l-0.2,0.304l-0.217,0.292l-0.234,0.278l-0.249,0.265l-0.265,0.249l-0.278,0.234l-0.292,0.217l-0.304,0.2l-0.315,0.182l-0.324,0.163l-0.334,0.144l-0.342,0.124l-0.348,0.104l-0.354,0.084l-0.358,0.063l-0.361,0.043l-0.363,0.021l-0.364,0l-0.363,-0.021l-0.361,-0.043l-0.358,-0.063l-0.353,-0.084l-0.349,-0.104l-0.341,-0.124l-0.334,-0.144l-0.325,-0.163l-0.315,-0.182l-0.304,-0.2l-0.291,-0.217l-0.279,-0.234l-0.264,-0.249l-40.471,-40.472l-3.048,36.571l-0.041,0.362l-0.061,0.358l-0.083,0.354l-0.103,0.349l-0.123,0.342l-0.142,0.334l-0.162,0.326l-0.181,0.315l-0.198,0.305l-0.216,0.293l-0.232,0.279l-0.249,0.265l-0.263,0.251l-0.278,0.235l-0.291,0.218l-0.302,0.201l-0.315,0.183l-0.324,0.165l-0.333,0.145l-0.341,0.126l-0.348,0.106l-0.353,0.085l-0.358,0.065l-0.361,0.043l-0.363,0.023l-0.364,0.001l-0.363,-0.019l-0.361,-0.041l-0.358,-0.062l-0.354,-0.082l-0.349,-0.103l-0.342,-0.123l-0.334,-0.142l-0.326,-0.162l-0.316,-0.181l-0.304,-0.198l-0.293,-0.216l-0.279,-0.233l-0.266,-0.248l-0.25,-0.263l-0.235,-0.278l-0.218,-0.291l-0.201,-0.303l-0.183,-0.314l-0.165,-0.324l-0.145,-0.333l-0.126,-0.341l-0.106,-0.348l-0.085,-0.354l-0.065,-0.357l-0.043,-0.361l-0.023,-0.363l-0.002,-0.364l0.02,-0.363l4.498,-53.977l7.495,-2.745l52.822,52.822Z" style="fill:#3a3e46;"/><path d="M77.265,16.669l0.35,0.02l0.348,0.04l0.346,0.059l0.342,0.078l0.336,0.098l0.331,0.116l0.324,0.134l0.316,0.153l0.306,0.17l0.297,0.186l0.286,0.204l0.274,0.218l0.261,0.234l0.247,0.249l0.234,0.261l0.218,0.274l0.203,0.287l0.186,0.297l0.169,0.307l0.152,0.316l0.134,0.324l0.115,0.331l0.097,0.337l0.078,0.342l0.058,0.345l0.039,0.349l0.019,0.35l0,0.35l-0.02,0.35l-0.04,0.349l-0.059,0.345l-0.078,0.342l-0.098,0.337l-0.116,0.33l-0.134,0.324l-0.153,0.316l-0.17,0.307l-0.186,0.296l-0.204,0.286l-0.218,0.274l-0.234,0.261l-0.248,0.248l-0.262,0.233l-0.274,0.218l-0.286,0.203l-0.298,0.186l-0.307,0.169l-0.316,0.152l-0.324,0.134l-0.331,0.115l-0.337,0.097l-0.341,0.078l-0.346,0.058l-0.349,0.039l-50,4.167l-0.35,0.019l-0.35,0l-0.35,-0.02l-0.348,-0.04l-0.346,-0.059l-0.342,-0.078l-0.337,-0.098l-0.33,-0.116l-0.324,-0.134l-0.316,-0.153l-0.306,-0.17l-0.297,-0.186l-0.286,-0.204l-0.274,-0.219l-0.261,-0.233l-0.248,-0.249l-0.233,-0.261l-0.218,-0.274l-0.203,-0.287l-0.186,-0.297l-0.169,-0.307l-0.152,-0.316l-0.134,-0.324l-0.115,-0.331l-0.097,-0.337l-0.078,-0.342l-0.058,-0.345l-0.039,-0.349l-0.019,-0.35l0,-0.35l0.02,-0.35l0.04,-0.349l0.059,-0.345l0.078,-0.342l0.098,-0.337l0.116,-0.33l0.134,-0.324l0.153,-0.316l0.169,-0.307l0.187,-0.296l0.203,-0.286l0.219,-0.274l0.234,-0.261l0.248,-0.248l0.262,-0.233l0.274,-0.218l0.286,-0.203l0.297,-0.186l0.307,-0.169l0.316,-0.152l0.324,-0.134l0.331,-0.115l0.337,-0.097l0.342,-0.078l0.346,-0.058l0.348,-0.039l50,-4.167l0.35,-0.019l0.351,0Z" style="fill:#3a3e46;"/></g></svg>