<?xml version="1.0" encoding="UTF-8" standalone="no"?><!DOCTYPE svg PUBLIC "-//W3C//DTD SVG 1.1//EN" "http://www.w3.org/Graphics/SVG/1.1/DTD/svg11.dtd"><svg width="92px" height="92px" version="1.1" xmlns="http://www.w3.org/2000/svg" xmlns:xlink="http://www.w3.org/1999/xlink" xml:space="preserve" xmlns:serif="http://www.serif.com/" style="fill-rule:evenodd;clip-rule:evenodd;stroke-linejoin:round;stroke-miterlimit:2;"><g transform="matrix(4.16667,0,0,4.16667,-5225,-320.833)"><g transform="matrix(1,0,0,1.5724,852.5,-1818.94)"><g id="ll-icon-office"><path id="ll-icon-office1" serif:id="ll-icon-office" d="M410,1219.75L410,1215.93C410,1215.58 410.448,1215.3 411,1215.3L414,1215.3C414.552,1215.3 415,1215.58 415,1215.93L415,1219.75L420,1219.75C420.552,1219.75 421,1219.46 421,1219.11L421,1206.39C421,1206.04 420.552,1205.76 420,1205.76L405,1205.76C404.448,1205.76 404,1206.04 404,1206.39L404,1219.11C404,1219.46 404.448,1219.75 405,1219.75L410,1219.75ZM414,1212.12C414,1211.77 413.552,1211.48 413,1211.48L412,1211.48C411.448,1211.48 411,1211.77 411,1212.12L411,1213.39C411,1213.74 411.448,1214.02 412,1214.02L413,1214.02C413.552,1214.02 414,1213.74 414,1213.39L414,1212.12ZM409,1212.12C409,1211.77 408.552,1211.48 408,1211.48L407,1211.48C406.448,1211.48 406,1211.77 406,1212.12L406,1213.39C406,1213.74 406.448,1214.02 407,1214.02L408,1214.02C408.552,1214.02 409,1213.74 409,1213.39L409,1212.12ZM419,1212.12C419,1211.77 418.552,1211.48 418,1211.48L417,1211.48C416.448,1211.48 416,1211.77 416,1212.12L416,1213.39C416,1213.74 416.448,1214.02 417,1214.02L418,1214.02C418.552,1214.02 419,1213.74 419,1213.39L419,1212.12ZM409,1208.3C409,1207.95 408.552,1207.66 408,1207.66L407,1207.66C406.448,1207.66 406,1207.95 406,1208.3L406,1209.57C406,1209.92 406.448,1210.21 407,1210.21L408,1210.21C408.552,1210.21 409,1209.92 409,1209.57L409,1208.3ZM414,1208.3C414,1207.95 413.552,1207.66 413,1207.66L412,1207.66C411.448,1207.66 411,1207.95 411,1208.3L411,1209.57C411,1209.92 411.448,1210.21 412,1210.21L413,1210.21C413.552,1210.21 414,1209.92 414,1209.57L414,1208.3ZM419,1208.3C419,1207.95 418.552,1207.66 418,1207.66L417,1207.66C416.448,1207.66 416,1207.95 416,1208.3L416,1209.57C416,1209.92 416.448,1210.21 417,1210.21L418,1210.21C418.552,1210.21 419,1209.92 419,1209.57L419,1208.3Z" style="fill:rgb(58,62,70);"/></g></g></g></svg>