<?xml version="1.0" encoding="UTF-8" standalone="no"?><!DOCTYPE svg PUBLIC "-//W3C//DTD SVG 1.1//EN" "http://www.w3.org/Graphics/SVG/1.1/DTD/svg11.dtd"><svg width="92px" height="96px" version="1.1" xmlns="http://www.w3.org/2000/svg" xmlns:xlink="http://www.w3.org/1999/xlink" xml:space="preserve" xmlns:serif="http://www.serif.com/" style="fill-rule:evenodd;clip-rule:evenodd;stroke-linejoin:round;stroke-miterlimit:2;"><g transform="matrix(4.16667,0,0,4.16667,-1100,-458.333)"><g id="ll-icon-pencil-items" transform="matrix(1,0,0,1,-352,-924)"><path d="M635.445,1039.69C635.721,1039.21 635.558,1038.6 635.079,1038.33C634.801,1038.16 634.492,1037.99 634.213,1037.83C633.735,1037.55 633.123,1037.71 632.847,1038.19C631.047,1041.31 625,1051.78 625,1051.78L624,1056.29L627.598,1053.28C627.598,1053.28 633.645,1042.81 635.445,1039.69ZM622.456,1056L617,1056C616.448,1056 616,1055.55 616,1055L616,1054C616,1053.45 616.447,1053 617,1053L623.251,1053L622.456,1056ZM632,1056L626.565,1056L628.705,1054.22C628.886,1054.07 629.039,1053.88 629.157,1053.68L629.55,1053L632,1053C632.553,1053 633,1053.45 633,1054L633,1055C633,1055.55 632.554,1056 632,1056ZM623.798,1051L617,1051C616.448,1051 616,1050.55 616,1050L616,1049C616,1048.45 616.447,1048 617,1048L625.509,1048L623.916,1050.76C623.872,1050.84 623.832,1050.91 623.798,1051ZM632,1051L630.705,1051L632.391,1048.08C632.749,1048.23 633,1048.59 633,1049L633,1050C633,1050.55 632.554,1051 632,1051ZM626.664,1046L617,1046C616.448,1046 616,1045.55 616,1045L616,1044C616,1043.45 616.447,1043 617,1043L628.396,1043L626.664,1046ZM629.55,1041L617,1041C616.448,1041 616,1040.55 616,1040L616,1039C616,1038.45 616.447,1038 617,1038L631.282,1038L629.55,1041ZM637.392,1036C637.668,1035.52 637.504,1034.91 637.026,1034.63L636.16,1034.13C635.682,1033.86 635.07,1034.02 634.794,1034.5L634.294,1035.37C634.018,1035.84 634.182,1036.46 634.66,1036.73L635.526,1037.23C636.004,1037.51 636.616,1037.34 636.892,1036.87L637.392,1036Z" style="fill:rgb(58,62,70);"/></g></g></svg>