<?xml version="1.0" encoding="UTF-8" standalone="no"?><!DOCTYPE svg PUBLIC "-//W3C//DTD SVG 1.1//EN" "http://www.w3.org/Graphics/SVG/1.1/DTD/svg11.dtd"><svg width="92px" height="92px" version="1.1" xmlns="http://www.w3.org/2000/svg" xmlns:xlink="http://www.w3.org/1999/xlink" xml:space="preserve" xmlns:serif="http://www.serif.com/" style="fill-rule:evenodd;clip-rule:evenodd;stroke-linejoin:round;stroke-miterlimit:2;"><g transform="matrix(4.16667,0,0,4.16667,-3133.33,-458.333)"><g transform="matrix(1,0,0,1,268,-814)"><path id="ll-icon-person-professional-co" d="M497.5,940.167L501,940.167C503.759,940.167 506,942.407 506,945.167L506,946L484,946L484,945.167C484,942.407 486.24,940.167 489,940.167L492.5,940.167L492.5,938.632C490.378,937.676 488.9,935.543 488.9,933.067L488.9,930.267C488.9,926.9 491.633,924.167 495,924.167C498.367,924.167 501.1,926.9 501.1,930.267L501.1,933.067C501.1,935.543 499.621,937.676 497.5,938.632L497.5,940.167ZM503,943C503,942.448 502.552,942 502,942L499,942C498.448,942 498,942.448 498,943C498,943.552 498.448,944 499,944L502,944C502.552,944 503,943.552 503,943Z" style="fill:rgb(58,62,70);"/></g></g></svg>