<?xml version="1.0" encoding="UTF-8" standalone="no"?><!DOCTYPE svg PUBLIC "-//W3C//DTD SVG 1.1//EN" "http://www.w3.org/Graphics/SVG/1.1/DTD/svg11.dtd"><svg width="92px" height="92px" version="1.1" xmlns="http://www.w3.org/2000/svg" xmlns:xlink="http://www.w3.org/1999/xlink" xml:space="preserve" xmlns:serif="http://www.serif.com/" style="fill-rule:evenodd;clip-rule:evenodd;stroke-linejoin:round;stroke-miterlimit:2;"><g transform="matrix(4.16667,0,0,4.16667,-4491.67,-116.667)"><g id="ll-icon-puzzle" transform="matrix(1.3,0,0,1.3,162.858,-1402.09)"><path d="M720.954,1111.39L720.954,1116.3C720.954,1116.72 720.609,1117.07 720.184,1117.07L715.737,1117.07L715.571,1114.68C715.541,1114.26 715.173,1113.94 714.75,1113.97L711.987,1114.16C711.564,1114.19 711.244,1114.56 711.274,1114.98L711.419,1117.07L707.877,1117.07C707.452,1117.07 707.107,1116.72 707.107,1116.3L707.107,1110.98L704.94,1111.13C704.516,1111.16 704.148,1110.85 704.119,1110.42L703.958,1108.12C703.928,1107.7 704.248,1107.33 704.671,1107.3L707.107,1107.13L707.107,1103.99C707.107,1103.56 707.452,1103.22 707.877,1103.22L711.367,1103.22L711.215,1101.05C711.185,1100.63 711.505,1100.26 711.929,1100.23L714.231,1100.07C714.654,1100.04 715.022,1100.36 715.052,1100.78L715.222,1103.22L720.184,1103.22C720.609,1103.22 720.954,1103.56 720.954,1103.99L720.954,1107.38L718.516,1107.55C718.092,1107.58 717.772,1107.95 717.802,1108.37L717.974,1110.83C718.003,1111.25 718.371,1111.57 718.795,1111.54L720.954,1111.39Z" style="fill:rgb(58,62,70);"/></g></g></svg>