<?xml version="1.0" encoding="UTF-8" standalone="no"?><!DOCTYPE svg PUBLIC "-//W3C//DTD SVG 1.1//EN" "http://www.w3.org/Graphics/SVG/1.1/DTD/svg11.dtd"><svg width="92px" height="92px" version="1.1" xmlns="http://www.w3.org/2000/svg" xmlns:xlink="http://www.w3.org/1999/xlink" xml:space="preserve" xmlns:serif="http://www.serif.com/" style="fill-rule:evenodd;clip-rule:evenodd;stroke-linejoin:round;stroke-miterlimit:2;"><g transform="matrix(4.16667,0,0,4.16667,-3033.33,-458.333)"><g transform="matrix(1,0,0,1,244,-813.833)"><path id="ll-icon-person-professional" d="M492.95,945.833L484,945.833L484,945C484,942.24 486.24,940 489,940L492.239,940C492.378,941.18 492.733,944.164 492.95,945.833ZM492.5,939.67L492.5,938.465C490.378,937.51 488.9,935.376 488.9,932.9L488.9,930.1C488.9,926.733 491.633,924 495,924C498.367,924 501.1,926.733 501.1,930.1L501.1,932.9C501.1,935.376 499.622,937.51 497.5,938.465L497.5,939.67C496.941,939.955 495.771,940.5 495,940.5C494.229,940.5 493.059,939.955 492.5,939.67ZM497.761,940L501,940C503.76,940 506,942.24 506,945L506,945.833L497.051,945.833C497.269,944.163 497.622,941.18 497.761,940Z" style="fill:rgb(58,62,70);"/></g></g></svg>