<?xml version="1.0" encoding="UTF-8" standalone="no"?><!DOCTYPE svg PUBLIC "-//W3C//DTD SVG 1.1//EN" "http://www.w3.org/Graphics/SVG/1.1/DTD/svg11.dtd"><svg width="92px" height="92px" version="1.1" xmlns="http://www.w3.org/2000/svg" xmlns:xlink="http://www.w3.org/1999/xlink" xml:space="preserve" xmlns:serif="http://www.serif.com/" style="fill-rule:evenodd;clip-rule:evenodd;stroke-linejoin:round;stroke-miterlimit:2;"><g transform="matrix(4.16667,0,0,4.16667,-5500,-116.667)"><g id="ll-icon-pushpin" transform="matrix(1,0,0,1.5724,789.687,-2021.94)"><g transform="matrix(0.235702,0.149899,-0.5554,0.353217,287.33,182.358)"><path d="M4307,1357.27C4307,1356.57 4305.66,1356 4304,1356C4303.03,1356 4301.97,1356 4301,1356C4299.34,1356 4298,1356.57 4298,1357.27C4298,1362.37 4298,1381 4298,1381L4302.16,1387.6L4307,1381C4307,1381 4307,1362.37 4307,1357.27Z" style="fill:rgb(58,62,70);"/></g><g transform="matrix(0.864242,0.549631,-0.707107,0.449698,1159.52,297.937)"><path d="M568,1554C568,1553.45 567.633,1553 567.182,1553L559.818,1553C559.367,1553 559,1553.45 559,1554L559,1555C559,1555.55 559.367,1556 559.818,1556L567.182,1556C567.633,1556 568,1555.55 568,1555L568,1554Z" style="fill:rgb(58,62,70);"/></g><g transform="matrix(1.02138,0.649563,-0.942809,0.599597,1429.59,13.5535)"><path d="M568,1553.75C568,1553.34 567.69,1553 567.308,1553L559.692,1553C559.31,1553 559,1553.34 559,1553.75L559,1555.25C559,1555.66 559.31,1556 559.692,1556L567.308,1556C567.69,1556 568,1555.66 568,1555.25L568,1553.75Z" style="fill:rgb(58,62,70);"/></g><g transform="matrix(0.989949,0.629577,-0.785674,0.499664,1210.96,175.256)"><rect x="561" y="1555" width="5" height="9" style="fill:rgb(58,62,70);"/></g></g></g></svg>