<?xml version="1.0" encoding="UTF-8" standalone="no"?><!DOCTYPE svg PUBLIC "-//W3C//DTD SVG 1.1//EN" "http://www.w3.org/Graphics/SVG/1.1/DTD/svg11.dtd"><svg width="92px" height="92px" version="1.1" xmlns="http://www.w3.org/2000/svg" xmlns:xlink="http://www.w3.org/1999/xlink" xml:space="preserve" xmlns:serif="http://www.serif.com/" style="fill-rule:evenodd;clip-rule:evenodd;stroke-linejoin:round;stroke-miterlimit:2;"><g id="ll-icon-palmtree"><path d="M91.667,83.333C91.667,81.034 89.8,79.167 87.5,79.167L4.167,79.167C1.867,79.167 0,81.034 0,83.333L0,87.5C0,89.8 1.867,91.667 4.167,91.667L87.5,91.667C89.8,91.667 91.667,89.8 91.667,87.5L91.667,83.333Z" style="fill:#3a3e46;"/><path d="M18.69,50.821C18.655,51.418 18.235,51.922 17.654,52.064C17.073,52.207 16.468,51.953 16.161,51.44C15.953,51.126 15.765,50.798 15.584,50.464C9.331,38.976 12.889,24.95 23.525,19.161C32.039,14.527 42.525,16.568 49.568,23.476C44.246,23.093 38.838,24.168 33.905,26.853C24.928,31.74 19.572,40.843 18.69,50.821Z" style="fill:#3a3e46;"/><path d="M71.709,49.901C71.865,50.958 72.69,51.791 73.746,51.956C74.801,52.122 75.842,51.582 76.315,50.624C76.678,50.036 76.963,49.403 77.222,48.752C82.061,36.601 76.125,22.808 63.974,17.969C54.972,14.384 45.069,16.713 38.574,23.12C42.889,23.016 47.282,23.761 51.532,25.453C62.382,29.775 69.673,39.225 71.709,49.901Z" style="fill:#3a3e46;"/><path d="M86.574,22.759C87.052,23.109 87.704,23.097 88.169,22.73C88.634,22.363 88.797,21.731 88.568,21.185C88.43,20.816 88.271,20.453 88.103,20.093C81.736,6.39 65.441,0.435 51.738,6.803C42.349,11.166 36.598,20.19 35.96,29.844C39.403,25.644 43.846,22.144 49.112,19.697C61.696,13.85 75.85,15.467 86.574,22.759Z" style="fill:#3a3e46;"/><path d="M6.901,12.395C6.488,12.452 6.083,12.243 5.889,11.873C5.696,11.503 5.755,11.051 6.038,10.744C6.365,10.385 6.705,10.036 7.058,9.694C17.508,-0.449 34.23,-0.195 44.377,10.259C50.56,16.63 52.884,25.328 51.368,33.448C49.659,29.139 47.271,24.897 43.653,21.557C38.661,16.948 21.659,10.802 6.901,12.395Z" style="fill:#3a3e46;"/><path d="M40.387,32.691C40.655,30.678 42.38,29.179 44.412,29.195C44.414,29.194 44.416,29.194 44.419,29.194C45.32,29.202 46.168,29.625 46.717,30.34C47.266,31.056 47.455,31.984 47.229,32.857C46.634,36.581 46.33,43.21 48.375,52.782C51.747,68.559 60.841,80.792 60.841,80.792L42.779,80.194C42.779,80.194 36.904,66.316 37.55,57.3C38.023,50.688 39.586,38.645 40.387,32.691Z" style="fill:#3a3e46;"/></g></svg>