<?xml version="1.0" encoding="UTF-8" standalone="no"?><!DOCTYPE svg PUBLIC "-//W3C//DTD SVG 1.1//EN" "http://www.w3.org/Graphics/SVG/1.1/DTD/svg11.dtd"><svg width="130px" height="92px" version="1.1" xmlns="http://www.w3.org/2000/svg" xmlns:xlink="http://www.w3.org/1999/xlink" xml:space="preserve" xmlns:serif="http://www.serif.com/" style="fill-rule:evenodd;clip-rule:evenodd;stroke-linejoin:round;stroke-miterlimit:2;"><g id="ll-icon-protect"><path d="M40.592,83.297l-0.641,0c-1.229,-0.005 -2.389,-0.566 -3.156,-1.526c-0.766,-0.959 -1.058,-2.214 -0.792,-3.414c1.601,-7.767 6.765,-13.738 21.384,-13.328c0.813,0.023 0.946,-1.489 0.946,-2.28l0,-2.332c-5.903,-2.774 -7.703,-5.852 -9.061,-13.858c-0.336,-1.978 -0.127,-4.664 -0.122,-5.521c0.066,-13.248 7.632,-20.205 17.546,-20.205c9.914,0 17.545,8.07 17.546,20.205c0,0.87 0.482,4.18 -0.058,6.157c-2.22,8.128 -3.453,10.345 -9.184,13.222l0,2.565c0,0.79 0.136,1.947 0.948,1.911c15.685,-0.694 20.398,5.918 21.641,13.425c0.219,1.244 -0.123,2.52 -0.936,3.487c-0.812,0.967 -2.01,1.525 -3.273,1.524l-0.89,0c-0.061,-11.605 -7.001,-13.251 -19.603,-12.693c-0.569,0.025 -2.736,-1.575 -2.054,-8.136l0,-6.25c4.011,-2.013 5.871,-3.068 7.817,-8.634c0.178,-0.507 0.041,-5.784 0.041,-6.392c-0.001,-8.493 -5.341,-14.141 -12.279,-14.141c-6.939,0 -12.233,4.869 -12.28,14.141c-0.003,0.6 -0.024,5.414 0.085,5.947c1.146,5.566 4.152,7.138 8.283,9.079l0,6.25c0.273,6.861 -2.034,8.247 -2.603,8.231c-11.594,-0.325 -17.788,1.076 -19.305,12.566Z" style="fill:#3a3e46;"/><g id="Hand"><path id="Hand1" serif:id="Hand" d="M42.569,18.871c3.85,-3.569 7.917,-6.987 10.846,-8.556c7.422,-3.976 6.049,-4.114 4.191,-9.041c-1.858,-4.927 -22.481,5.986 -27.001,6.595c-2.269,0.305 -3.511,1.887 -3.511,1.887c0,0 -16.98,16.185 -17.696,19.695c-0.717,3.509 -0.274,5.804 -0.274,5.804c0,0 0.898,25.241 -0.833,32.124c-1.731,6.884 -10.269,14.571 -10.269,14.571l22.536,8.25l9.459,-13.974l3.377,-4.24c0,0 2.087,0.307 4.323,-4.586c2.236,-4.892 3.916,-9.445 2.709,-13.901c-1.206,-4.456 -4.082,-8.539 -2.282,-16.874c0.777,-3.601 1.44,-7.768 1.931,-11.337c0.217,-3.666 -0.271,-7.172 -0.271,-7.172c0,0 -0.693,-0.723 -4.529,0c-3.643,0.687 -3.296,0.879 -4.529,4.529c-1.565,4.631 -5.371,19.016 -5.2,23.435l-0.182,3.87l-3.946,0.372l-0.175,-5.921c-0.171,-4.42 1.505,-17.918 2.887,-22.607c1.381,-4.688 6.548,-8.056 10.413,-8.605c9.075,-1.29 8.03,5.637 8.03,5.637l-0.004,0.045Z" style="fill:#3a3e46;"/></g><g id="Hand2" serif:id="Hand"><path id="Hand3" serif:id="Hand" d="M90.314,18.458c-3.71,-3.415 -7.579,-6.635 -10.396,-8.143c-7.421,-3.976 -6.048,-4.114 -4.191,-9.041c1.858,-4.927 22.481,5.986 27.001,6.595c2.269,0.305 3.511,1.887 3.511,1.887c0,0 16.98,16.185 17.696,19.695c0.717,3.509 0.275,5.804 0.275,5.804c0,0 -0.899,25.241 0.832,32.124c1.731,6.884 10.269,14.571 10.269,14.571l-22.536,8.25l-9.458,-13.974l-3.378,-4.24c0,0 -2.087,0.307 -4.323,-4.586c-2.235,-4.892 -3.915,-9.445 -2.709,-13.901c1.206,-4.456 4.082,-8.539 2.283,-16.874c-1.156,-5.35 -2.057,-11.952 -2.544,-15.987l-0.025,-0.023c-0.05,-3.099 0.909,-2.499 0.909,-2.499c0,0 2.767,-0.614 4.529,0c3.5,1.22 3.295,0.879 4.529,4.529c1.564,4.631 4.715,12.353 5.199,23.435l0.183,3.87l3.945,0.372l0.175,-5.921c0.171,-4.42 -1.505,-17.918 -2.887,-22.607c-1.381,-4.688 -6.547,-8.056 -10.413,-8.605c-6.512,-0.926 -8.103,2.988 -8.476,5.269Z" style="fill:#3a3e46;"/></g></g></svg>