<?xml version="1.0" encoding="UTF-8" standalone="no"?><!DOCTYPE svg PUBLIC "-//W3C//DTD SVG 1.1//EN" "http://www.w3.org/Graphics/SVG/1.1/DTD/svg11.dtd"><svg width="92px" height="92px" version="1.1" xmlns="http://www.w3.org/2000/svg" xmlns:xlink="http://www.w3.org/1999/xlink" xml:space="preserve" xmlns:serif="http://www.serif.com/" style="fill-rule:evenodd;clip-rule:evenodd;stroke-linejoin:round;stroke-miterlimit:2;"><g id="ll-icon-printer"><path d="M75,79.167l-58.333,0l0,8.333c0,2.3 1.867,4.167 4.166,4.167l50,0c2.3,0 4.167,-1.867 4.167,-4.167l0,-8.333Z" style="fill:#3a3e46;"/><path d="M75,4.167c0,-2.3 -1.867,-4.167 -4.167,-4.167l-50,0c-2.299,0 -4.166,1.867 -4.166,4.167l0,33.333l58.333,0l0,-33.333Z" style="fill:#3a3e46;"/><path d="M87.5,41.667c2.304,0.004 4.167,1.869 4.167,4.166l0,33.334c0,2.299 -1.867,4.166 -4.167,4.166l-4.167,0l0,-8.333c0,-2.297 -1.863,-4.163 -4.166,-4.167l-66.667,0c-2.304,0.004 -4.167,1.87 -4.167,4.167l0,8.333l-4.166,0c-2.3,0 -4.167,-1.867 -4.167,-4.166l0,-33.334c0,-2.297 1.863,-4.162 4.167,-4.166l4.166,0c0.004,2.303 1.87,4.166 4.167,4.166l66.667,0c2.299,0 4.166,-1.867 4.166,-4.166l4.167,0Zm-4.167,16.666c0,-2.299 -1.867,-4.166 -4.166,-4.166c-2.3,0 -4.167,1.867 -4.167,4.166c0,2.3 1.867,4.167 4.167,4.167c2.299,0 4.166,-1.867 4.166,-4.167Z" style="fill:#3a3e46;"/></g></svg>