<?xml version="1.0" encoding="UTF-8" standalone="no"?><!DOCTYPE svg PUBLIC "-//W3C//DTD SVG 1.1//EN" "http://www.w3.org/Graphics/SVG/1.1/DTD/svg11.dtd"><svg width="92px" height="92px" version="1.1" xmlns="http://www.w3.org/2000/svg" xmlns:xlink="http://www.w3.org/1999/xlink" xml:space="preserve" xmlns:serif="http://www.serif.com/" style="fill-rule:evenodd;clip-rule:evenodd;stroke-linejoin:round;stroke-miterlimit:2;"><g id="ll-icon-person-missing"><path d="M56.25,60.271l-0,6.396l14.583,-0c11.499,-0 20.834,9.335 20.834,20.833l-0,4.167l-91.667,-0l0,-4.167c0,-11.498 9.335,-20.833 20.833,-20.833l14.584,-0l-0,-6.396c-8.84,-3.981 -15,-12.871 -15,-23.188l-0,-11.666c-0,-14.028 11.388,-25.417 25.416,-25.417c14.028,-0 25.417,11.389 25.417,25.417l-0,11.666c-0,10.317 -6.16,19.207 -15,23.188Zm-10.779,0.829c1.188,-0 2.234,-0.446 3.14,-1.339c0.906,-0.893 1.359,-2.12 1.359,-3.683c0,-1.406 -0.433,-2.588 -1.298,-3.548c-0.866,-0.96 -1.933,-1.44 -3.201,-1.44c-1.289,0 -2.376,0.48 -3.261,1.44c-0.886,0.96 -1.329,2.142 -1.329,3.548c-0,1.585 0.458,2.818 1.374,3.7c0.916,0.881 1.988,1.322 3.216,1.322Zm-14.736,-36.69c-0,1.026 0.388,1.98 1.163,2.862c0.775,0.882 1.726,1.322 2.853,1.322c1.913,0 3.211,-1.261 3.895,-3.782c0.725,-2.411 1.611,-4.235 2.658,-5.474c1.047,-1.239 2.677,-1.858 4.892,-1.858c1.892,0 3.437,0.614 4.635,1.841c1.197,1.228 1.796,2.734 1.796,4.52c0,0.915 -0.196,1.763 -0.589,2.544c-0.392,0.781 -0.875,1.49 -1.449,2.126c-0.574,0.636 -1.505,1.579 -2.793,2.828c-1.47,1.429 -2.637,2.662 -3.503,3.7c-0.865,1.037 -1.56,2.242 -2.083,3.615c-0.524,1.373 -0.786,2.996 -0.786,4.871c0,1.495 0.358,2.622 1.072,3.381c0.715,0.759 1.596,1.138 2.643,1.138c2.013,0 3.211,-1.16 3.593,-3.481c0.221,-1.094 0.388,-1.858 0.498,-2.294c0.111,-0.435 0.267,-0.87 0.468,-1.305c0.202,-0.435 0.509,-0.915 0.921,-1.44c0.413,-0.524 0.962,-1.132 1.646,-1.824c2.476,-2.455 4.192,-4.201 5.148,-5.239c0.957,-1.038 1.782,-2.271 2.477,-3.699c0.694,-1.429 1.041,-3.091 1.041,-4.988c0,-2.411 -0.609,-4.642 -1.827,-6.696c-1.217,-2.053 -2.944,-3.676 -5.178,-4.87c-2.235,-1.194 -4.812,-1.791 -7.73,-1.791c-3.141,-0 -5.889,0.714 -8.244,2.142c-2.355,1.428 -4.147,3.231 -5.375,5.407c-1.228,2.176 -1.842,4.324 -1.842,6.444Z" style="fill:#3a3e46;"/></g></svg>