<?xml version="1.0" encoding="UTF-8" standalone="no"?><!DOCTYPE svg PUBLIC "-//W3C//DTD SVG 1.1//EN" "http://www.w3.org/Graphics/SVG/1.1/DTD/svg11.dtd"><svg width="92px" height="92px" version="1.1" xmlns="http://www.w3.org/2000/svg" xmlns:xlink="http://www.w3.org/1999/xlink" xml:space="preserve" xmlns:serif="http://www.serif.com/" style="fill-rule:evenodd;clip-rule:evenodd;stroke-linejoin:round;stroke-miterlimit:2;"><path id="ll-icon-phone" d="M75,0c2.304,0.004 4.167,1.869 4.167,4.167l0,83.333c0,2.3 -1.867,4.167 -4.167,4.167l-54.167,0c-2.299,0 -4.166,-1.867 -4.166,-4.167l0,-83.333c0,-2.298 1.863,-4.163 4.166,-4.167l54.167,0Zm-22.917,75l-8.333,0c-1.153,0.004 -2.083,0.936 -2.083,2.083l0,4.167c0,1.15 0.933,2.083 2.083,2.083l8.333,0c1.15,0 2.084,-0.933 2.084,-2.083l0,-4.167c0,-1.147 -0.93,-2.079 -2.084,-2.083Zm10.417,-50l-29.167,0c-2.303,0.004 -4.166,1.869 -4.166,4.167l0,33.333c0,2.3 1.867,4.167 4.166,4.167l29.167,0c2.3,0 4.167,-1.867 4.167,-4.167l0,-33.333c0,-2.298 -1.863,-4.163 -4.167,-4.167Zm0,-16.667l-29.167,0c-2.303,0.004 -4.166,1.87 -4.166,4.167c0,2.3 1.867,4.167 4.166,4.167l29.167,0c2.3,0 4.167,-1.867 4.167,-4.167c0,-2.297 -1.863,-4.163 -4.167,-4.167Z" style="fill:#3a3e46;"/></svg>