<?xml version="1.0" encoding="UTF-8" standalone="no"?><!DOCTYPE svg PUBLIC "-//W3C//DTD SVG 1.1//EN" "http://www.w3.org/Graphics/SVG/1.1/DTD/svg11.dtd"><svg width="92px" height="92px" version="1.1" xmlns="http://www.w3.org/2000/svg" xmlns:xlink="http://www.w3.org/1999/xlink" xml:space="preserve" xmlns:serif="http://www.serif.com/" style="fill-rule:evenodd;clip-rule:evenodd;stroke-linejoin:round;stroke-miterlimit:2;"><g transform="matrix(4.16667,0,0,4.16667,-3483.33,-458.333)"><g transform="matrix(1,0,0,1.5724,-24,-1895.94)"><g id="ll-icon-person-shield"><path id="ll-icon-person-shield1" serif:id="ll-icon-person-shield" d="M869.984,1287.16L860,1287.16C860,1285.44 862.2,1284.04 864.909,1284.04L866.955,1284.04L866.955,1283.24C865.219,1282.74 864.009,1281.63 864.009,1280.34L864.009,1278.89C864.009,1277.14 866.245,1275.71 869,1275.71C871.755,1275.71 873.991,1277.14 873.991,1278.89L873.991,1280.34C873.991,1280.77 873.862,1281.17 873.628,1281.53C872.222,1281.61 870.782,1281.72 869.877,1281.79C869.352,1281.84 868.969,1282.13 869.002,1282.46C869.062,1283.09 869.163,1284.11 869.267,1285.16C869.335,1285.86 869.582,1286.53 869.984,1287.16ZM881.885,1283.62L881.698,1285.52C881.54,1287.13 880.05,1288.56 877.787,1289.28L876.443,1289.7L876.129,1289.61C873.228,1288.68 871.319,1286.85 871.116,1284.79C871.072,1284.34 871.032,1283.93 871.002,1283.62C870.969,1283.28 871.355,1282.99 871.882,1282.95C873.086,1282.86 875.166,1282.71 876.413,1282.71C877.664,1282.71 879.783,1282.86 881.002,1282.95C881.53,1282.99 881.918,1283.29 881.885,1283.62Z" style="fill:rgb(58,62,70);"/></g></g></g></svg>