<?xml version="1.0" encoding="UTF-8" standalone="no"?><!DOCTYPE svg PUBLIC "-//W3C//DTD SVG 1.1//EN" "http://www.w3.org/Graphics/SVG/1.1/DTD/svg11.dtd"><svg width="92px" height="92px" version="1.1" xmlns="http://www.w3.org/2000/svg" xmlns:xlink="http://www.w3.org/1999/xlink" xml:space="preserve" xmlns:serif="http://www.serif.com/" style="fill-rule:evenodd;clip-rule:evenodd;stroke-linejoin:round;stroke-miterlimit:2;"><g transform="matrix(4.16667,0,0,4.16667,-5316.67,-116.667)"><g id="ll-icon-pushpin-round" transform="matrix(1,0,0,1.5724,789.687,-2021.94)"><g transform="matrix(0.235702,0.149899,-0.5554,0.353217,243.33,182.358)"><path d="M4307,1357.27C4307,1356.57 4305.66,1356 4304,1356C4303.03,1356 4301.97,1356 4301,1356C4299.34,1356 4298,1356.57 4298,1357.27C4298,1362.37 4298,1381 4298,1381L4302.16,1387.6L4307,1381C4307,1381 4307,1362.37 4307,1357.27Z" style="fill:rgb(58,62,70);"/></g><g transform="matrix(0.9,0,0,0.572372,50.2131,414.23)"><circle cx="504" cy="1559" r="5" style="fill:rgb(58,62,70);"/></g></g></g></svg>