<?xml version="1.0" encoding="UTF-8" standalone="no"?><!DOCTYPE svg PUBLIC "-//W3C//DTD SVG 1.1//EN" "http://www.w3.org/Graphics/SVG/1.1/DTD/svg11.dtd"><svg width="92px" height="92px" version="1.1" xmlns="http://www.w3.org/2000/svg" xmlns:xlink="http://www.w3.org/1999/xlink" xml:space="preserve" xmlns:serif="http://www.serif.com/" style="fill-rule:evenodd;clip-rule:evenodd;stroke-linejoin:round;stroke-miterlimit:2;"><g transform="matrix(4.16667,0,0,4.16667,-458.333,-916.667)"><g transform="matrix(1,0,0,1.04235,-1014,-782.473)"><g id="ll-icon-people-data"><path id="ll-icon-people-data1" serif:id="ll-icon-people-data" d="M1145,979.971C1145.55,979.971 1146,979.541 1146,979.012L1146,964.621C1146,964.092 1145.55,963.662 1145,963.662L1125,963.662C1124.45,963.662 1124,964.092 1124,964.621L1124,979.012C1124,979.541 1124.45,979.971 1125,979.971L1145,979.971ZM1144,976.134C1144,975.604 1143.55,975.174 1143,975.174L1127,975.174C1126.45,975.174 1126,975.604 1126,976.134L1126,977.093C1126,977.623 1126.45,978.052 1127,978.052L1143,978.052C1143.55,978.052 1144,977.623 1144,977.093L1144,976.134ZM1144,971.337C1144,970.807 1143.55,970.377 1143,970.377L1137,970.377C1136.45,970.377 1136,970.807 1136,971.337L1136,972.296C1136,972.826 1136.45,973.256 1137,973.256L1143,973.256C1143.55,973.256 1144,972.826 1144,972.296L1144,971.337ZM1134,966.54C1134,966.01 1133.55,965.581 1133,965.581L1127,965.581C1126.45,965.581 1126,966.01 1126,966.54L1126,972.296C1126,972.826 1126.45,973.256 1127,973.256L1133,973.256C1133.55,973.256 1134,972.826 1134,972.296L1134,966.54ZM1129.32,970.423C1128.74,970.173 1128.34,969.615 1128.34,968.967L1128.34,968.235C1128.34,967.354 1129.08,966.639 1130,966.639C1130.92,966.639 1131.66,967.354 1131.66,968.235L1131.66,968.967C1131.66,969.615 1131.26,970.173 1130.68,970.423L1130.68,970.825L1131.64,970.825C1132.39,970.825 1133,971.411 1133,972.133L1133,972.351L1127,972.351L1127,972.133C1127,971.411 1127.61,970.825 1128.36,970.825L1129.32,970.825L1129.32,970.423ZM1144,966.54C1144,966.01 1143.55,965.581 1143,965.581L1137,965.581C1136.45,965.581 1136,966.01 1136,966.54L1136,967.499C1136,968.029 1136.45,968.459 1137,968.459L1143,968.459C1143.55,968.459 1144,968.029 1144,967.499L1144,966.54Z" style="fill:rgb(58,62,70);"/></g></g></g></svg>