<?xml version="1.0" encoding="UTF-8" standalone="no"?><!DOCTYPE svg PUBLIC "-//W3C//DTD SVG 1.1//EN" "http://www.w3.org/Graphics/SVG/1.1/DTD/svg11.dtd"><svg width="92px" height="92px" version="1.1" xmlns="http://www.w3.org/2000/svg" xmlns:xlink="http://www.w3.org/1999/xlink" xml:space="preserve" xmlns:serif="http://www.serif.com/" style="fill-rule:evenodd;clip-rule:evenodd;stroke-linejoin:round;stroke-miterlimit:2;"><g transform="matrix(4.16667,0,0,4.16667,-4491.67,-116.667)"><g id="ll-icon-padlock-closed"><g transform="matrix(1.14286,0,0,0.545455,695.857,-538)"><path d="M351,1057.83C351,1056.82 350.608,1056 350.125,1056L337.875,1056C337.392,1056 337,1056.82 337,1057.83L337,1076.17C337,1077.18 337.392,1078 337.875,1078L350.125,1078C350.608,1078 351,1077.18 351,1076.17L351,1057.83Z" style="fill:rgb(58,62,70);"/></g><g transform="matrix(1,0,0,2.57143,219,-3155.57)"><path d="M867,1240.39C867,1240.17 866.552,1240 866,1240L865,1240C864.448,1240 864,1240.17 864,1240.39L864,1242.72C864,1242.94 864.448,1243.11 865,1243.11L866,1243.11C866.552,1243.11 867,1242.94 867,1242.72L867,1240.39Z" style="fill:rgb(58,62,70);"/></g><g transform="matrix(1,0,0,2.57143,228,-3155.57)"><path d="M867,1240.39C867,1240.17 866.552,1240 866,1240L865,1240C864.448,1240 864,1240.17 864,1240.39L864,1242.72C864,1242.94 864.448,1243.11 865,1243.11L866,1243.11C866.552,1243.11 867,1242.94 867,1242.72L867,1240.39Z" style="fill:rgb(58,62,70);"/></g><g transform="matrix(1,0,0,0.642857,228,-764.143)"><path d="M867,1241.56C867,1240.7 866.552,1240 866,1240L865,1240C864.448,1240 864,1240.7 864,1241.56C864,1242.41 864.448,1243.11 865,1243.11L866,1243.11C866.552,1243.11 867,1242.41 867,1241.56Z" style="fill:rgb(58,62,70);"/></g><g transform="matrix(1,0,0,1,219,-1204)"><path d="M864,1238C864,1234.69 866.689,1232 870,1232C873.311,1232 876,1234.69 876,1238L873,1238C873,1236.34 871.656,1235 870,1235C868.344,1235 867,1236.34 867,1238L864,1238Z" style="fill:rgb(58,62,70);"/></g></g></g></svg>