<?xml version="1.0" encoding="UTF-8" standalone="no"?><!DOCTYPE svg PUBLIC "-//W3C//DTD SVG 1.1//EN" "http://www.w3.org/Graphics/SVG/1.1/DTD/svg11.dtd"><svg width="92px" height="92px" version="1.1" xmlns="http://www.w3.org/2000/svg" xmlns:xlink="http://www.w3.org/1999/xlink" xml:space="preserve" xmlns:serif="http://www.serif.com/" style="fill-rule:evenodd;clip-rule:evenodd;stroke-linejoin:round;stroke-miterlimit:2;"><g transform="matrix(4.16667,0,0,4.16667,-4400,-116.667)"><g id="ll-icon-padlock-open" transform="matrix(1,0,0,1,198,-1204)"><path d="M866,1238L866,1242L876,1242C876.553,1242 877,1242.45 877,1243L877,1253C877,1253.55 876.553,1254 876,1254L862,1254C861.448,1254 861,1253.55 861,1253L861,1243C861,1242.45 861.447,1242 862,1242L863,1242L863,1238C863.001,1234.69 865.689,1232 869,1232C872.311,1232 875,1234.69 875,1238C875,1238.55 874.553,1239 874,1239L873,1239C872.448,1239 872,1238.55 872,1238C871.999,1236.34 870.655,1235 869,1235C867.344,1235 866,1236.34 866,1238Z" style="fill:rgb(58,62,70);"/></g></g></svg>