<?xml version="1.0" encoding="UTF-8" standalone="no"?><!DOCTYPE svg PUBLIC "-//W3C//DTD SVG 1.1//EN" "http://www.w3.org/Graphics/SVG/1.1/DTD/svg11.dtd"><svg width="80px" height="92px" version="1.1" xmlns="http://www.w3.org/2000/svg" xmlns:xlink="http://www.w3.org/1999/xlink" xml:space="preserve" xmlns:serif="http://www.serif.com/" style="fill-rule:evenodd;clip-rule:evenodd;stroke-linejoin:round;stroke-miterlimit:2;"><g transform="matrix(4.16667,0,0,4.16667,-4075,-116.667)"><g id="ll-icon-report" transform="matrix(1,0,0,1,0.0280535,0.312198)"><path d="M980.972,30.688C980.972,30.688 980.972,45.688 980.972,45.688C980.972,46.24 981.42,46.688 981.972,46.688L991.972,46.688L991.972,48.688C991.972,49.24 991.524,49.688 990.972,49.688L978.972,49.688C978.42,49.688 977.972,49.24 977.972,48.688L977.972,31.688C977.972,31.136 978.42,30.688 978.972,30.688L980.972,30.688ZM996.972,28.688C996.972,28.136 996.524,27.688 995.972,27.688L983.972,27.688C983.42,27.688 982.972,28.136 982.972,28.688L982.972,43.688C982.972,44.24 983.42,44.688 983.972,44.688L995.972,44.688C996.524,44.688 996.972,44.24 996.972,43.688L996.972,28.688ZM991.962,33.678C991.41,33.678 990.962,34.126 990.962,34.678L990.962,40.678C990.962,41.23 991.41,41.678 991.962,41.678L992.962,41.678C993.514,41.678 993.962,41.23 993.962,40.678L993.962,34.678C993.962,34.126 993.514,33.678 992.962,33.678L991.962,33.678ZM986.982,35.678C986.43,35.678 985.982,36.126 985.982,36.678L985.982,40.678C985.982,41.23 986.43,41.678 986.982,41.678L987.982,41.678C988.533,41.678 988.982,41.23 988.982,40.678L988.982,36.678C988.982,36.126 988.533,35.678 987.982,35.678L986.982,35.678Z" style="fill:rgb(58,62,70);"/></g></g></svg>