<?xml version="1.0" encoding="UTF-8" standalone="no"?><!DOCTYPE svg PUBLIC "-//W3C//DTD SVG 1.1//EN" "http://www.w3.org/Graphics/SVG/1.1/DTD/svg11.dtd"><svg width="92px" height="92px" version="1.1" xmlns="http://www.w3.org/2000/svg" xmlns:xlink="http://www.w3.org/1999/xlink" xml:space="preserve" xmlns:serif="http://www.serif.com/" style="fill-rule:evenodd;clip-rule:evenodd;stroke-linejoin:round;stroke-miterlimit:2;"><g transform="matrix(4.16667,0,0,4.16667,-4125,-5408.33)"><path id="ll-icon-roadsign" d="M1001.5,1298C1002.05,1298 1002.5,1298.45 1002.5,1299L1002.5,1303L1010,1303L1010,1308L1002.5,1308L1002.5,1319C1002.5,1319.55 1002.05,1320 1001.5,1320L1000.5,1320C999.948,1320 999.5,1319.55 999.5,1319L999.5,1306.5L992,1306.5L992,1301.5L999.5,1301.5L999.5,1299C999.5,1298.45 999.947,1298 1000.5,1298L1001.5,1298ZM1012,1305.5L1010,1308L1010,1303L1012,1305.5ZM990,1304L992,1301.5L992,1306.5L990,1304Z" style="fill:rgb(58,62,70);"/></g></svg>