<?xml version="1.0" encoding="UTF-8" standalone="no"?><!DOCTYPE svg PUBLIC "-//W3C//DTD SVG 1.1//EN" "http://www.w3.org/Graphics/SVG/1.1/DTD/svg11.dtd"><svg width="92px" height="92px" version="1.1" xmlns="http://www.w3.org/2000/svg" xmlns:xlink="http://www.w3.org/1999/xlink" xml:space="preserve" xmlns:serif="http://www.serif.com/" style="fill-rule:evenodd;clip-rule:evenodd;stroke-linejoin:round;stroke-miterlimit:2;"><g transform="matrix(4.16667,0,0,4.16667,-5408.33,-320.833)"><g id="ll-icon-rocket"><g transform="matrix(0.166378,0.166378,-0.168654,0.168654,1230.77,11.3501)"><path d="M465.5,28C470.191,28 474,31.809 474,36.5C474,42.798 465.5,49.703 465.5,49.703C465.5,49.703 457,42.798 457,36.5C457,31.809 460.809,28 465.5,28Z" style="fill:rgb(58,62,70);"/></g><g transform="matrix(0.707107,0.707107,-1.11186,1.11186,2369.97,-1800.29)"><path d="M581.003,1321.82L581,1321.74C581,1319.83 585,1317.73 585,1317.73C585,1317.73 589,1319.83 589,1321.74L588.997,1321.82L589,1321.82L589,1325.96L591,1327.78C591.117,1327.88 591.18,1328.01 591.18,1328.14C591.18,1328.49 590.729,1328.78 590.18,1328.78L587.5,1328.78L587.5,1329.63L582.5,1329.63L582.5,1328.78L580.019,1328.78C579.471,1328.78 579.019,1328.49 579.019,1328.14C579.019,1328.01 579.082,1327.88 579.2,1327.78L581,1326.14L581,1321.82L581.003,1321.82ZM587.06,1321.31C587.06,1320.96 586.612,1320.67 586.06,1320.67L584.06,1320.67C583.508,1320.67 583.06,1320.96 583.06,1321.31L583.06,1322.58C583.06,1322.93 583.508,1323.22 584.06,1323.22L586.06,1323.22C586.612,1323.22 587.06,1322.93 587.06,1322.58L587.06,1321.31Z" style="fill:rgb(58,62,70);"/></g></g></g></svg>