<?xml version="1.0" encoding="UTF-8" standalone="no"?><!DOCTYPE svg PUBLIC "-//W3C//DTD SVG 1.1//EN" "http://www.w3.org/Graphics/SVG/1.1/DTD/svg11.dtd"><svg width="92px" height="92px" version="1.1" xmlns="http://www.w3.org/2000/svg" xmlns:xlink="http://www.w3.org/1999/xlink" xml:space="preserve" xmlns:serif="http://www.serif.com/" style="fill-rule:evenodd;clip-rule:evenodd;stroke-linejoin:round;stroke-miterlimit:2;"><g transform="matrix(4.16667,0,0,4.16667,-550,-458.333)"><g id="ll-icon-rewmove-sm"><g transform="matrix(0.53033,0.53033,-0.707107,0.707107,-19.7353,-376.197)"><path d="M624,230C624,229.448 623.403,229 622.667,229L621.333,229C620.597,229 620,229.448 620,230L620,243C620,243.552 620.597,244 621.333,244L622.667,244C623.403,244 624,243.552 624,243L624,230Z" style="fill:rgb(58,62,70);"/></g><g transform="matrix(0.53033,-0.53033,0.707107,0.707107,-354.189,283.541)"><path d="M624,230C624,229.448 623.403,229 622.667,229L621.333,229C620.597,229 620,229.448 620,230L620,243C620,243.552 620.597,244 621.333,244L622.667,244C623.403,244 624,243.552 624,243L624,230Z" style="fill:rgb(58,62,70);"/></g></g></g></svg>