<?xml version="1.0" encoding="UTF-8" standalone="no"?><!DOCTYPE svg PUBLIC "-//W3C//DTD SVG 1.1//EN" "http://www.w3.org/Graphics/SVG/1.1/DTD/svg11.dtd"><svg width="92px" height="92px" version="1.1" xmlns="http://www.w3.org/2000/svg" xmlns:xlink="http://www.w3.org/1999/xlink" xml:space="preserve" xmlns:serif="http://www.serif.com/" style="fill-rule:evenodd;clip-rule:evenodd;stroke-linejoin:round;stroke-miterlimit:2;"><g transform="matrix(4.16667,0,0,4.16667,-1283.33,-458.333)"><g id="ll-icon-reorder" transform="matrix(1,0,0,1,-418,-924)"><path d="M742,1056L727,1056C726.448,1056 726,1055.55 726,1055L726,1054C726,1053.45 726.447,1053 727,1053L739.728,1053C740.128,1054.31 741.199,1055.35 742.462,1055.89C742.326,1055.96 742.173,1056 742,1056ZM742.345,1039.65L740.707,1041.29C740.421,1041.58 739.991,1041.66 739.617,1041.51C739.244,1041.36 739,1040.99 739,1040.59C739,1037.92 739,1034 739,1034L745.586,1034C745.99,1034 746.355,1034.24 746.51,1034.62C746.664,1034.99 746.579,1035.42 746.293,1035.71L744.694,1037.31C746.251,1038.81 747.241,1041.23 747.659,1042.82C748.608,1046.4 747.518,1050.44 744.869,1053.16C744.869,1053.16 744.298,1053.65 743.699,1053.61C742.498,1053.53 741.873,1052.01 742.985,1050.78C745.725,1047.69 745.475,1042.55 742.345,1039.65ZM739.656,1051L727,1051C726.448,1051 726,1050.55 726,1050L726,1049C726,1048.45 726.447,1048 727,1048L741.294,1048C741.173,1048.22 741.033,1048.44 740.872,1048.64C740.209,1049.45 739.823,1050.24 739.656,1051ZM741.864,1046L727,1046C726.448,1046 726,1045.55 726,1045L726,1044C726,1043.45 726.447,1043 727,1043L736.827,1043C736.975,1043.21 737.145,1043.4 737.34,1043.57C738.764,1044.84 740.207,1044.83 741.654,1044.11C741.835,1044.72 741.907,1045.36 741.864,1046ZM736.045,1041L727,1041C726.448,1041 726,1040.55 726,1040L726,1039C726,1038.45 726.447,1038 727,1038L735.872,1038C735.849,1039.07 735.875,1040.09 736.045,1041Z" style="fill:rgb(58,62,70);"/></g></g></svg>