<?xml version="1.0" encoding="UTF-8" standalone="no"?><!DOCTYPE svg PUBLIC "-//W3C//DTD SVG 1.1//EN" "http://www.w3.org/Graphics/SVG/1.1/DTD/svg11.dtd"><svg width="92px" height="92px" version="1.1" xmlns="http://www.w3.org/2000/svg" xmlns:xlink="http://www.w3.org/1999/xlink" xml:space="preserve" xmlns:serif="http://www.serif.com/" style="fill-rule:evenodd;clip-rule:evenodd;stroke-linejoin:round;stroke-miterlimit:2;"><g transform="matrix(4.16667,0,0,4.16667,-3712.5,-458.333)"><g id="ll-icon-ribbon" transform="matrix(1,0,0,1.5724,774.977,-1567.08)"><path d="M130.28,1071.62C130.244,1071.64 130.21,1071.66 130.178,1071.68L128.73,1072.6C128.34,1072.85 128.34,1073.25 128.73,1073.5L130.145,1074.4L132.299,1073.03L132.361,1072.99L132.375,1073C133.383,1072.31 134,1071.4 134,1070.39C134,1068.28 131.311,1066.57 128,1066.57L126,1066.57C122.689,1066.57 120,1068.28 120,1070.39C120,1071.35 120.556,1072.22 121.475,1072.89C121.507,1072.92 121.544,1072.95 121.586,1072.97L133.223,1080.38C133.613,1080.62 134.247,1080.62 134.637,1080.38L136.051,1079.48L130.672,1076.06C130.619,1076.03 130.569,1076.01 130.523,1075.98L123.961,1071.8C123.913,1071.77 123.87,1071.74 123.834,1071.7C123.317,1071.36 123,1070.9 123,1070.39C123,1069.33 124.344,1068.48 126,1068.48L128,1068.48C129.656,1068.48 131,1069.33 131,1070.39C131,1070.86 130.729,1071.29 130.28,1071.62ZM117.927,1079.47L119.341,1080.37C119.731,1080.62 120.365,1080.62 120.755,1080.37L125.316,1077.47C125.706,1077.22 125.706,1076.82 125.316,1076.57L123.902,1075.67L117.927,1079.47Z" style="fill:rgb(58,62,70);"/></g></g></svg>