<?xml version="1.0" encoding="UTF-8" standalone="no"?><!DOCTYPE svg PUBLIC "-//W3C//DTD SVG 1.1//EN" "http://www.w3.org/Graphics/SVG/1.1/DTD/svg11.dtd"><svg width="92px" height="92px" version="1.1" xmlns="http://www.w3.org/2000/svg" xmlns:xlink="http://www.w3.org/1999/xlink" xml:space="preserve" xmlns:serif="http://www.serif.com/" style="fill-rule:evenodd;clip-rule:evenodd;stroke-linejoin:round;stroke-miterlimit:2;"><g id="ll-icon-remove"><path d="M88.864,10.356c1.626,-1.626 1.626,-4.266 0,-5.892l-2.946,-2.946c-1.626,-1.626 -4.266,-1.626 -5.893,0l-79.549,79.549c-1.626,1.626 -1.626,4.267 0,5.893l2.946,2.946c1.626,1.626 4.267,1.626 5.893,0l79.549,-79.55Z" style="fill:#3a3e46;"/><path d="M9.347,1.549c-1.627,-1.626 -4.267,-1.626 -5.893,0l-2.946,2.947c-1.626,1.626 -1.626,4.266 0,5.892l79.549,79.55c1.626,1.626 4.267,1.626 5.893,0l2.946,-2.947c1.626,-1.626 1.626,-4.266 0,-5.892l-79.549,-79.55Z" style="fill:#3a3e46;"/></g></svg>