<?xml version="1.0" encoding="UTF-8" standalone="no"?><!DOCTYPE svg PUBLIC "-//W3C//DTD SVG 1.1//EN" "http://www.w3.org/Graphics/SVG/1.1/DTD/svg11.dtd"><svg width="92px" height="92px" version="1.1" xmlns="http://www.w3.org/2000/svg" xmlns:xlink="http://www.w3.org/1999/xlink" xml:space="preserve" xmlns:serif="http://www.serif.com/" style="fill-rule:evenodd;clip-rule:evenodd;stroke-linejoin:round;stroke-miterlimit:2;"><g transform="matrix(4.16667,0,0,4.16667,-2933.33,-641.667)"><g transform="matrix(1,0,0,1.5724,-243.998,-2071.99)"><g id="ll-icon-share"><path id="ll-icon-share1" serif:id="ll-icon-share" d="M962,1418.17L961,1418.17C947.495,1418.17 948,1425.8 948,1429.62C949,1425.8 951.495,1421.99 961,1421.99L962,1421.99L962,1423.86C962,1424.12 962.244,1424.35 962.617,1424.45C962.991,1424.55 963.421,1424.49 963.707,1424.31C966.153,1422.76 970.364,1420.08 970.364,1420.08C970.364,1420.08 966.153,1417.4 963.707,1415.85C963.421,1415.66 962.991,1415.61 962.617,1415.71C962.244,1415.81 962,1416.04 962,1416.29L962,1418.17Z" style="fill:rgb(58,62,70);"/></g></g></g></svg>