<?xml version="1.0" encoding="UTF-8" standalone="no"?><!DOCTYPE svg PUBLIC "-//W3C//DTD SVG 1.1//EN" "http://www.w3.org/Graphics/SVG/1.1/DTD/svg11.dtd"><svg width="84px" height="92px" version="1.1" xmlns="http://www.w3.org/2000/svg" xmlns:xlink="http://www.w3.org/1999/xlink" xml:space="preserve" xmlns:serif="http://www.serif.com/" style="fill-rule:evenodd;clip-rule:evenodd;stroke-linejoin:round;stroke-miterlimit:2;"><g id="ll-icon-substitute"><path d="M41.667,50c0,-2.3 -1.867,-4.167 -4.167,-4.167l-8.333,0l0,41.667c0,2.3 1.867,4.167 4.166,4.167l4.167,0c2.3,0 4.167,-1.867 4.167,-4.167l0,-37.5Z" style="fill:#3a3e46;"/><path d="M76.483,16.852c1.626,-1.626 1.626,-4.267 0,-5.893l-2.946,-2.946c-1.626,-1.626 -4.266,-1.626 -5.892,0l-38.476,38.475l5.893,5.893c1.626,1.626 4.266,1.626 5.892,0l35.529,-35.529Z" style="fill:#3a3e46;"/><path d="M12.832,9.313c-1.626,-1.626 -4.267,-1.626 -5.893,0l-2.946,2.946c-1.626,1.626 -1.626,4.267 0,5.893l17.739,17.74c1.627,1.626 4.267,1.626 5.893,0l2.946,-2.947c1.626,-1.626 1.626,-4.266 0,-5.892l-17.739,-17.74Z" style="fill:#3a3e46;"/><path d="M83.518,27.441c0,1.685 -1.016,3.204 -2.573,3.849c-1.557,0.645 -3.349,0.289 -4.54,-0.903c-6.674,-6.674 -16.601,-16.6 -23.274,-23.274c-1.192,-1.192 -1.549,-2.984 -0.904,-4.541c0.645,-1.557 2.165,-2.572 3.85,-2.572c11.108,0 27.441,0 27.441,0l0,27.441Z" style="fill:#3a3e46;"/></g></svg>