<?xml version="1.0" encoding="UTF-8" standalone="no"?><!DOCTYPE svg PUBLIC "-//W3C//DTD SVG 1.1//EN" "http://www.w3.org/Graphics/SVG/1.1/DTD/svg11.dtd"><svg width="92px" height="92px" version="1.1" xmlns="http://www.w3.org/2000/svg" xmlns:xlink="http://www.w3.org/1999/xlink" xml:space="preserve" xmlns:serif="http://www.serif.com/" style="fill-rule:evenodd;clip-rule:evenodd;stroke-linejoin:round;stroke-miterlimit:2;"><g transform="matrix(4.16667,0,0,4.16667,-3208.33,-320.833)"><g id="ll-icon-speechbubble" transform="matrix(1,0,0,1,8.27141,-11.1905)"><g transform="matrix(1,0,0,1.07143,-118.271,-1066.81)"><path d="M902,1080.8C902,1079.26 900.656,1078 899,1078L883,1078C881.344,1078 880,1079.26 880,1080.8L880,1089.2C880,1090.75 881.344,1092 883,1092L899,1092C900.656,1092 902,1090.75 902,1089.2L902,1080.8Z" style="fill:rgb(58,62,70);"/></g><g transform="matrix(1,0,0,0.875,-117.771,-852.31)"><path d="M883,1100L884,1092L890,1092L883,1100Z" style="fill:rgb(58,62,70);"/></g></g></g></svg>