<?xml version="1.0" encoding="UTF-8" standalone="no"?><!DOCTYPE svg PUBLIC "-//W3C//DTD SVG 1.1//EN" "http://www.w3.org/Graphics/SVG/1.1/DTD/svg11.dtd"><svg width="92px" height="92px" version="1.1" xmlns="http://www.w3.org/2000/svg" xmlns:xlink="http://www.w3.org/1999/xlink" xml:space="preserve" xmlns:serif="http://www.serif.com/" style="fill-rule:evenodd;clip-rule:evenodd;stroke-linejoin:round;stroke-miterlimit:2;"><g transform="matrix(4.16667,0,0,4.16667,-2566.67,-458.333)"><g id="ll-icon-support"><g transform="matrix(0.317587,0.024092,-0.0171429,0.308448,540.598,69.7787)"><g id="Hand"><path id="Hand1" serif:id="Hand" d="M298.969,158.559C302.18,156.673 305.335,154.607 307,152.938C311.218,148.707 311.032,149.668 314,151.938C316.968,154.207 305.338,165.99 304,168.938C303.328,170.417 302,170.938 302,170.938C302,170.938 287.532,179.168 285,178.938C282.468,178.707 281,177.938 281,177.938C281,177.938 264.032,172.168 259,171.938C253.968,171.707 247,175.938 247,175.938L246,158.938L257.429,155.366L261,153.938C261,153.938 261.218,152.457 265,151.938C268.782,151.418 272.218,151.207 275,152.938C277.782,154.668 279.968,157.457 286,157.938C288.605,158.145 291.571,158.546 294.099,158.943C296.635,159.544 298.917,160.592 298.917,160.592C298.917,160.592 299.267,161.211 297.991,163.67C296.78,166.005 296.72,165.73 293.988,165.822C290.521,165.939 279.968,165.585 277,164.565L274.333,163.899L273.274,166.503L277.262,167.833C280.23,168.852 289.745,170.472 293.214,170.491C296.682,170.511 300.026,167.688 301.19,165.174C303.921,159.271 299,158.565 299,158.565L298.969,158.559Z" style="fill:rgb(58,62,70);"/></g></g><g transform="matrix(1,0,0,1.04235,262,-1002.47)"><path d="M359.068,1078.6C359.326,1076.97 360.328,1075.67 363.536,1075.75C363.704,1075.76 363.839,1075.74 363.839,1075.59L363.839,1074.74C362.62,1074.21 362.199,1073.74 361.861,1072.21C361.828,1072.06 361.835,1071.32 361.835,1071.15C361.849,1068.61 363.411,1067.27 365.458,1067.27C367.505,1067.27 369.081,1068.82 369.081,1071.15C369.081,1071.32 369.121,1072.19 369.069,1072.33C368.495,1073.86 368.249,1074.12 367.065,1074.67L367.065,1075.57C367.065,1075.72 367.201,1075.74 367.369,1075.73C371.317,1075.57 371.898,1077.49 371.904,1079.27L371.967,1080.84L371.606,1081.02C371.442,1081.1 371.277,1081.18 371.112,1081.26L370.757,1081.42C369.987,1081.23 368.179,1080.81 366.721,1080.59C364.813,1080.31 364.167,1079.44 363.313,1078.86C362.459,1078.28 361.364,1078.27 360.154,1078.33C359.571,1078.37 359.247,1078.48 359.068,1078.6Z" style="fill:rgb(58,62,70);"/></g></g></g></svg>