<?xml version="1.0" encoding="UTF-8" standalone="no"?><!DOCTYPE svg PUBLIC "-//W3C//DTD SVG 1.1//EN" "http://www.w3.org/Graphics/SVG/1.1/DTD/svg11.dtd"><svg width="92px" height="92px" version="1.1" xmlns="http://www.w3.org/2000/svg" xmlns:xlink="http://www.w3.org/1999/xlink" xml:space="preserve" xmlns:serif="http://www.serif.com/" style="fill-rule:evenodd;clip-rule:evenodd;stroke-linejoin:round;stroke-miterlimit:2;"><g transform="matrix(4.16667,0,0,4.16667,-91.6667,-1191.67)"><g transform="matrix(1.4,0,0,1.4,-1065.31,-2299.7)"><g id="ll-icon-star"><path id="ll-icon-star1" serif:id="ll-icon-star" d="M785.181,1847.78C785.086,1847.49 784.811,1847.29 784.5,1847.29C784.189,1847.29 783.914,1847.49 783.819,1847.78L782.301,1852.44L777.371,1852.47C777.06,1852.47 776.784,1852.67 776.688,1852.96C776.592,1853.26 776.698,1853.58 776.951,1853.76L780.898,1856.75L779.414,1861.34C779.316,1861.64 779.42,1861.96 779.672,1862.14C779.923,1862.33 780.264,1862.33 780.515,1862.14L784.511,1859.21L788.485,1862.14C788.736,1862.33 789.077,1862.33 789.328,1862.14C789.58,1861.96 789.684,1861.64 789.586,1861.34L788.087,1856.64L792.049,1853.76C792.302,1853.58 792.408,1853.26 792.312,1852.96C792.216,1852.67 791.94,1852.47 791.629,1852.47L786.706,1852.46L785.181,1847.78Z" style="fill:rgb(80,80,80);"/></g></g></g></svg>