<?xml version="1.0" encoding="UTF-8" standalone="no"?><!DOCTYPE svg PUBLIC "-//W3C//DTD SVG 1.1//EN" "http://www.w3.org/Graphics/SVG/1.1/DTD/svg11.dtd"><svg width="92px" height="92px" version="1.1" xmlns="http://www.w3.org/2000/svg" xmlns:xlink="http://www.w3.org/1999/xlink" xml:space="preserve" xmlns:serif="http://www.serif.com/" style="fill-rule:evenodd;clip-rule:evenodd;stroke-linejoin:round;stroke-miterlimit:2;"><g id="ll-icon-search"><path d="M36.889,64.888c1.592,-1.663 1.593,-4.362 0.003,-6.023l-2.881,-3.01c-1.59,-1.661 -4.173,-1.66 -5.764,0.003l-23.25,24.293c-1.592,1.663 -1.593,4.362 -0.003,6.023l2.881,3.011c1.59,1.661 4.173,1.66 5.764,-0.003l23.25,-24.294Z" style="fill:#3a3e46;"/><path d="M56.25,0c19.547,0 35.417,15.87 35.417,35.417c0,19.547 -15.87,35.416 -35.417,35.416c-19.547,0 -35.417,-15.869 -35.417,-35.416c0,-19.547 15.87,-35.417 35.417,-35.417Zm0,12.5c12.648,0 22.917,10.269 22.917,22.917c0,12.648 -10.269,22.916 -22.917,22.916c-12.648,0 -22.917,-10.268 -22.917,-22.916c0,-12.648 10.269,-22.917 22.917,-22.917Z" style="fill:#3a3e46;"/></g></svg>