<?xml version="1.0" encoding="UTF-8" standalone="no"?><!DOCTYPE svg PUBLIC "-//W3C//DTD SVG 1.1//EN" "http://www.w3.org/Graphics/SVG/1.1/DTD/svg11.dtd"><svg width="92px" height="92px" version="1.1" xmlns="http://www.w3.org/2000/svg" xmlns:xlink="http://www.w3.org/1999/xlink" xml:space="preserve" xmlns:serif="http://www.serif.com/" style="fill-rule:evenodd;clip-rule:evenodd;stroke-linejoin:round;stroke-miterlimit:2;"><g transform="matrix(4.16667,0,0,4.16667,-916.667,-458.333)"><g id="ll-icon-stop" transform="matrix(1,0,0,1,-748.001,-968.001)"><path d="M982.706,1078C983.236,1078 983.745,1078.21 984.121,1078.59C985.347,1079.81 988.171,1082.62 989.397,1083.84C989.773,1084.22 989.985,1084.73 989.986,1085.26C989.989,1086.99 989.996,1090.97 989.999,1092.71C989.999,1093.24 989.79,1093.75 989.415,1094.12C988.193,1095.35 985.379,1098.17 984.157,1099.4C983.782,1099.77 983.274,1099.99 982.744,1099.99C981.012,1099.99 977.026,1100 975.294,1100C974.764,1100 974.255,1099.79 973.879,1099.41C972.653,1098.19 969.829,1095.38 968.603,1094.16C968.227,1093.78 968.015,1093.27 968.014,1092.74C968.011,1091.01 968.004,1087.03 968.001,1085.29C968.001,1084.76 968.21,1084.26 968.585,1083.88C969.807,1082.65 972.621,1079.83 973.843,1078.6C974.218,1078.23 974.726,1078.02 975.256,1078.01C976.988,1078.01 980.974,1078 982.706,1078ZM986,1087L972,1087C971.446,1087 971,1087.45 971,1088L971,1090C971,1090.55 971.448,1091 972,1091L986,1091C986.552,1091 987,1090.55 987,1090L987,1088C987,1087.45 986.554,1087 986,1087Z" style="fill:rgb(58,62,70);"/></g></g></svg>