<?xml version="1.0" encoding="UTF-8" standalone="no"?><!DOCTYPE svg PUBLIC "-//W3C//DTD SVG 1.1//EN" "http://www.w3.org/Graphics/SVG/1.1/DTD/svg11.dtd"><svg width="92px" height="92px" version="1.1" xmlns="http://www.w3.org/2000/svg" xmlns:xlink="http://www.w3.org/1999/xlink" xml:space="preserve" xmlns:serif="http://www.serif.com/" style="fill-rule:evenodd;clip-rule:evenodd;stroke-linejoin:round;stroke-miterlimit:2;"><g id="ll-icon-school"><path id="ll-icon-school1" serif:id="ll-icon-school" d="M79.167,91.667l-66.667,0c-2.3,0 -4.167,-1.867 -4.167,-4.167l0,-41.667c0,0 -4.548,0 -4.548,0c-1.271,0 -2.465,-0.606 -3.215,-1.633c-0.749,-1.026 -0.963,-2.348 -0.576,-3.559c1.302,-4.066 3.061,-9.567 4.11,-12.845c0.533,-1.666 2.081,-2.796 3.83,-2.796l25.399,0l0,-9.297c-0.475,-0.419 -0.847,-0.96 -1.066,-1.585c-0.536,-1.527 -0.048,-3.226 1.215,-4.237c3.535,-2.828 7.377,-5.901 9.822,-7.857c1.479,-1.183 3.58,-1.183 5.059,0c2.346,1.876 5.978,4.782 9.391,7.513c1.328,1.062 1.84,2.847 1.277,4.451c-0.197,0.561 -0.51,1.057 -0.906,1.46l0,9.552l25.598,0c1.754,0 3.308,1.134 3.842,2.805c1.009,3.153 2.673,8.354 3.955,12.362c0.423,1.321 0.189,2.764 -0.628,3.884c-0.818,1.12 -2.121,1.782 -3.508,1.782l-4.051,0c0,0 0,41.667 0,41.667c0,2.295 -1.859,4.159 -4.166,4.167Zm-29.167,-25.417l-8.333,0c-2.304,0.004 -4.167,1.869 -4.167,4.167l0,20.833l16.667,0l0,-20.833c0,-2.298 -1.863,-4.163 -4.167,-4.167Zm-25,0.417l-4.167,0c-2.303,0.004 -4.166,1.869 -4.166,4.166l0,4.167l12.5,0l0,-4.167c0,-2.297 -1.863,-4.162 -4.167,-4.166Zm45.833,0l-4.166,0c-2.304,0.004 -4.167,1.869 -4.167,4.166l0,4.167l12.5,0l0,-4.167c0,-2.297 -1.863,-4.162 -4.167,-4.166Zm-45.833,-16.667l-4.167,0c-2.303,0.004 -4.166,1.869 -4.166,4.167l0,4.166l12.5,0l0,-4.166c0,-2.298 -1.863,-4.163 -4.167,-4.167Zm22.917,0l-4.167,0c-2.304,0.004 -4.167,1.869 -4.167,4.167l0,4.166l12.5,0l0,-4.166c0,-2.298 -1.863,-4.163 -4.166,-4.167Zm22.916,0l-4.166,0c-2.304,0.004 -4.167,1.869 -4.167,4.167l0,4.166l12.5,0l0,-4.166c0,-2.298 -1.863,-4.163 -4.167,-4.167Zm-25,-31.25c3.45,0 6.25,2.801 6.25,6.25c0,3.449 -2.8,6.25 -6.25,6.25c-3.449,0 -6.25,-2.801 -6.25,-6.25c0,-3.449 2.801,-6.25 6.25,-6.25Z" style="fill:#3a3e46;"/></g></svg>