<?xml version="1.0" encoding="UTF-8" standalone="no"?><!DOCTYPE svg PUBLIC "-//W3C//DTD SVG 1.1//EN" "http://www.w3.org/Graphics/SVG/1.1/DTD/svg11.dtd"><svg width="92px" height="92px" version="1.1" xmlns="http://www.w3.org/2000/svg" xmlns:xlink="http://www.w3.org/1999/xlink" xml:space="preserve" xmlns:serif="http://www.serif.com/" style="fill-rule:evenodd;clip-rule:evenodd;stroke-linejoin:round;stroke-miterlimit:2;"><g transform="matrix(4.16667,0,0,4.16667,-3575,-320.833)"><g id="ll-icon-target" transform="matrix(1,0,0,1,-43.5,-1221)"><path d="M912.5,1298C918.571,1298 923.5,1302.93 923.5,1309C923.5,1315.07 918.571,1320 912.5,1320C906.429,1320 901.5,1315.07 901.5,1309C901.5,1302.93 906.429,1298 912.5,1298ZM912.5,1301C916.915,1301 920.5,1304.59 920.5,1309C920.5,1313.41 916.915,1317 912.5,1317C908.085,1317 904.5,1313.41 904.5,1309C904.5,1304.59 908.085,1301 912.5,1301ZM912.5,1305.53C914.417,1305.53 915.974,1307.08 915.974,1309C915.974,1310.92 914.417,1312.47 912.5,1312.47C910.583,1312.47 909.026,1310.92 909.026,1309C909.026,1307.08 910.583,1305.53 912.5,1305.53Z" style="fill:rgb(58,62,70);"/></g></g></svg>