<?xml version="1.0" encoding="UTF-8" standalone="no"?><!DOCTYPE svg PUBLIC "-//W3C//DTD SVG 1.1//EN" "http://www.w3.org/Graphics/SVG/1.1/DTD/svg11.dtd"><svg width="71px" height="92px" version="1.1" xmlns="http://www.w3.org/2000/svg" xmlns:xlink="http://www.w3.org/1999/xlink" xml:space="preserve" xmlns:serif="http://www.serif.com/" style="fill-rule:evenodd;clip-rule:evenodd;stroke-linejoin:round;stroke-miterlimit:2;"><g transform="matrix(4.16667,0,0,4.16667,-2937.5,-458.333)"><g id="ll-icon-todo" transform="matrix(0.922646,0,0,0.922646,516.78,47.2601)"><path d="M221.341,91.844L205.084,91.844C204.486,91.844 204,91.359 204,90.761L204,70.168C204,69.57 204.484,69.085 205.084,69.084L207.252,69.084L207.252,71.252C207.252,71.85 207.737,72.335 208.335,72.335L218.09,72.335C218.688,72.335 219.174,71.85 219.174,71.252L219.174,69.084L221.341,69.084C221.941,69.085 222.425,69.57 222.425,70.168L222.425,90.761C222.425,91.357 221.942,91.842 221.341,91.844ZM211.677,88.972L212.684,89.98L218.012,84.652C218.435,84.229 218.435,83.542 218.012,83.119L217.245,82.353C216.822,81.93 216.135,81.93 215.712,82.353L212.673,85.393L211.517,84.237C211.094,83.814 210.407,83.814 209.984,84.237L209.218,85.004C208.795,85.427 208.795,86.113 209.218,86.536L211.538,88.856C211.581,88.9 211.627,88.939 211.677,88.972ZM211.677,80.844L212.684,81.851L218.012,76.523C218.435,76.1 218.435,75.414 218.012,74.991L217.245,74.224C216.822,73.801 216.135,73.801 215.712,74.224L212.673,77.264L211.517,76.108C211.094,75.685 210.407,75.685 209.984,76.108L209.218,76.875C208.795,77.298 208.795,77.985 209.218,78.408L211.538,80.728C211.581,80.771 211.627,80.81 211.677,80.844ZM217.006,68C217.606,68.001 218.09,68.486 218.09,69.084L218.09,70.168C218.09,70.766 217.604,71.252 217.006,71.252L209.419,71.252C208.821,71.252 208.335,70.766 208.335,70.168L208.335,69.084C208.335,68.486 208.82,68.001 209.419,68L217.006,68Z" style="fill:rgb(58,62,70);"/></g></g></svg>