<?xml version="1.0" encoding="UTF-8" standalone="no"?><!DOCTYPE svg PUBLIC "-//W3C//DTD SVG 1.1//EN" "http://www.w3.org/Graphics/SVG/1.1/DTD/svg11.dtd"><svg width="92px" height="92px" version="1.1" xmlns="http://www.w3.org/2000/svg" xmlns:xlink="http://www.w3.org/1999/xlink" xml:space="preserve" xmlns:serif="http://www.serif.com/" style="fill-rule:evenodd;clip-rule:evenodd;stroke-linejoin:round;stroke-miterlimit:2;"><g transform="matrix(4.16667,0,0,4.16667,-5316.67,-320.833)"><g id="ll-icon-thermometer" transform="matrix(1,0,0,1.5724,563.561,-1378.94)"><path d="M720.5,934.878C719.544,935.402 718.939,936.178 718.939,937.043C718.939,938.623 720.955,939.905 723.439,939.905C725.923,939.905 727.939,938.623 727.939,937.043C727.939,936.215 727.385,935.469 726.5,934.947L726.5,927.838C726.5,926.785 725.156,925.93 723.5,925.93C721.844,925.93 720.5,926.785 720.5,927.838L720.5,934.878ZM724.5,935.604L724.5,931.018L722.5,931.018L722.5,935.57C721.585,935.805 720.939,936.377 720.939,937.043C720.939,937.921 722.059,938.633 723.439,938.633C724.819,938.633 725.939,937.921 725.939,937.043C725.939,936.407 725.35,935.857 724.5,935.604Z" style="fill:rgb(58,62,70);"/></g></g></svg>