<?xml version="1.0" encoding="UTF-8" standalone="no"?><!DOCTYPE svg PUBLIC "-//W3C//DTD SVG 1.1//EN" "http://www.w3.org/Graphics/SVG/1.1/DTD/svg11.dtd"><svg width="92px" height="92px" version="1.1" xmlns="http://www.w3.org/2000/svg" xmlns:xlink="http://www.w3.org/1999/xlink" xml:space="preserve" xmlns:serif="http://www.serif.com/" style="fill-rule:evenodd;clip-rule:evenodd;stroke-linejoin:round;stroke-miterlimit:2;"><g transform="matrix(4.16667,0,0,4.16667,-3300,-641.667)"><g transform="matrix(1,0,0,1,-44,-13.9719)"><g id="ll-icon-tiles"><g transform="matrix(1,0,0,1,-2,-1605.03)"><path d="M848,1774C848,1773.45 847.552,1773 847,1773L839,1773C838.448,1773 838,1773.45 838,1774L838,1782C838,1782.55 838.448,1783 839,1783L847,1783C847.552,1783 848,1782.55 848,1782L848,1774Z" style="fill:rgb(80,80,80);"/></g><g transform="matrix(1,0,0,1,10,-1605.03)"><path d="M848,1774C848,1773.45 847.552,1773 847,1773L839,1773C838.448,1773 838,1773.45 838,1774L838,1782C838,1782.55 838.448,1783 839,1783L847,1783C847.552,1783 848,1782.55 848,1782L848,1774Z" style="fill:rgb(80,80,80);"/></g><g transform="matrix(1,0,0,1,10,-1593.03)"><path d="M848,1774C848,1773.45 847.552,1773 847,1773L839,1773C838.448,1773 838,1773.45 838,1774L838,1782C838,1782.55 838.448,1783 839,1783L847,1783C847.552,1783 848,1782.55 848,1782L848,1774Z" style="fill:rgb(80,80,80);"/></g><g transform="matrix(1,0,0,1,-2,-1593.03)"><path d="M848,1774C848,1773.45 847.552,1773 847,1773L839,1773C838.448,1773 838,1773.45 838,1774L838,1782C838,1782.55 838.448,1783 839,1783L847,1783C847.552,1783 848,1782.55 848,1782L848,1774Z" style="fill:rgb(80,80,80);"/></g></g></g></g></svg>