<?xml version="1.0" encoding="UTF-8" standalone="no"?><!DOCTYPE svg PUBLIC "-//W3C//DTD SVG 1.1//EN" "http://www.w3.org/Graphics/SVG/1.1/DTD/svg11.dtd"><svg width="75px" height="92px" version="1.1" xmlns="http://www.w3.org/2000/svg" xmlns:xlink="http://www.w3.org/1999/xlink" xml:space="preserve" xmlns:serif="http://www.serif.com/" style="fill-rule:evenodd;clip-rule:evenodd;stroke-linejoin:round;stroke-miterlimit:2;"><g transform="matrix(4.16667,0,0,4.16667,-2758.33,-458.333)"><path id="ll-icon-trash" d="M678,132L664,132C663.448,132 663,131.552 663,131L663,117L679,117L679,131C679,131.55 678.554,131.997 678,132ZM671.182,122.56L669.414,120.793C669.024,120.402 668.39,120.402 668,120.793L667.293,121.5C666.902,121.89 666.902,122.524 667.293,122.914L669.06,124.682L667.293,126.45C666.902,126.84 666.902,127.474 667.293,127.864L668,128.571C668.39,128.961 669.024,128.961 669.414,128.571L671.182,126.803L672.95,128.571C673.34,128.961 673.974,128.961 674.364,128.571L675.071,127.864C675.461,127.474 675.461,126.84 675.071,126.45L673.303,124.682L675.071,122.914C675.461,122.524 675.461,121.89 675.071,121.5L674.364,120.793C673.974,120.402 673.34,120.402 672.95,120.793L671.182,122.56ZM673,110C673.553,110.001 674,110.449 674,111L674,112C674,112 679,112 679,112C679.553,112.001 680,112.449 680,113L680,114C680,114.552 679.552,115 679,115L663,115C662.448,115 662,114.552 662,114L662,113C662,112.449 662.447,112.001 663,112L668,112C668,112 668,111 668,111C668,110.449 668.447,110.001 669,110L673,110Z" style="fill:rgb(58,62,70);"/></g></svg>