<?xml version="1.0" encoding="UTF-8" standalone="no"?><!DOCTYPE svg PUBLIC "-//W3C//DTD SVG 1.1//EN" "http://www.w3.org/Graphics/SVG/1.1/DTD/svg11.dtd"><svg width="113px" height="92px" version="1.1" xmlns="http://www.w3.org/2000/svg" xmlns:xlink="http://www.w3.org/1999/xlink" xml:space="preserve" xmlns:serif="http://www.serif.com/" style="fill-rule:evenodd;clip-rule:evenodd;stroke-linejoin:round;stroke-miterlimit:2;"><g id="ll-icon-transport"><path id="icon-transport" d="M87.5,64.583c6.899,0 12.5,5.601 12.5,12.5c0,6.899 -5.601,12.5 -12.5,12.5c-6.899,0 -12.5,-5.601 -12.5,-12.5c0,-6.899 5.601,-12.5 12.5,-12.5Zm-66.667,0c6.899,0 12.5,5.601 12.5,12.5c0,6.899 -5.601,12.5 -12.5,12.5c-6.899,0 -12.5,-5.601 -12.5,-12.5c0,-6.899 5.601,-12.5 12.5,-12.5Zm46.252,6.25l-25.837,0c-1.93,-9.503 -10.342,-16.666 -20.415,-16.666c-8.761,0 -16.266,5.42 -19.338,13.091c-0.967,-1.385 -1.495,-3.045 -1.495,-4.758c0,-11.962 0,-33.872 0,-45.833c0,-4.603 3.731,-8.334 8.333,-8.334c17.424,0 57.196,0 70.541,0c2.786,0 5.388,1.393 6.933,3.711c3.839,5.758 11.062,16.591 13.68,20.517c0.645,0.967 1.486,1.789 2.468,2.413c1.658,1.052 4.403,2.794 6.677,4.238c2.409,1.529 3.868,4.183 3.868,7.036c0,4.343 0,10.972 0,16.252c0,3.326 -1.948,6.196 -4.768,7.533c-2.226,-9.104 -10.445,-15.866 -20.232,-15.866c-10.072,0 -18.485,7.163 -20.415,16.666Zm-8.752,-50l-4.166,0c-2.305,0.006 -4.167,1.871 -4.167,4.167l0,33.333c0,2.3 1.867,4.167 4.167,4.167l4.166,0c2.3,0 4.167,-1.867 4.167,-4.167l0,-33.333c0,-2.296 -1.862,-4.161 -4.167,-4.167Zm20.977,2.429c-1.324,-1.559 -2.01,-2.429 -4.31,-2.429c-2.3,0 -4.167,1.556 -4.167,3.473l0,13.888c0,1.917 1.867,3.473 4.167,3.473l12.5,0c2.3,0 5.49,-0.959 4.167,-3.473c-1.045,-1.983 -12.357,-14.932 -12.357,-14.932Zm-41.81,-2.429l-4.167,0c-2.305,0.006 -4.166,1.871 -4.166,4.167l0,4.167c0,2.299 1.867,4.166 4.166,4.166l4.167,0c2.3,0 4.167,-1.867 4.167,-4.166l0,-4.167c0,-2.296 -1.862,-4.161 -4.167,-4.167Zm-20.833,0l-4.167,0c-2.305,0.006 -4.167,1.871 -4.167,4.167l0,4.167c0,2.299 1.867,4.166 4.167,4.166l4.167,0c2.299,0 4.166,-1.867 4.166,-4.166l0,-4.167c0,-2.296 -1.861,-4.161 -4.166,-4.167Z" style="fill:#3a3e46;"/></g></svg>