<?xml version="1.0" encoding="UTF-8" standalone="no"?><!DOCTYPE svg PUBLIC "-//W3C//DTD SVG 1.1//EN" "http://www.w3.org/Graphics/SVG/1.1/DTD/svg11.dtd"><svg width="92px" height="92px" version="1.1" xmlns="http://www.w3.org/2000/svg" xmlns:xlink="http://www.w3.org/1999/xlink" xml:space="preserve" xmlns:serif="http://www.serif.com/" style="fill-rule:evenodd;clip-rule:evenodd;stroke-linejoin:round;stroke-miterlimit:2;"><g transform="matrix(4.16667,0,0,4.16667,-3483.33,-458.333)"><g id="ll-icon-warning" transform="matrix(1,0,0,1,649,0)"><path d="M197.096,110.559C197.267,110.216 197.617,110 198,110C198.383,110 198.733,110.216 198.904,110.559C201.052,114.854 206.932,126.614 208.893,130.537C209.05,130.85 209.033,131.223 208.849,131.521C208.665,131.819 208.339,132 207.989,132C203.876,132 192.124,132 188.011,132C187.661,132 187.335,131.819 187.151,131.521C186.967,131.223 186.95,130.85 187.107,130.537C189.068,126.614 194.948,114.854 197.096,110.559ZM198.5,129C199.052,129 199.5,128.552 199.5,128L199.5,127C199.5,126.448 199.052,126 198.5,126L197.5,126C196.948,126 196.5,126.448 196.5,127L196.5,128C196.5,128.552 196.948,129 197.5,129L198.5,129ZM198.5,124C199.052,124 199.5,123.552 199.5,123L199.5,118C199.5,117.448 199.052,117 198.5,117L197.5,117C196.948,117 196.5,117.448 196.5,118L196.5,123C196.5,123.552 196.948,124 197.5,124L198.5,124Z" style="fill:rgb(58,62,70);"/></g></g></svg>