<?xml version="1.0" encoding="UTF-8" standalone="no"?><!DOCTYPE svg PUBLIC "-//W3C//DTD SVG 1.1//EN" "http://www.w3.org/Graphics/SVG/1.1/DTD/svg11.dtd"><svg width="92px" height="92px" version="1.1" xmlns="http://www.w3.org/2000/svg" xmlns:xlink="http://www.w3.org/1999/xlink" xml:space="preserve" xmlns:serif="http://www.serif.com/" style="fill-rule:evenodd;clip-rule:evenodd;stroke-linejoin:round;stroke-miterlimit:2;"><g transform="matrix(4.16667,0,0,4.16667,-1925,-825)"><g transform="matrix(1,0,0,1.5724,130,-1103.94)"><path id="ll-icon-newwindow" d="M349.293,834.113C349.579,833.931 350.009,833.876 350.383,833.975C350.756,834.073 351,834.305 351,834.562C351,836.966 351,841.347 351,841.347C351,841.698 350.552,841.983 350,841.983L333,841.983C332.448,841.983 332,841.698 332,841.347L332,830.535C332,830.184 332.448,829.899 333,829.899L343.604,829.899C344.009,829.899 344.374,830.054 344.528,830.292C344.683,830.529 344.598,830.803 344.312,830.985C343.238,831.668 342.054,832.421 342.054,832.421C340.883,833.165 340.883,834.374 342.054,835.119L342.761,835.568C343.932,836.313 345.833,836.313 347.004,835.568C347.004,835.568 348.207,834.803 349.293,834.113ZM348.408,830.179L346.675,829.077C346.389,828.895 346.304,828.622 346.459,828.384C346.613,828.146 346.978,827.991 347.383,827.991L353.968,827.991L353.968,832.18C353.968,832.437 353.725,832.669 353.351,832.767C352.977,832.866 352.547,832.811 352.261,832.629L350.529,831.528L345.59,834.669C345.199,834.917 344.566,834.917 344.175,834.669L343.468,834.219C343.078,833.971 343.078,833.568 343.468,833.32L348.408,830.179Z" style="fill:rgb(58,62,70);"/></g></g></svg>